SplineFontDB: 3.0
FontName: ObliquayBold
FullName: Obliquay Bold
FamilyName: Obliquay
Weight: Bold
Copyright: (c) Frank Sikernitsky, 2014-2018
Version: Version 2018.02.0001
ItalicAngle: 0
UnderlinePosition: -100
UnderlineWidth: 50
Ascent: 1050
Descent: 235
InvalidEm: 0
sfntRevision: 0x00010000
LayerCount: 2
Layer: 0 0 "Back" 1
Layer: 1 0 "Fore" 0
XUID: [1021 668 1240808111 12580731]
StyleMap: 0x0040
FSType: 0
OS2Version: 4
OS2_WeightWidthSlopeOnly: 0
OS2_UseTypoMetrics: 1
CreationTime: -2082844800
ModificationTime: 1519276813
PfmFamily: 81
TTFWeight: 700
TTFWidth: 5
LineGap: 0
VLineGap: 0
Panose: 0 0 0 0 0 0 0 0 0 0
OS2TypoAscent: 1050
OS2TypoAOffset: 0
OS2TypoDescent: -235
OS2TypoDOffset: 0
OS2TypoLinegap: 0
OS2WinAscent: 1174
OS2WinAOffset: 0
OS2WinDescent: 294
OS2WinDOffset: 0
HheadAscent: 1174
HheadAOffset: 0
HheadDescent: -294
HheadDOffset: 0
OS2SubXSize: 650
OS2SubYSize: 699
OS2SubXOff: 0
OS2SubYOff: 140
OS2SupXSize: 650
OS2SupYSize: 699
OS2SupXOff: 0
OS2SupYOff: 479
OS2StrikeYSize: 49
OS2StrikeYPos: 258
OS2CapHeight: 927
OS2XHeight: 701
OS2Vendor: 'XXXX'
OS2CodePages: 00000001.00000000
OS2UnicodeRanges: a000003f.5000004f.00000000.00000000
Lookup: 258 0 0 "'kern' Horizontal Kerning in Latin lookup 0" { "'kern' Horizontal Kerning in Latin lookup 0 subtable"  } ['kern' ('latn' <'dflt' > ) ]
MarkAttachClasses: 1
DEI: 91125
LangName: 1033 "" "" "" "" "" "Version 1.4.067" "" " " " " "Frank Sikernitsky" "A very mildly retro poster font." " " "http://frank.sikernitsky.com" "Licensed under the Apache License, Version 2.0" " " "" "Obliquay" "Regular"
Encoding: UnicodeBmp
UnicodeInterp: none
NameList: AGL For New Fonts
DisplaySize: -48
AntiAlias: 1
FitToEm: 0
WinInfo: 0 23 9
BeginPrivate: 8
BlueValues 23 [-23 0 706 723 927 943]
OtherBlues 11 [-252 -206]
BlueScale 9 0.0208333
BlueShift 1 0
StdHW 4 [97]
StdVW 5 [118]
StemSnapH 19 [87 97 101 111 119]
StemSnapV 16 [99 110 118 127]
EndPrivate
BeginChars: 65536 364

StartChar: .notdef
Encoding: 0 -1 0
AltUni2: 000000.ffffffff.0
Width: 630
Flags: W
LayerCount: 2
Fore
SplineSet
91 716 m 1
 560.080078125 716 l 1
 576.080078125 716 l 1
 576.080078125 700 l 1
 576.080078125 0 l 1
 576.080078125 -16 l 1
 560.080078125 -16 l 1
 91 -16 l 1
 75 -16 l 1
 75 0 l 1
 75 700 l 1
 75 716 l 1
 91 716 l 1
157 66 m 1
 494.080078125 66 l 1
 494.080078125 634 l 1
 157 634 l 1
 157 66 l 1
EndSplineSet
EndChar

StartChar: exclam
Encoding: 33 33 2
Width: 287
Flags: W
LayerCount: 2
Fore
SplineSet
89.4079404957 946.920595043 m 1
 209.407940496 958.920595043 l 1
 226.653727259 960.64517372 l 1
 226.996863975 943.316769584 l 1
 234.996863975 539.316769584 l 1
 235.011879615 538.558479776 l 1
 234.955099579 537.802169701 l 1
 209.955099579 204.802169701 l 1
 208.788924016 189.268711201 l 1
 193.229809544 190.018548043 l 1
 110.229809544 194.018548043 l 1
 95.8643185222 194.710860863 l 1
 95.0271303894 209.06863734 l 1
 75.0271303894 552.06863734 l 1
 75 552.533923519 l 1
 75 553 l 1
 75 931 l 1
 75 945.479800994 l 1
 89.4079404957 946.920595043 l 1
80.0084538676 -6.52005028073 m 1
 76.0084538676 116.479949719 l 1
 75.4534422234 133.546557777 l 1
 92.5200502807 132.991546132 l 1
 215.520050281 128.991546132 l 1
 231 128.488133133 l 1
 231 113 l 1
 231 -6 l 1
 231 -22 l 1
 215 -22 l 1
 96 -22 l 1
 80.5118668666 -22 l 1
 80.0084538676 -6.52005028073 l 1
EndSplineSet
EndChar

StartChar: quotedbl
Encoding: 34 34 3
Width: 443
Flags: W
LayerCount: 2
Fore
SplineSet
86.7486269834 942.971841981 m 5
 187.748626984 936.971841981 l 5
 201.722030103 936.141738825 l 5
 202.756088759 922.181946968 l 5
 210.756088759 814.181946968 l 5
 210.966431808 811.342315807 l 5
 210.18418785 808.604461954 l 5
 182.18418785 710.604461954 l 5
 179.241865582 700.306334014 l 5
 168.599628932 699.101552507 l 5
 115.599628932 693.101552507 l 5
 100.884387231 691.435676088 l 5
 98.0877015363 705.978441702 l 5
 78.0877015358 809.978441702 l 5
 77.9062997872 810.921730794 l 5
 77.8390565099 811.879947496 l 5
 69.8390565099 925.879947496 l 5
 68.5638157872 944.052127794 l 5
 86.7486269834 942.971841981 l 5
262.639233556 934.957853071 m 5
 372.639233556 942.957853071 l 5
 389.799804688 944.205894608 l 5
 389.799804688 927 l 5
 389.799804688 813 l 5
 389.799804688 810.810986081 l 5
 389.211837456 808.70241394 l 5
 360.211837456 704.70241394 l 5
 356.279992245 690.602003528 l 5
 341.886376525 693.26748792 l 5
 287.886376525 703.26748792 l 5
 278.154095464 705.069762191 l 5
 275.421610202 714.582859031 l 5
 248.421610202 808.582859031 l 5
 247.799804688 810.747663412 l 5
 247.799804688 813 l 5
 247.799804688 919 l 5
 247.799804688 933.878621881 l 5
 262.639233556 934.957853071 l 5
EndSplineSet
EndChar

StartChar: numbersign
Encoding: 35 35 4
Width: 865
Flags: W
LayerCount: 2
Fore
SplineSet
388.144025128 640.920954913 m 1
 344.886895424 289 l 1
 489.453005991 289 l 1
 535.288672776 640.101207573 l 1
 388.144025128 640.920954913 l 1
588.5 943 m 1
 670.5 943 l 1
 688.208043831 943 l 1
 686.418046553 925.382658372 l 1
 669.230408274 756.220113209 l 1
 813.302484187 757.998780813 l 1
 832.010347997 758.229742095 l 1
 829.33565371 739.712627798 l 1
 816.33565371 649.712627798 l 1
 814.329306584 635.822532315 l 1
 800.29619488 636.001298069 l 1
 657.968882245 637.814384854 l 1
 623.157625075 287.869641729 l 1
 740.618515267 286.999561061 l 1
 758.771564354 286.86509403 l 1
 756.357952359 268.872713708 l 1
 745.357952359 186.872713708 l 1
 743.511155958 173.105685991 l 1
 729.621208643 173.000459117 l 1
 611.97551888 172.109203892 l 1
 594.41890948 -1.6088259581 l 1
 592.964482316 -16 l 1
 578.5 -16 l 1
 468.5 -16 l 1
 450.31528842 -16 l 1
 452.630167977 2.03676988529 l 1
 474.31528842 171 l 1
 326.051636521 171 l 1
 297.081648368 -2.63313692614 l 1
 294.851441209 -16 l 1
 281.299804688 -16 l 1
 199.299804688 -16 l 1
 181.676670234 -16 l 1
 183.374204471 1.54118711776 l 1
 199.665334547 169.882864572 l 1
 66.4057626289 169.00035085 l 1
 48.0086777872 168.878515851 l 1
 50.4401582766 187.114619521 l 1
 62.4401582766 277.114619521 l 1
 64.3041996903 291.094930125 l 1
 78.4079103279 290.999634782 l 1
 211.810977445 290.098262707 l 1
 246.684111084 643.41816931 l 1
 138.915915232 646.00460601 l 1
 120.949743674 646.435794128 l 1
 123.456180606 664.23149635 l 1
 133.456180606 735.23149635 l 1
 135.363788602 748.775513116 l 1
 149.039676472 748.997885276 l 1
 258.002049386 750.769631177 l 1
 278.40381632 928.821415334 l 1
 280.000396951 942.755209927 l 1
 294.023269112 942.997610074 l 1
 409.723464424 944.997610074 l 1
 428.382394876 945.320149382 l 1
 425.852265528 926.830742612 l 1
 402.324726073 754.898723518 l 1
 550.413203589 754.078288739 l 1
 572.627460332 929.015560593 l 1
 574.403262162 943 l 1
 588.5 943 l 1
EndSplineSet
EndChar

StartChar: dollar
Encoding: 36 36 5
Width: 812
Flags: HW
LayerCount: 2
Fore
SplineSet
138.125 262.229492188 m 1
 154.870117188 256.801757812 l 2
 292.045026293 213.376953125 325.19134168 208.83203125 483.863419997 206.233398438 c 0
 589.150390625 207.842773438 586.689280728 211.9765625 586.689280728 318.748046875 c 0
 586.689280728 408.237304688 591.909179688 408.661132812 378.421086603 438.456054688 c 1
 126.732421875 481.541992188 104.986328125 502.237304688 104.986328125 701.000976562 c 0
 104.986328125 877.215820312 146.6953125 928.184570312 316.836591709 934.56640625 c 1
 319.86533736 973.751953125 324.588622377 1042.16210938 324.608099841 1042.44628906 c 2
 325.620927969 1057.09667969 l 1
 341.880282075 1057.4453125 l 1
 467.532648522 1060.14550781 l 1
 485.422699197 1060.53027344 l 1
 485.681316636 1044.38183594 l 1
 487.480817892 932.174804688 l 1
 545.595077952 928.642578125 636.51171875 922.735351562 719.641601562 897.4375 c 2
 741.541992188 890.772460938 l 1
 727.49609375 873.206054688 l 1
 653.208984375 780.297851562 l 1
 646.549804688 771.969726562 l 1
 636.095703125 774.90234375 l 2
 554.291765623 796.947265625 533.776585635 808.241210938 376.248267287 808.241210938 c 0
 245.08984375 808.241210938 237.786132812 798.083007812 237.786132812 658.311523438 c 0
 237.786132812 584.345703125 230.9921875 583.57421875 495.965417623 544.716796875 c 0
 704.858398438 509.513671875 724.953125 489.776367188 724.953125 327.499023438 c 0
 724.953125 152.08984375 691.108398438 96.5546875 504.128639197 85.66015625 c 1
 507.180108556 52.3056640625 518.171890734 4.4130859375 518.254128916 4.05078125 c 2
 522.363873818 -14.041015625 l 1
 501.241646201 -14.4462890625 l 1
 360.629505329 -17.146484375 l 1
 342.814118266 -17.4892578125 l 1
 342.52520255 -1.9326171875 l 1
 340.834991508 89.173828125 l 1
 175.784179688 100.262695312 122.6953125 135.517578125 118.204101562 138.5625 c 2
 110.190429688 143.995117188 l 1
 112.588867188 154.145507812 l 1
 134.189453125 245.573242188 l 1
 138.125 262.229492188 l 1
EndSplineSet
EndChar

StartChar: percent
Encoding: 37 37 6
Width: 905
Flags: HW
LayerCount: 2
Fore
SplineSet
78.171875 49.5048828125 m 1
 90.701171875 70.2666015625 l 1
 679.279811659 994.266601562 l 1
 688.633161069 1008.69824219 l 1
 702.96875 999.25 l 1
 781.268554688 946.25 l 1
 793.538085938 937.9453125 l 1
 786.19921875 925.075195312 l 1
 248.609358485 36.0751953125 l 1
 242.840865352 26.6552734375 l 1
 231.307025539 28.1533203125 l 1
 102.189453125 46.1533203125 l 1
 78.171875 49.5048828125 l 1
75.400390625 835 m 0
 75.400390625 964.661132812 89.4697265625 1001 211.400390625 1001 c 2
 227.400390625 1001 l 2
 359.179834845 1001 374.374045755 964.729492188 374.374045755 835 c 2
 374.374045755 793 l 2
 374.374045755 689.721679688 364.527752387 614.1171875 233.689937611 612.999023438 c 0
 98.37890625 614.106445312 75.400390625 705.708984375 75.400390625 835 c 0
227.400390625 902 m 0
 179.14453125 902 183.400390625 900.689453125 183.400390625 843.953125 c 2
 183.400390625 809.48828125 l 2
 183.400390625 751.83203125 181.028320312 746 227.400390625 746 c 0
 271.145287927 746 271.271145959 755.829101562 271.271145959 803.139648438 c 2
 271.271145959 870.255859375 l 2
 271.271145959 906.321289062 279.682657763 902 227.400390625 902 c 0
848.299804688 195 m 0
 848.299804688 61.455078125 831.969726562 29 682.393749133 29 c 0
 525.954313019 29 509.696601738 68.2314453125 509.696601738 201 c 0
 509.696601738 330.19921875 516.274781543 409 676.808798964 409 c 0
 833.639648438 409 848.299804688 325.506835938 848.299804688 195 c 0
619.243432771 143 m 0
 619.243432771 131.868164062 613.26937152 124 671.223848795 124 c 0
 750.620117188 124 754.299804688 129.09765625 754.299804688 192 c 2
 754.299804688 202 l 2
 754.299804688 277.607421875 755.788085938 305 687.978699302 305 c 0
 619.759450703 305 621.391409851 284.272460938 621.391409851 219 c 2
 621.391409851 199 l 1
 621.391409851 189 l 2
 621.391409851 169.88671875 619.243432771 153.336914062 619.243432771 143 c 0
EndSplineSet
EndChar

StartChar: ampersand
Encoding: 38 38 7
Width: 635
Flags: W
LayerCount: 2
Fore
SplineSet
264.924847149 72.2553893314 m 1
 105.993857756 87.2823917864 59.400390625 166.182987791 59.400390625 278 c 0
 59.400390625 287.78501133 59.4844319885 299.937306289 60.4413658861 310.219029389 c 0
 64.6784557747 395.298899854 66.3775202505 465.61191274 156.152383299 503.931157092 c 1
 98.4733663149 529.117293836 90.3417636114 573.859336692 86.400390625 667.664013769 c 2
 86.400390625 685 l 2
 86.400390625 819.70216612 167.532160868 868.761790426 268.940876666 883.803413282 c 1
 263.182651945 926.973223299 254.166439306 991.696107308 254.152948219 991.792977156 c 2
 251.67599769 1009.57818649 l 1
 269.628007556 1009.99567509 l 1
 398.628007556 1012.99567509 l 1
 415.860508854 1013.39643094 l 1
 414.979067072 996.181821831 l 1
 409.384167398 886.91310681 l 1
 481.01013683 880.869874777 522.855788058 858.997554614 579.735355136 813.493900951 c 2
 592.407731345 803.355999983 l 1
 582.091118145 790.828683954 l 1
 526.091118145 722.828683954 l 1
 513.598117166 707.658611336 l 1
 501.276047411 722.967849517 l 2
 470.996167012 760.588306982 444.515764595 772 392.599609375 772 c 0
 381.806748536 772 369.081261941 771.043504161 354.715770392 770.038979212 c 0
 242.059537134 762.160880592 220.07812812 751.218720616 217.510586915 661.191057424 c 1
 221.214729477 590.627344923 244.725256465 563.254275972 352.885129824 563.000183733 c 1
 441.310049014 570.935952116 l 1
 457.253276995 572.366790455 l 1
 458.67683766 556.422911008 l 1
 463.67683766 500.422911008 l 1
 463.808116987 498.952582547 l 1
 463.668161937 497.483054518 l 1
 457.668161937 434.483054518 l 1
 456.161821154 418.666476306 l 1
 440.335064772 420.061822614 l 1
 350.29589193 428.000014395 l 1
 206.335067245 427.767833651 204.023033362 400.589122113 196.64539713 311.676920639 c 2
 196.614650639 311.306376733 l 1
 196.566724803 310.93766106 l 2
 195.426649396 302.166532455 195.400390625 294.017434948 195.400390625 285 c 0
 195.400390625 216.476590061 221.40509825 192 332.799804688 192 c 0
 448.778052065 192 465.218373223 197.665384683 517.898706634 268.544378726 c 2
 530.274198995 285.195041175 l 1
 543.234135326 268.995120761 l 1
 603.234135326 193.995120761 l 1
 612.712799397 182.146790672 l 1
 601.383531049 172.053442508 l 2
 550.714129816 126.911612318 523.039203703 85.0824098843 411.822798881 72.5729134062 c 1
 415.176017041 30.6004826957 420.875275761 -26.9484313492 420.922699164 -27.4291240242 c 2
 422.615248126 -44.5851238352 l 1
 405.380844447 -44.9954667799 l 1
 279.380844447 -47.9954667799 l 1
 262.69417899 -48.3927683384 l 1
 263.002734055 -31.7042259703 l 1
 264.924847149 72.2553893314 l 1
EndSplineSet
EndChar

StartChar: quotesingle
Encoding: 39 39 8
Width: 269
Flags: W
LayerCount: 2
Fore
SplineSet
98.9157199834 936.953761305 m 1
 203.915719983 928.953761305 l 1
 220.159552027 927.716136006 l 1
 218.629467355 911.497238486 l 1
 208.59959623 805.18060456 l 1
 194.557165898 700.865407806 l 1
 192.647932122 686.682528328 l 1
 178.3407355 687.004038365 l 1
 89.3407355005 689.004038365 l 1
 72.7535248899 689.37678467 l 1
 73.7278053417 705.939552351 l 1
 79.7084413569 807.610364609 l 1
 81.7026570403 921.280658566 l 1
 82.0002342623 938.242560217 l 1
 98.9157199834 936.953761305 l 1
EndSplineSet
EndChar

StartChar: parenleft
Encoding: 40 40 9
Width: 381
Flags: W
LayerCount: 2
Fore
SplineSet
276.061476481 944.380298563 m 1
 331.061476481 868.380298563 l 1
 341.109104498 854.496303484 l 1
 326.568394835 845.425035071 l 2
 219.19027772 778.436851916 197.099609375 817.149951823 197.099609375 441 c 0
 197.099609375 92.9415353215 228.874983531 47.6294070016 349.907215613 -20.0342818002 c 2
 367.085358426 -29.6378104595 l 1
 354.177559365 -44.4939565486 l 1
 301.177559365 -105.493956549 l 1
 292.642519696 -115.317304092 l 1
 281.286361762 -108.962562864 l 2
 84.6770874675 1.05713466842 71.099609375 19.5168451576 71.099609375 417 c 2
 71.099609375 572 l 2
 71.099609375 835.011980074 88.1366751 847.670979355 254.806781918 948.683165305 c 2
 267.416834808 956.325621602 l 1
 276.061476481 944.380298563 l 1
EndSplineSet
EndChar

StartChar: parenright
Encoding: 41 41 10
Width: 377
Flags: W
LayerCount: 2
Fore
SplineSet
117.891928149 -129.686555868 m 1
 47.8919281484 -51.6865558685 l 1
 35.4857543977 -37.8625336892 l 1
 50.9947908934 -27.6406687261 l 2
 177.886635324 55.9925923757 182.799804688 68.5480518867 182.799804688 446.724219886 c 1
 170.756962405 795.966646091 166.88300594 807.243760928 55.5640316035 885.934760027 c 2
 40.9447175231 896.269102739 l 1
 52.8502911856 909.639977776 l 1
 117.850291186 982.639977776 l 1
 127.359910161 993.320011393 l 1
 139.036534417 985.064563671 l 2
 299.949859847 871.297817666 310.823246517 834.568317612 323.799804688 447.267966054 c 1
 323.799804688 22.0299341338 312.166815542 -17.3360572372 138.638551204 -132.337037153 c 2
 127.120770236 -139.970122765 l 1
 117.891928149 -129.686555868 l 1
EndSplineSet
EndChar

StartChar: asterisk
Encoding: 42 42 11
Width: 601
Flags: W
LayerCount: 2
Fore
SplineSet
525.298584089 739.939339655 m 1
 562.298584089 625.939339655 l 1
 567.110328633 611.113964574 l 1
 552.415933518 605.915947255 l 1
 427.344477667 561.67298328 l 1
 533.258401673 437.377303868 l 1
 544.416819209 424.282301469 l 1
 530.547844321 414.101883732 l 1
 436.547844321 345.101883732 l 1
 422.285397065 334.632640534 l 1
 413.29811188 349.872429242 l 1
 320.03342726 508.021865723 l 1
 232.818694934 366.601400829 l 1
 223.540520052 351.556651276 l 1
 209.491148226 362.282515788 l 1
 116.491148226 433.282515788 l 1
 103.765038869 442.998147663 l 1
 113.489296579 455.717667075 l 1
 192.581575478 559.171915909 l 1
 67.1786332402 583.287897574 l 1
 49.5370552159 586.680513127 l 1
 54.9413257217 603.813200475 l 1
 101.941325721 752.813200475 l 1
 107.902622253 771.711778842 l 1
 125.120685958 761.902008054 l 1
 228.325731849 703.102257874 l 1
 212.204382313 814.712648837 l 1
 209.562900838 833 l 1
 228.040039062 833 l 1
 377.540039062 833 l 1
 395.973942162 833 l 1
 393.380957572 814.749377698 l 1
 372.272583806 666.178900804 l 1
 501.483353656 748.494307259 l 1
 518.917236295 759.600789615 l 1
 525.298584089 739.939339655 l 1
EndSplineSet
EndChar

StartChar: plus
Encoding: 43 43 12
Width: 885
Flags: W
LayerCount: 2
Fore
SplineSet
388.031563881 393.456295764 m 1
 68.4224777131 403.007139116 l 1
 52.900390625 403.470983946 l 1
 52.900390625 419 l 1
 52.900390625 486 l 1
 52.900390625 501.525384955 l 1
 68.4187394127 501.992748735 l 1
 384.429727226 511.510004206 l 1
 375.8482282 776.482088713 l 1
 375.313272075 793 l 1
 391.83984375 793 l 1
 503.139648438 793 l 1
 519.596520463 793 l 1
 519.133309161 776.549648268 l 1
 511.802332768 516.199480273 l 1
 827.187148958 519.998839135 l 1
 843.379882812 520.193908788 l 1
 843.379882812 504 l 1
 843.379882812 395 l 1
 843.379882812 378.467521013 l 1
 826.856259512 379.008570463 l 1
 506.986458266 389.482385851 l 1
 499.633442643 125.554413964 l 1
 499.200097712 110 l 1
 483.639648438 110 l 1
 412.639648438 110 l 1
 397.145845035 110 l 1
 396.647913117 125.485800196 l 1
 388.031563881 393.456295764 l 1
EndSplineSet
EndChar

StartChar: comma
Encoding: 44 44 13
Width: 272
Flags: W
LayerCount: 2
Fore
SplineSet
95.1116621491 124.948014889 m 1
 194.111662149 132.948014889 l 1
 209.719275761 134.209236191 l 1
 211.316893643 118.632461848 l 1
 223.316893643 1.63246184798 l 1
 225.125351268 -16 l 1
 209.481212807 -16 l 1
 146.122893116 -102.276671847 146.787393381 -115 111.400390625 -115 c 2
 104.400390625 -115 l 1
 91.4180850764 -115 l 1
 88.7435940652 -102.296167697 l 1
 76.7435940652 -45.2961676968 l 1
 72.6812429711 -26 l 1
 89.8927702223 -26 l 2
 91.9536461462 -23.6374575515 94.3327262705 -20.6052644538 97.8229120784 -16 c 1
 88.400390625 -16 l 1
 71.1830425611 -16 l 1
 72.4433113159 1.17116178415 l 1
 80.4433113159 110.171161784 l 1
 81.4468065342 123.843784133 l 1
 95.1116621491 124.948014889 l 1
EndSplineSet
EndChar

StartChar: hyphen
Encoding: 45 45 14
Width: 425
Flags: W
LayerCount: 2
Fore
SplineSet
73.8089895333 397.457938469 m 1
 69.8089895333 515.457938469 l 1
 69.2185933983 532.874624452 l 1
 86.622245406 531.978848246 l 1
 358.622245407 517.978848246 l 1
 373.799804688 517.197650342 l 1
 373.799804688 502 l 1
 373.799804688 403 l 1
 373.799804688 387.29572312 l 1
 358.098260213 387.002783858 l 1
 90.0982602125 382.002783858 l 1
 74.3428572857 381.708839773 l 1
 73.8089895333 397.457938469 l 1
EndSplineSet
EndChar

StartChar: period
Encoding: 46 46 15
Width: 276
Flags: W
LayerCount: 2
Fore
SplineSet
73.7001953125 -8 m 1
 73.7001953125 119 l 1
 73.7001953125 136.194654398 l 1
 90.8503651232 134.958606124 l 1
 201.850365123 126.958606124 l 1
 215.663276305 125.963080993 l 1
 216.658801436 112.150169811 l 1
 224.658801436 1.15016981071 l 1
 225.814530527 -14.885571336 l 1
 209.773403141 -15.9639664544 l 1
 90.7734031414 -23.9639664544 l 1
 73.7001953125 -25.1117451319 l 1
 73.7001953125 -8 l 1
EndSplineSet
EndChar

StartChar: slash
Encoding: 47 47 16
Width: 452
Flags: W
LayerCount: 2
Fore
SplineSet
48.2888568657 4.30007526417 m 1
 310.288856865 943.300075264 l 1
 314.637399616 958.885119703 l 1
 330.172727598 954.362176114 l 1
 409.172727598 931.362176114 l 1
 424.14160592 927.004148248 l 1
 420.173176019 911.927302118 l 1
 171.173176019 -34.0726978817 l 1
 166.85783273 -50.4675362411 l 1
 150.739865715 -45.2116774317 l 1
 58.7398657152 -15.2116774317 l 1
 44.1702935283 -10.4607299794 l 1
 48.2888568657 4.30007526417 l 1
EndSplineSet
EndChar

StartChar: zero
Encoding: 48 48 17
Width: 947
Flags: HW
LayerCount: 2
Fore
SplineSet
496.889206425 -15 m 0
 137.223632812 -15 113.099609375 21.359375 113.099609375 463 c 0
 113.099609375 884.525390625 148.471679688 941 496.889206425 941 c 0
 845.620117188 941 881 884.532226562 881 463 c 0
 881 21.3935546875 857.881835938 -15 496.889206425 -15 c 0
268.159492361 463.022460938 m 0
 268.159492361 120.858398438 272.69613087 119 496.889206425 119 c 0
 722.53081533 119 727 120.900390625 727 463.022460938 c 0
 727 789.704101562 711.792774621 808 496.889206425 808 c 0
 283.432072256 808 268.159492361 789.745117188 268.159492361 463.022460938 c 0
EndSplineSet
EndChar

StartChar: one
Encoding: 49 49 18
Width: 480
Flags: HW
LayerCount: 2
Fore
SplineSet
377.100585938 14.23046875 m 1
 370.642578125 -8.23828125 l 2
 369.810546875 -8.79296875 362.100585938 -11 361.100585938 -11 c 2
 287.100585938 -11 l 1
 287.100585938 -1.9521484375 l 1
 228.100585938 5.36328125 l 1
 228.100585938 741.8125 l 1
 66.2998046875 718.487304688 l 1
 71.5185546875 838.349609375 l 1
 266.620117188 929.080078125 l 1
 377.100585938 926.65234375 l 1
 377.100585938 14.23046875 l 1
EndSplineSet
EndChar

StartChar: two
Encoding: 50 50 19
Width: 719
Flags: HW
LayerCount: 2
Fore
SplineSet
223.243164062 606.087890625 m 1
 197.7109375 616.288085938 l 1
 59.7109375 675.288085938 l 1
 50.1640625 679.370117188 l 1
 50.0029296875 689.751953125 l 2
 50.001953125 689.82421875 49.8017578125 701.900390625 50.00390625 712.311523438 c 0
 53.158203125 874.237304688 121.047851562 946.734375 351.489257812 946 c 0
 382.098632812 945.905273438 411.834960938 944.778320312 440.299804688 942.07421875 c 0
 603.962890625 926.220703125 715.291992188 851.575195312 691.913085938 629.326171875 c 0
 677.571289062 492.986328125 588.537109375 451.796875 444.01171875 344.526367188 c 0
 354.165039062 278.65625 259.211914062 238.577148438 233.256835938 112.369140625 c 1
 702.6875 120.99609375 l 1
 724.0625 121.415039062 l 1
 718.4375 100.7890625 l 1
 685.4375 -20.2109375 l 1
 682.221679688 -32.0009765625 l 1
 670.000976562 -32.0009765625 l 1
 79.701171875 -32.0009765625 l 1
 63.701171875 -32.0009765625 l 1
 63.701171875 -16.0009765625 l 1
 63.701171875 44.9990234375 l 2
 63.701171875 303.409179688 165.953125 334.991210938 243.768554688 401.892578125 c 0
 462.647460938 581.623046875 522.290039062 561.071289062 537.37109375 644.599609375 c 0
 541.176757812 665.67578125 542.704101562 683.735351562 542.286132812 699.029296875 c 0
 539.692382812 794.040039062 463.579101562 795.231445312 321.83984375 792.004882812 c 0
 318.364257812 791.92578125 314.993164062 791.80078125 311.731445312 791.625 c 0
 240.487304688 787.803710938 212.39453125 766.46875 221.491210938 631.985351562 c 2
 223.243164062 606.087890625 l 1
EndSplineSet
EndChar

StartChar: three
Encoding: 51 51 20
Width: 836
Flags: HW
LayerCount: 2
Fore
SplineSet
77.8271484375 731.015625 m 2
 98.443359375 873.950195312 180.943359375 933.252929688 349.476671706 939.984375 c 0
 570.636345443 948.670898438 710.87890625 925.391601562 749.665039062 736.930664062 c 0
 753.557617188 718.0234375 748.641601562 700.708984375 746.870117188 685.706054688 c 0
 734.317382812 579.430664062 743.475585938 524.162109375 673.00390625 493.501953125 c 1
 767.4375 463.376953125 778.598632812 405.037109375 778.974609375 263.704101562 c 0
 778.99609375 255.462890625 778.903320312 247.432617188 778.688476562 239.608398438 c 0
 773.251953125 41.501953125 683.318359375 -21.2158203125 428.989551057 -14.9921875 c 0
 154.038085938 -8.2607421875 97.6044921875 33.5341796875 77.1474609375 241.997070312 c 2
 75.400390625 259.798828125 l 1
 93.9169921875 258.859375 l 1
 226.916992188 252.109375 l 1
 243.36988591 251.330078125 l 1
 243.17436592 236.51953125 l 2
 243.116985054 232.147460938 243.196680702 227.94921875 243.408139821 223.920898438 c 0
 248.249384787 131.571289062 320.574779294 118.265625 428.61976325 122.887695312 c 0
 587.251294146 129.672851562 600.633787364 148.983398438 608.702174771 268.481445312 c 0
 609.521446033 280.61328125 609.960303402 291.783203125 609.963491228 302.025390625 c 0
 610.00068253 404.485351562 576.065212987 418.000976562 391.26694432 418.000976562 c 2
 299.321543875 418.000976562 l 1
 281.911763909 418.000976562 l 1
 281.911763909 434.000976562 l 1
 281.911763909 488.444335938 l 1
 277.710209345 543.889648438 l 1
 276.412764195 561.000976562 l 1
 295.077484965 561.000976562 l 1
 402.583726341 561.000976562 l 2
 555.800203605 561.000976562 568.812909016 562.8046875 590.425306155 682.932617188 c 0
 592.468702571 696.9609375 594.488721596 704.025390625 593.44630252 708.64453125 c 0
 578.320068523 775.654296875 515.465704829 812.866210938 401.416982054 811.428710938 c 0
 386.853930636 811.24609375 376.425489438 813.4296875 369.793748913 812.555664062 c 0
 303.964081026 803.879882812 251.372391582 765.741210938 239.059945264 716.94140625 c 2
 235.805174999 704.041015625 l 1
 221.5625 704.9609375 l 1
 92.5625 713.596679688 l 1
 75.4794921875 714.740234375 l 1
 77.8271484375 731.015625 l 2
EndSplineSet
EndChar

StartChar: four
Encoding: 52 52 21
Width: 793
Flags: HW
LayerCount: 2
Fore
SplineSet
466.712429451 652.813476562 m 1
 241.593250054 384.1328125 l 1
 467.933403929 378.44921875 l 1
 466.712429451 652.813476562 l 1
497.005245767 938.6796875 m 1
 514.909298215 936.90625 l 1
 613.168945312 926.90625 l 1
 627.440429688 925.35546875 l 1
 627.440429688 911 l 1
 627.440429688 897.942382812 l 1
 639.811523438 894.953125 l 1
 629.33203125 877.2265625 l 1
 627.440429688 874.026367188 l 1
 627.440429688 376.86328125 l 1
 724.01171875 373.529296875 l 1
 739.440429688 372.997070312 l 1
 739.440429688 358.072265625 l 1
 739.440429688 250.7734375 l 1
 739.440429688 234.745117188 l 1
 722.869140625 235.317382812 l 1
 627.440429688 238.611328125 l 1
 627.440429688 20.7099609375 l 1
 627.440429688 8.0087890625 l 1
 614.552734375 5.5390625 l 1
 490.083531802 -16.6943359375 l 1
 469.183321613 -20.4697265625 l 1
 469.103995791 -1.7021484375 l 1
 468.069544191 243.411132812 l 1
 177.453125 250.71484375 l 1
 87.85546875 248.790039062 l 1
 71.5 248.438476562 l 1
 71.5 264.256835938 l 1
 71.5 358.046875 l 1
 71.5 362.922851562 l 1
 74.3916015625 366.91796875 l 1
 494.805562159 914.634765625 l 1
 495.509846823 922.329101562 l 1
 497.005245767 938.6796875 l 1
EndSplineSet
EndChar

StartChar: five
Encoding: 53 53 22
Width: 776
Flags: HW
LayerCount: 2
Fore
SplineSet
109.4765625 478.5390625 m 1
 110.706054688 494.602539062 l 1
 142.706054688 912.1796875 l 1
 143.80078125 927 l 1
 158.662109375 927 l 1
 671.501953125 927 l 1
 688.815429688 927 l 1
 687.453125 910.565429688 l 1
 678.453125 802.009765625 l 1
 677.264648438 787.680664062 l 1
 662.173828125 787.9765625 l 1
 312.843060615 794.356445312 l 1
 288.23526302 608 l 1
 439.043493203 608 l 2
 679.598632812 608 718.501953125 555.513671875 718.501953125 297.962890625 c 0
 718.501953125 36.0498046875 673.07421875 -15 390.307067922 -15 c 0
 187.169921875 -15 142.604492188 21.8896484375 71.658203125 213.443359375 c 2
 66.2998046875 227.911132812 l 1
 80.5634765625 233.791992188 l 1
 194.563476562 280.791992188 l 1
 209.665039062 287.018554688 l 1
 215.577148438 271.791015625 l 2
 271.412630463 140.192382812 291.038137791 128 390.307067922 128 c 0
 543.62205664 128 559.009333043 141.301757812 559.009333043 298.240234375 c 0
 559.009333043 465.09765625 543.422851172 479 406.075526679 479 c 2
 273.208710032 479 l 1
 273.208710032 473.482421875 l 1
 255.005637422 474.0078125 l 1
 126.153320312 478.0078125 l 1
 109.4765625 478.5390625 l 1
EndSplineSet
EndChar

StartChar: six
Encoding: 54 54 23
Width: 821
Flags: HW
LayerCount: 2
Fore
SplineSet
738.747070312 762.989257812 m 1
 725.879882812 754.598632812 l 1
 633.879882812 694.598632812 l 1
 621.424804688 686.475585938 l 1
 612.413085938 698.303710938 l 2
 524.91313802 803.28515625 505.724192862 813 434.960348203 813 c 0
 240.190429688 813 237.384765625 761.951171875 237.108398438 531.448242188 c 1
 265.078381765 537.720703125 316.017319456 545 415.040314175 545 c 2
 436.483450017 545 l 2
 716.259765625 542.049804688 726.483398438 520.44921875 756.990234375 311.844726562 c 0
 763.075195312 267.4765625 766.139648438 229.997070312 766.139648438 195.97265625 c 0
 766.139648438 20.0234375 668.440429688 -15 417.885575246 -15 c 0
 107.34375 -15 87.099609375 24.0537109375 87.099609375 489.125976562 c 0
 87.099609375 865.897460938 107.016601562 941 434.960348203 941 c 0
 602.068666077 941 648.526367188 914.470703125 730.885742188 776.1875 c 2
 738.747070312 762.989257812 l 1
450.611421782 412 m 2
 403.904035024 412 l 2
 250.457673203 408.243164062 228.099609375 381.427734375 228.099609375 331.401367188 c 2
 228.099609375 328.86328125 l 1
 235.96875 144.1796875 259.810052757 119 417.885575246 119 c 0
 553.911927698 119 606.686069468 129.859375 606.686069468 217.615234375 c 0
 606.686069468 240.778320312 602.622326946 270.208007812 594.235112962 305.611328125 c 0
 570.496101545 407.043945312 577.445721186 412 450.611421782 412 c 2
EndSplineSet
EndChar

StartChar: seven
Encoding: 55 55 24
Width: 699
Flags: HW
LayerCount: 2
Fore
SplineSet
67.4404296875 944.150390625 m 1
 80.66796875 943.999023438 l 1
 636.66796875 937.999023438 l 1
 656.205078125 937.775390625 l 1
 652.1328125 918.666015625 l 1
 629.97265625 818.13671875 l 1
 629.711914062 816.951171875 l 1
 629.262695312 815.819335938 l 2
 418.982466921 307.580078125 415.284602282 184.059570312 415.284602282 49.9970703125 c 2
 415.284602282 7.4658203125 l 1
 415.284602282 -8 l 1
 397.454757008 -8 l 1
 250.358533493 -8 l 1
 232.528688218 -8 l 1
 232.528688218 7.47265625 l 1
 232.528688218 53.8916015625 l 2
 232.528688218 224.611328125 231.193408668 245.294921875 431.452693789 785.485351562 c 1
 55.0986328125 793.689453125 l 1
 36 794.134765625 l 1
 39.8046875 812.239257812 l 1
 64.8046875 931.186523438 l 1
 67.4404296875 944.150390625 l 1
EndSplineSet
EndChar

StartChar: eight
Encoding: 56 56 25
Width: 817
Flags: HW
LayerCount: 2
Fore
SplineSet
225.900390625 216.849609375 m 0
 225.900390625 125.827148438 211.247070312 119 420.990966393 119 c 0
 576.290484268 119 598.542448082 115.659179688 598.542448082 211.150390625 c 0
 598.542448082 227.448242188 597.142274039 246.469726562 595.727124871 269.123046875 c 0
 584.509687746 412.256835938 592.237921104 423 420.990966393 423 c 0
 240.830604266 423 225.900390625 433.322265625 225.900390625 216.849609375 c 0
102.900390625 595.5625 m 0
 102.900390625 621.875976562 105.958007812 653.96484375 108.951171875 691.6171875 c 0
 128.399414062 920.408203125 170.838867188 941 420.990966393 941 c 0
 697.444335938 941 720 899.173828125 720 698.129882812 c 0
 720 594.061523438 714.68359375 533.62890625 681.950195312 498.638671875 c 1
 747.376953125 461.409179688 748.87109375 386.994140625 754.9765625 258.720703125 c 0
 756.970703125 228.814453125 758 202.063476562 758 177.5546875 c 0
 758 -9.515625 686.333007812 -15 420.990966393 -15 c 0
 94.8505859375 -15 81.900390625 33.6865234375 81.900390625 275.283203125 c 0
 81.900390625 394.53125 89.935546875 460.323242188 137.538085938 495.469726562 c 1
 109.362304688 518.745117188 102.900390625 552.637695312 102.900390625 595.5625 c 0
253.40649902 620.471679688 m 0
 253.40649902 575.723632812 267.070229529 566 420.990966393 566 c 0
 574.810086348 566 581.455832211 560.482421875 581.455832211 658.038085938 c 0
 581.455832211 799.918945312 582.718021189 813 374.001168269 813 c 0
 283.127840488 813 275.893786204 818.235351562 259.010404151 679.053710938 c 0
 256.151225221 654.52734375 253.40649902 634.916015625 253.40649902 620.471679688 c 0
EndSplineSet
EndChar

StartChar: nine
Encoding: 57 57 26
Width: 804
Flags: HW
LayerCount: 2
Fore
SplineSet
395.835771981 433 m 2
 401.557197259 433 l 2
 424.201102602 433 447.016951605 431 468.794690761 431 c 0
 533.619599787 431 588 439.48046875 588 552.829101562 c 0
 588 569.330078125 586.75390625 587.001953125 584.205078125 608.624023438 c 0
 557.080237514 809.751953125 550.405599571 808 445.905765703 808 c 2
 397.266128301 808 l 2
 252.785094947 808 237.482109228 795.485351562 237.482109228 646.875 c 0
 237.482109228 451.20703125 276.844311539 433 395.835771981 433 c 2
375.807559562 114 m 0
 573.520200683 114 590.547851562 143.4609375 591.935546875 316.305664062 c 1
 544.36715317 309.684570312 428.426618041 295 340.043278332 295 c 0
 156.495117188 295 78 368.786132812 78 647.275390625 c 0
 78 889.911132812 121.31640625 941 385.821128448 941 c 2
 397.266128301 941 l 1
 413.002197112 941 l 2
 718.732421875 941 737 888.737304688 737 345.918945312 c 0
 737 45.1943359375 714.55859375 -14.0126953125 375.776394774 -15 c 0
 210.455078125 -13.9765625 171.3125 13.0341796875 89.25390625 150.8125 c 2
 81.392578125 164.010742188 l 1
 94.259765625 172.401367188 l 1
 186.259765625 232.401367188 l 1
 199.397460938 240.969726562 l 1
 208.224609375 228.005859375 l 2
 284.245411444 123.342773438 303.245185847 114 375.807559562 114 c 0
EndSplineSet
EndChar

StartChar: colon
Encoding: 58 58 27
Width: 272
Flags: W
LayerCount: 2
Fore
SplineSet
71.7998046875 0 m 1
 71.7998046875 119 l 1
 71.7998046875 132.894105785 l 1
 85.5566919613 134.841983629 l 1
 198.556691962 150.841983629 l 1
 216.001729254 153.312077405 l 1
 216.784025591 135.710409818 l 1
 222.784025591 0.710409817932 l 1
 223.526710472 -16 l 1
 206.799804688 -16 l 1
 87.7998046875 -16 l 1
 71.7998046875 -16 l 1
 71.7998046875 0 l 1
69.8023101683 584.283141496 m 1
 71.8023101683 697.283141496 l 1
 72.0804846551 713 l 1
 87.7998046875 713 l 1
 206.799804688 713 l 1
 222.799804688 713 l 1
 222.799804688 697 l 1
 222.799804688 578 l 1
 222.799804688 561.18695286 l 1
 206.007389874 562.019634586 l 1
 85.0073898736 568.019634586 l 1
 69.528045812 568.787205366 l 1
 69.8023101683 584.283141496 l 1
EndSplineSet
EndChar

StartChar: semicolon
Encoding: 59 59 28
Width: 270
Flags: W
LayerCount: 2
Fore
SplineSet
101.015329358 142.953761305 m 1
 206.015329359 134.953761305 l 1
 220.799804688 133.827325089 l 1
 220.799804688 119 l 1
 220.799804688 0 l 1
 220.799804688 -25 l 2
 220.799804688 -122.210748472 203.477653102 -135 97.7998046875 -135 c 2
 85.7998046875 -135 l 1
 69.7998046875 -135 l 1
 69.7998046875 -119 l 1
 69.7998046875 -60 l 1
 69.7998046875 -44 l 1
 85.7998046875 -44 l 1
 93.7998046875 -44 l 2
 105.414848927 -44 113.299106332 -43.4505142126 115.31116485 -42.9686346515 c 0
 116.128127493 -40.0405784056 116.76794742 -30.2227429929 116.798270299 -16 c 1
 85.7998046875 -16 l 1
 67.9391025279 -16 l 1
 69.8961437299 1.75315947564 l 1
 83.8961437299 128.753159476 l 1
 85.5911116395 144.128939798 l 1
 101.015329358 142.953761305 l 1
69.7998046875 578 m 1
 69.7998046875 697 l 1
 69.7998046875 713 l 1
 85.7998046875 713 l 1
 204.799804688 713 l 1
 222.436745117 713 l 1
 220.724198831 695.446400571 l 1
 208.724198831 572.446400571 l 1
 207.260961691 557.448219887 l 1
 192.202091354 558.011168311 l 1
 85.2020913533 562.011168311 l 1
 69.7998046875 562.586954729 l 1
 69.7998046875 578 l 1
EndSplineSet
EndChar

StartChar: less
Encoding: 60 60 29
Width: 679
Flags: W
LayerCount: 2
Fore
SplineSet
616.175574422 676.984656637 m 1
 643.175574422 571.984656637 l 1
 646.365580742 559.579076501 l 1
 634.958751212 553.751658641 l 1
 234.944703901 349.39610153 l 1
 617.642995469 164.405288686 l 1
 630.960817066 157.967646562 l 1
 625.586160382 144.186475576 l 1
 586.586160382 44.1864755761 l 1
 580.097084252 27.547818833 l 1
 564.268970067 35.81968734 l 1
 70.5892825674 293.81968734 l 1
 62 298.308498524 l 1
 62 308 l 1
 62 389 l 1
 62 398.515670183 l 1
 70.3611375745 403.058726146 l 1
 593.040825074 687.058726146 l 1
 611.066552813 696.853074004 l 1
 616.175574422 676.984656637 l 1
EndSplineSet
EndChar

StartChar: equal
Encoding: 61 61 30
Width: 753
Flags: W
LayerCount: 2
Fore
SplineSet
87.2616589662 555.999179352 m 1
 679.642518341 549.999179352 l 1
 692.928055715 549.864615206 l 1
 695.237005691 536.780565343 l 1
 710.237005691 451.780565343 l 1
 713.533940059 433.097937258 l 1
 694.562887948 433.00021228 l 1
 112.182028573 430.00021228 l 1
 99.8156148025 429.936509566 l 1
 96.6371235319 441.887636744 l 1
 71.6371235319 535.887636744 l 1
 66.2316587802 556.21218421 l 1
 87.2616589662 555.999179352 l 1
96.5913643373 305.992441248 m 1
 681.972223712 287.992441248 l 1
 694.41763133 287.609754773 l 1
 697.103724357 275.451649495 l 1
 716.103724357 189.451649495 l 1
 720.503236765 169.538067019 l 1
 700.114778865 170.00417958 l 1
 87.7339194903 184.00417958 l 1
 70.6493913381 184.394759054 l 1
 72.1624471239 201.416636645 l 1
 80.1624471239 291.416636645 l 1
 81.4993247173 306.45650957 l 1
 96.5913643373 305.992441248 l 1
EndSplineSet
EndChar

StartChar: greater
Encoding: 62 62 31
Width: 676
Flags: W
LayerCount: 2
Fore
SplineSet
484.795944493 358.137180477 m 1
 70.0273917004 548.457864945 l 1
 57.171517289 554.356911054 l 1
 61.4495359055 567.839151543 l 1
 94.449535905 671.839151543 l 1
 100.186035134 689.917815781 l 1
 117.03971315 681.217295027 l 1
 622.619791276 420.217295027 l 1
 631.086544531 415.846429372 l 1
 631.277074398 406.319936019 l 1
 633.277074398 306.319936019 l 1
 633.47710584 296.318363903 l 1
 624.573118469 291.758707525 l 1
 110.993040343 28.7587075252 l 1
 93.6910656427 19.8985130979 l 1
 88.3224998667 38.5811219986 l 1
 63.3224998672 125.581121999 l 1
 59.7008986052 138.184294391 l 1
 71.3474206869 144.210443529 l 1
 484.795944493 358.137180477 l 1
EndSplineSet
EndChar

StartChar: question
Encoding: 63 63 32
Width: 606
Flags: W
LayerCount: 2
Fore
SplineSet
411.643855686 688.187189307 m 0
 420.215246312 713.901361184 424.780273438 736.807790198 424.780273438 753 c 0
 424.780273438 803.259896648 392.244154098 823 332.639648438 823 c 0
 266.155921041 823 178.723373746 780.399636789 156.865546889 734.16192613 c 2
 150.15442213 719.965316063 l 1
 135.834555788 726.409255917 l 1
 55.8345557877 762.409255917 l 1
 41.0414532127 769.066152076 l 1
 47.9014603851 783.766167445 l 2
 112.700361367 922.620955265 182.502732404 957 291.639648438 957 c 2
 307.862587788 957 l 1
 569.36222665 949.711264965 552.837204663 840.319378338 560.745761874 688.079652033 c 0
 561.763383825 675.868188613 561.780273438 663.8630536 561.780273438 656 c 0
 561.780273438 579.439377485 533.903374823 594.354328817 424.080957716 430.106643056 c 2
 423.757601556 429.623039596 l 1
 423.39997869 429.16419605 l 2
 370.284160814 361.014610187 363.639648438 356.562436896 363.639648438 335 c 0
 363.639648438 314.129151365 371.440429688 275.5531504 371.440429688 184 c 2
 371.440429688 168.924054401 l 1
 356.391120585 168.028269135 l 1
 255.590339335 162.028269135 l 1
 238.639648438 161.019307259 l 1
 238.639648438 178 l 2
 238.639648438 289.347259429 227.639648438 327.33626002 227.639648438 361 c 0
 227.639648438 402.883142589 246.271317217 424.324889926 305.237878889 514.740284489 c 2
 305.509522138 515.156804138 l 1
 305.806506537 515.555651153 l 2
 390.951740705 629.904831004 386.891428766 617.890296854 411.643855686 688.187189307 c 0
231.720653414 1.60797929539 m 1
 241.720653414 100.607979295 l 1
 242.939872306 112.678246332 l 1
 254.891235155 114.76217702 l 1
 369.591430467 134.76217702 l 1
 388.33984375 138.031293212 l 1
 388.33984375 119 l 1
 388.33984375 0 l 1
 388.33984375 -16 l 1
 372.33984375 -16 l 1
 247.639648438 -16 l 1
 229.942069646 -16 l 1
 231.720653414 1.60797929539 l 1
EndSplineSet
EndChar

StartChar: at
Encoding: 64 64 33
Width: 1333
Flags: HW
LayerCount: 2
Fore
SplineSet
783.619354657 398.727926246 m 1
 754.62732455 401.349489105 693.594523719 406.25 639.219726562 406.25 c 0
 567.904827423 406.25 532.369140625 396.399910029 532.369140625 277.349609375 c 0
 532.369140625 224.286036076 541.847055733 213.25 604.119140625 213.25 c 0
 621.130322827 213.25 641.570847189 214.116521137 666.819126604 216.764252074 c 0
 754.409557565 225.747886018 751.767012436 220.077437989 781.258383677 260.17719727 c 1
 783.619354657 398.727926246 l 1
721.119140625 939.950195312 m 0
 382.711223747 939.950195312 248.599609375 905.980141912 248.599609375 453.75 c 0
 248.599609375 7.92199032345 333.237481311 -29.75 709.419921875 -29.75 c 2
 764.41015625 -29.75 l 2
 902.857094028 -29.75 1073.48146047 -24.5214266019 1164.2503019 45.2361511646 c 2
 1181.11483964 58.1968685715 l 1
 1188.89203968 38.4002024728 l 1
 1228.49164906 -62.3996022147 l 1
 1234.55071353 -77.8227976629 l 1
 1218.92472707 -83.3378468189 l 2
 1032.91514827 -148.988228194 881.108440123 -154.450195312 709.419921875 -154.450195312 c 0
 258.205282797 -154.450195312 123 -73.7365227626 123 442.950195312 c 0
 123 959.745753386 246.777154415 1057.45019531 702.399414062 1057.45019531 c 0
 1118.76411702 1057.45019531 1228.70019531 979.700758045 1228.70019531 556.349609375 c 0
 1228.70019531 172.263291664 1188.94842341 80.4501953125 973.83984375 80.4501953125 c 0
 932.967037172 80.4501953125 853.112262155 88.2064687614 835.168143112 118.297342439 c 0
 829.360374491 124.087612792 827.300005673 127.580337936 824.292529265 133.583602917 c 1
 782.153532984 104.469190432 716.515900656 107.025727647 599.445980098 96.6920240835 c 0
 583.745738514 95.7625504261 569.913458367 94.849609375 556.149414062 94.849609375 c 0
 428.751866786 94.849609375 404.969726562 175.076564474 404.969726562 237.75 c 0
 404.969726562 250.227828693 405.923912646 262.473170961 406.820239659 273.22423434 c 0
 416.625189914 401.574495563 432.787169384 514.038850171 592.711994713 522.825509383 c 0
 642.130099656 525.540951756 682.20523426 526.450195312 714.099609375 526.450195312 c 0
 755.967286884 526.450195312 782.444067292 524.699439084 797.737492771 523.091363642 c 1
 788.284819932 661.286324827 798.66327607 706.849609375 670.810546875 706.849609375 c 0
 582.893846629 706.849609375 550.276560513 661.689577618 535.668766175 572.659408919 c 2
 532.823748806 555.319872884 l 1
 515.825778994 559.772137026 l 1
 419.615818057 584.972332338 l 1
 406.125137318 588.505935161 l 1
 407.783443059 602.352770098 l 2
 426.718813218 760.462905466 528.629982409 835.150390625 673.149414062 835.150390625 c 0
 681.484211515 835.150390625 689.490176661 834.25 696.549804688 834.25 c 2
 697.068731456 834.25 l 1
 697.586567659 834.216374746 l 2
 871.571567015 822.918806721 912.808706888 758.28981521 928.319816431 561.205560333 c 2
 928.36579566 560.621347961 l 1
 928.368914087 560.03533733 l 1
 930.152142493 224.933453571 l 1
 938.829149451 212.791501964 993.836749926 200.408217603 1022.78767368 198.959806442 c 1
 1088.86648677 224.196574588 1107.59960938 307.117848419 1107.59960938 561.75 c 0
 1107.59960938 903.821659735 976.152678589 939.950195312 721.119140625 939.950195312 c 0
EndSplineSet
EndChar

StartChar: A
Encoding: 65 65 34
Width: 979
Flags: HW
LayerCount: 2
Fore
SplineSet
506.631958359 735.984375 m 1
 331.834722092 295.057617188 l 1
 705.706100261 295.939453125 l 1
 506.631958359 735.984375 l 1
59.7998046875 10.8759765625 m 1
 65.548828125 26.7294921875 l 1
 398.757003918 917.2890625 l 1
 402.753521521 928.06640625 l 1
 414.845443085 928 l 1
 595.166456075 927 l 1
 607.172553329 926.93359375 l 1
 611.084280649 916.212890625 l 1
 938.756835938 25.693359375 l 1
 944.005859375 10.9814453125 l 1
 928.73828125 5.837890625 l 1
 836.73828125 -25.162109375 l 1
 821.647460938 -30.2470703125 l 1
 816.491210938 -15.1806640625 l 1
 742.710854582 192.780273438 l 1
 267.614355014 184.22265625 l 1
 203.92578125 -10.7568359375 l 1
 199.392578125 -25.314453125 l 1
 184.633789062 -21.48828125 l 1
 76.6337890625 6.51171875 l 1
 59.7998046875 10.8759765625 l 1
EndSplineSet
EndChar

StartChar: B
Encoding: 66 66 35
Width: 941
Flags: HW
LayerCount: 2
Fore
SplineSet
237.293945312 356 m 1
 241.711914062 129 l 1
 472.697486452 128.999023438 l 1
 525.346105923 128.999023438 l 2
 569.209112934 128.999023438 604.589749094 127.961914062 632.461745248 127.961914062 c 0
 713.328125 127.961914062 721.302734375 129.758789062 721.302734375 188.755859375 c 0
 721.302734375 193.203125 721.200195312 198.09765625 721.01171875 203.11328125 c 0
 719.9921875 225.969726562 720.004882812 253.510742188 717.041015625 289.51171875 c 0
 713.046875 344.760742188 694.525544537 356 447.98381987 356 c 2
 237.293945312 356 l 1
229.267578125 796.024414062 m 1
 234.747070312 465.430664062 l 1
 363.418233979 460.999023438 l 1
 608.122671243 460.999023438 632.79226811 478.78515625 632.79226811 632.999023438 c 2
 632.79226811 668.999023438 l 2
 632.79226811 803.915039062 640.373308362 797.999023438 473.771948074 797.999023438 c 2
 428.644559955 797.999023438 l 2
 340.806273089 797.999023438 305.940832882 796.263671875 229.267578125 796.024414062 c 1
786.000976562 682.44140625 m 2
 786.000976562 565.405273438 776.934570312 493.41015625 733.458007812 449.51953125 c 1
 829.837890625 433.340820312 855.594726562 382.995117188 860.98046875 276.272460938 c 0
 864.036132812 220.158203125 860.040039062 172.903320312 860.993164062 140.635742188 c 0
 861.139648438 136.329101562 861.227539062 131.971679688 861.227539062 127.780273438 c 0
 861.227539062 37.6826171875 819.717773438 -0.0009765625 602.707342698 -0.0009765625 c 2
 522.122721058 -0.0009765625 l 1
 108.000976562 -0.0009765625 l 1
 92.0009765625 -0.0009765625 l 1
 92.0009765625 15.9990234375 l 1
 92.0009765625 20.87109375 l 1
 97.0009765625 911.625976562 l 1
 97.087890625 926.999023438 l 1
 113.000976562 926.999023438 l 1
 422.197790224 926.999023438 l 1
 498.484565377 926.999023438 l 2
 763.444335938 926.999023438 786.000976562 911.122070312 786.000976562 728.83984375 c 2
 786.000976562 682.44140625 l 2
EndSplineSet
EndChar

StartChar: C
Encoding: 67 67 36
Width: 856
Flags: HW
LayerCount: 2
Fore
SplineSet
781.200195312 823.4296875 m 2
 773.19921875 798.942382812 741.153320312 807 673.83984375 807 c 0
 645.944924045 807 591.327213746 808 532.429386907 808 c 0
 279.783119989 808 243.073011575 738.883789062 236.093389294 464.895507812 c 1
 236.093389294 416.349609375 l 2
 236.093389294 183.947265625 281.40493655 125 546.494287273 125 c 0
 684.747070312 125 737.018554688 125.604492188 754.568359375 126.782226562 c 1
 770.563476562 174.768554688 l 1
 782.516601562 116.19921875 l 1
 802.516601562 18.19921875 l 1
 803.071289062 15.482421875 l 1
 802.678710938 12.7373046875 l 2
 798.122070312 -19.1591796875 744.251953125 -9 546.494287273 -9 c 0
 144.279296875 -9 76.7001953125 93.51171875 76.7001953125 412.791992188 c 2
 76.7001953125 465.159179688 l 1
 82.748046875 824.01171875 138.256835938 941 523.990658 941 c 0
 731.712890625 941 787.03515625 937.094726562 789.94140625 936.892578125 c 2
 807.747070312 935.651367188 l 1
 803.41015625 917.31640625 l 1
 781.200195312 823.4296875 l 2
EndSplineSet
EndChar

StartChar: D
Encoding: 68 68 37
Width: 967
Flags: HW
LayerCount: 2
Fore
SplineSet
900.096679688 462.708984375 m 0
 891.037109375 21.9296875 871.56640625 0 429.371296249 0 c 2
 108.299804688 0 l 1
 92.2998046875 0 l 1
 92.2998046875 16 l 1
 92.2998046875 20.8720703125 l 1
 97.2998046875 911.626953125 l 1
 97.38671875 927 l 1
 113.299804688 927 l 1
 387.712581892 927 l 2
 835.02734375 927 902.099609375 901.239257812 902.099609375 584.8125 c 0
 902.099609375 547.822265625 901.094726562 508.061523438 900.096679688 462.708984375 c 0
229.563476562 798 m 1
 241.040039062 128.940429688 l 1
 311.231872275 128.80859375 340.715092993 128 416.873473314 128 c 0
 734.925907397 128 730.342363955 122.918945312 740.002854582 463.435546875 c 0
 741.396485451 502.720703125 742.772382993 536.858398438 742.772382993 567.985351562 c 0
 742.772382993 791.8828125 707.200372318 798 394.655700951 798 c 2
 229.563476562 798 l 1
EndSplineSet
EndChar

StartChar: E
Encoding: 69 69 38
Width: 806
Flags: HW
LayerCount: 2
Fore
SplineSet
728.587890625 140 m 1
 729.129882812 124.561523438 l 1
 733.129882812 10.5615234375 l 1
 733.7109375 -6 l 1
 717.139648438 -6 l 1
 115.799804688 -6 l 1
 99.7998046875 -6 l 1
 99.7998046875 10 l 1
 99.7998046875 923 l 1
 99.7998046875 939 l 1
 115.799804688 939 l 1
 702.139648438 939 l 1
 718.139648438 939 l 1
 718.139648438 923 l 1
 718.139648438 823.629882812 l 1
 718.139648438 808.193359375 l 1
 702.139648438 808.193359375 l 2
 533.378970467 808.193359375 446.427741849 813.653320312 250.799804688 814.852539062 c 1
 250.799804688 477.314453125 l 1
 677.984375 485 l 1
 682.139648438 485 l 1
 698.139648438 485 l 1
 698.139648438 469 l 1
 698.139648438 370 l 1
 698.139648438 354 l 1
 682.139648438 354 l 1
 678.00390625 354 l 1
 250.799804688 360.725585938 l 1
 250.799804688 131.017578125 l 1
 470.976829463 131.478515625 550.513620625 140 713.139648438 140 c 2
 728.587890625 140 l 1
EndSplineSet
EndChar

StartChar: F
Encoding: 70 70 39
Width: 738
Flags: HW
LayerCount: 2
Fore
SplineSet
677.40234375 797.46484375 m 1
 236.086914062 777.8828125 l 1
 232.565429688 498.571289062 l 1
 298.368168638 497.953125 663.611328125 506.809570312 663.611328125 475.533203125 c 2
 663.611328125 474.82421875 l 1
 663.543945312 474.118164062 l 1
 654.543945312 379.380859375 l 1
 653.208984375 365.328125 l 1
 638.611328125 365.328125 l 1
 618.611328125 365.328125 l 2
 547.930664062 365.328125 443.063728647 355.213867188 232.748046875 350.266601562 c 1
 241.486977047 -2.6181640625 l 1
 241.967435037 -20.5439453125 l 1
 224.036132812 -18.935546875 l 1
 101.935546875 -7.935546875 l 1
 87.099609375 -6.5986328125 l 1
 87.3740234375 8.294921875 l 1
 104.374023438 900.548828125 l 1
 105.067382812 936.931640625 l 1
 128.260742188 913.73828125 l 2
 133.173828125 913.299804688 140.383789062 913 150.37109375 913 c 0
 265.109312477 913 676.06640625 925.990234375 676.06640625 925.990234375 c 1
 692.611328125 926.5546875 l 1
 692.611328125 910.55078125 l 1
 692.611328125 812.9140625 l 1
 692.611328125 798.193359375 l 1
 677.40234375 797.46484375 l 1
EndSplineSet
EndChar

StartChar: G
Encoding: 71 71 40
Width: 938
Flags: HW
LayerCount: 2
Fore
SplineSet
426.490804227 350 m 1
 426.490804227 366 l 1
 426.490804227 467 l 1
 426.490804227 483 l 1
 443.613117559 483 l 1
 851.700195312 483 l 1
 866.67578125 483 l 1
 867.665039062 468.522460938 l 2
 867.680664062 468.302734375 870.700195312 424.397460938 870.700195312 364.797851562 c 0
 870.700195312 297.295898438 866.796875 211.451171875 851.326171875 142.499023438 c 0
 820.934570312 10.501953125 805.036132812 -15 506.216575682 -15 c 0
 161.663085938 -15 74.099609375 36.451171875 74.099609375 292.803710938 c 0
 74.099609375 341.78515625 77.1318359375 399.302734375 82.140625 464.267578125 c 0
 111.180664062 873.297851562 158.01953125 951 461.698979042 951 c 0
 758.189453125 951 811.950195312 912.260742188 862.26953125 699.685546875 c 2
 865.747070312 684.99609375 l 1
 851.284179688 680.670898438 l 1
 744.284179688 648.670898438 l 1
 729.130859375 644.138671875 l 1
 724.424804688 659.239257812 l 2
 677.917302832 800.356445312 652.081253625 817 461.698979042 817 c 0
 295.571573242 817 267.399808075 782.291015625 235.297560702 461.875976562 c 0
 229.762906685 405.771484375 227.099609375 358.380859375 227.099609375 317.881835938 c 0
 227.099609375 144.678710938 279.72946217 119 506.216575682 119 c 0
 692.703900205 119 692.216900814 127.052734375 713.621882606 194.768554688 c 0
 727.89453125 249.086914062 732.250976562 321.583007812 733.293945312 350 c 1
 443.613117559 350 l 1
 426.490804227 350 l 1
EndSplineSet
EndChar

StartChar: H
Encoding: 72 72 41
Width: 928
Flags: HW
LayerCount: 2
Fore
SplineSet
717.690429688 13.25 m 1
 723.440429688 381.237304688 l 1
 246.750392551 387.766601562 l 1
 240.88671875 8.7568359375 l 1
 240.625976562 -8.421875 l 1
 223.508789062 -6.9404296875 l 1
 119.508789062 2.0595703125 l 1
 104.982421875 3.31640625 l 1
 104.888671875 17.4306640625 l 1
 101.913085938 465.873046875 l 1
 91 487 l 1
 101.818359375 487 l 1
 99.888671875 913.5234375 l 1
 99.814453125 929.940429688 l 1
 116.797851562 928.974609375 l 1
 239.797851562 921.974609375 l 1
 255.860600709 921.1015625 l 1
 255.603635362 905.750976562 l 1
 248.361407947 473.240234375 l 1
 725.93359375 479.770507812 l 1
 732.690429688 911.250976562 l 1
 732.936523438 927 l 1
 748.688476562 927 l 1
 842.688476562 927 l 1
 858.602539062 927 l 1
 858.688476562 911.618164062 l 1
 863.688476562 16.5673828125 l 1
 863.772460938 1.5546875 l 1
 848.249023438 1.009765625 l 1
 734.249023438 -2.990234375 l 1
 717.427734375 -3.580078125 l 1
 717.690429688 13.25 l 1
EndSplineSet
EndChar

StartChar: I
Encoding: 73 73 42
Width: 315
Flags: HW
LayerCount: 2
Fore
SplineSet
97.80078125 19.2626953125 m 1
 85.7998046875 903.272460938 l 1
 85.7998046875 914 l 1
 85.7998046875 930.833984375 l 1
 102.612304688 929.979492188 l 1
 220.612304688 923.979492188 l 1
 235.701171875 923.211914062 l 1
 235.799804688 908.611328125 l 1
 241.750976562 28.578125 l 1
 275.9921875 1 l 1
 231.799804688 1 l 1
 172.799804688 1 l 1
 156.799804688 1 l 1
 156.799804688 3.2685546875 l 1
 113.528320312 4.001953125 l 1
 98.0048828125 4.265625 l 1
 97.80078125 19.2626953125 l 1
EndSplineSet
EndChar

StartChar: J
Encoding: 74 74 43
Width: 699
Flags: HW
LayerCount: 2
Fore
SplineSet
630.049804688 911.163085938 m 2
 629.219726562 901.611328125 l 1
 619.299804688 290.497070312 l 1
 619.299804688 38.8291015625 601.291015625 -13.9990234375 352.555070279 -15 c 2
 318.066631414 -15 l 2
 153.196289062 -15 79.2998046875 7.2353515625 79.2998046875 224.784179688 c 2
 79.2998046875 298.657226562 l 1
 229.299804688 324.467773438 l 1
 229.299804688 253.790039062 l 2
 229.299804688 127.372070312 227.9296875 133.419921875 354.273135269 123.192382812 c 0
 366.02956034 122.24609375 374.199088758 124.549804688 374.199088758 124.549804688 c 1
 375.732633344 124.93359375 l 1
 377.321309026 125.090820312 l 2
 495.591796875 137.063476562 489.299804688 136.178710938 489.299804688 244.122070312 c 2
 489.299804688 289.637695312 l 1
 495.440429688 918.94921875 l 1
 612.750976562 927 l 1
 613.299804688 927 l 1
 613.299804688 927 630.049804688 926.696289062 630.049804688 911.163085938 c 2
EndSplineSet
EndChar

StartChar: K
Encoding: 75 75 44
Width: 858
Flags: HW
LayerCount: 2
Fore
SplineSet
96.4248046875 1.1689453125 m 1
 96.361328125 15.9306640625 l 1
 92.361328125 910.413085938 l 1
 92.2998046875 924.086914062 l 1
 106.342773438 925.872070312 l 1
 224.342773438 940.872070312 l 1
 242.272460938 943.151367188 l 1
 242.360351562 925.078125 l 1
 244.15625 556.948242188 l 1
 609.116492207 938.611328125 l 1
 615.02676925 944.790039062 l 1
 623.889021982 943.908203125 l 1
 786.310546875 926.908203125 l 1
 816.231445312 923.694335938 l 1
 796.833984375 901.455078125 l 1
 514.863071253 592.189453125 l 1
 821.911132812 22.294921875 l 1
 834.8125 -2.642578125 l 1
 806.095703125 0.0712890625 l 1
 678.974996914 12.0712890625 l 1
 669.951439795 12.8603515625 l 1
 665.525584814 20.1884765625 l 1
 384.016748789 486.274414062 l 1
 246.360351562 352.592773438 l 1
 246.360351562 7 l 1
 246.360351562 -10.2666015625 l 1
 229.143554688 -8.9541015625 l 1
 111.143554688 0.0458984375 l 1
 96.4248046875 1.1689453125 l 1
EndSplineSet
EndChar

StartChar: L
Encoding: 76 76 45
Width: 722
Flags: HW
LayerCount: 2
Fore
SplineSet
96.681640625 2.4853515625 m 1
 96.548828125 17.3408203125 l 1
 88.548828125 914.862304688 l 1
 88.400390625 932.131835938 l 1
 105.630859375 930.962890625 l 1
 223.630859375 922.962890625 l 1
 238.259765625 921.971679688 l 1
 238.545898438 907.802734375 l 1
 255.705300362 128.5390625 l 1
 255.705300362 128.5390625 659.288085938 141.245117188 659.288085938 111.142578125 c 2
 659.288085938 108.208007812 l 1
 678.939453125 18.671875 l 1
 683.038085938 -0 l 1
 663.288085938 0 l 1
 259.040020077 0 l 1
 259.040020077 -2.5048828125 l 1
 240.705078125 -1.9921875 l 1
 112.051757812 2.0078125 l 1
 96.681640625 2.4853515625 l 1
EndSplineSet
EndChar

StartChar: M
Encoding: 77 77 46
Width: 1112
Flags: HW
LayerCount: 2
Fore
SplineSet
99.5537109375 927.387695312 m 1
 115.731445312 926.995117188 l 1
 282.687844223 922.995117188 l 1
 294.303950179 922.727539062 l 1
 298.160571344 912.310546875 l 1
 549.971318342 232.232421875 l 1
 828.801020922 918.76171875 l 1
 833.051216803 929.225585938 l 1
 844.852292599 928.997070312 l 1
 944.909179688 926.99609375 l 1
 1023.94824219 924.995117188 l 1
 1039.671875 924.596679688 l 1
 1039.54296875 909.40234375 l 1
 1031.94335938 13.869140625 l 1
 1031.7890625 -4.9169921875 l 1
 1013.26757812 -1.7744140625 l 1
 901.267578125 17.2255859375 l 1
 887.352539062 19.5859375 l 1
 887.958007812 33.6865234375 l 1
 917.690429688 725.673828125 l 1
 605.82296155 9.8515625 l 1
 601.508026226 0 l 1
 590.279329323 0 l 1
 499.78386268 0 l 1
 488.731914736 0 l 1
 485.995388713 6 l 1
 465.006449917 6 l 1
 472.971456752 27.3466796875 l 1
 475.076002488 32.9853515625 l 1
 229.890625 688.134765625 l 1
 240.340820312 33.2548828125 l 1
 240.5625 19.3505859375 l 1
 226.825195312 17.193359375 l 1
 105.825195312 -1.806640625 l 1
 87.099609375 -4.7470703125 l 1
 87.3447265625 14.20703125 l 1
 99.3447265625 911.754882812 l 1
 99.5537109375 927.387695312 l 1
EndSplineSet
EndChar

StartChar: N
Encoding: 78 78 47
Width: 935
Flags: HW
LayerCount: 2
Fore
SplineSet
713.470703125 935.36328125 m 1
 730.98828125 933.948242188 l 1
 842.387695312 924.948242188 l 1
 857.036132812 923.764648438 l 1
 857.099609375 909.569335938 l 1
 861.099609375 15.0693359375 l 1
 861.166992188 -0.4892578125 l 1
 845.616210938 -0.9912109375 l 1
 656.499449831 -6.9912109375 l 1
 646.206956658 -7.30078125 l 1
 641.053886898 0.9931640625 l 1
 237.760742188 651.334960938 l 1
 249.734451131 21.150390625 l 1
 249.734451131 16 l 1
 249.734451131 0 l 1
 233.599609375 0 l 1
 109.599609375 0 l 1
 93.599609375 0 l 1
 93.599609375 16 l 1
 93.599609375 20.845703125 l 1
 94.599609375 919.017578125 l 1
 94.6201171875 937.712890625 l 1
 113.087890625 934.805664062 l 1
 246.48828125 913.805664062 l 1
 254.319623001 912.64453125 l 1
 258.455515209 906.244140625 l 1
 723.32421875 184.958984375 l 1
 713.701171875 917.790039062 l 1
 713.470703125 935.36328125 l 1
EndSplineSet
EndChar

StartChar: O
Encoding: 79 79 48
Width: 980
Flags: HW
LayerCount: 2
Fore
SplineSet
491.590222612 808 m 0
 277.825755771 808 236.009685418 757.627929688 236.009685418 463.022460938 c 0
 236.009685418 149.697265625 264.961591534 119 512.347526167 119 c 0
 708.589701906 119 754.090900519 147.94140625 754.090900519 339.748046875 c 0
 754.090900519 375.3125 751.345505953 415.408203125 748.583478933 462.137695312 c 0
 727.892705197 757.435546875 685.552712518 808 491.590222612 808 c 0
913.400390625 325.599609375 m 0
 913.400390625 47.6923828125 840.450195312 -15 533.104829722 -15 c 0
 136.4609375 -15 76.7001953125 51.9580078125 76.7001953125 463 c 0
 76.7001953125 846.194335938 142.563476562 941 491.590222612 941 c 0
 824.779296875 941 890.263671875 846.38671875 909.385742188 463.666015625 c 0
 911.391601562 412.233398438 913.400390625 366.783203125 913.400390625 325.599609375 c 0
EndSplineSet
EndChar

StartChar: P
Encoding: 80 80 49
Width: 804
Flags: HW
LayerCount: 2
Fore
SplineSet
225.6171875 798 m 1
 237.59765625 438 l 1
 436.535487956 438 l 2
 590.61328125 438 606 438.526367188 606 551.936523438 c 0
 606 576.237304688 604.706054688 605.109375 603.416015625 639.33984375 c 0
 594.509765625 800.502929688 598.0859375 798 422.20428962 798 c 2
 225.6171875 798 l 1
87.099609375 891.245117188 m 1
 87.099609375 906.70703125 l 1
 87.099609375 911.538085938 l 1
 87.099609375 927 l 1
 103.099609375 927 l 1
 329.051500436 927 l 2
 646.857421875 927 725.662109375 911.642578125 735.989257812 644.881835938 c 0
 737.989257812 588.342773438 740 541.524414062 740 502.002929688 c 0
 740 328.047851562 689.235351562 309 429.369888788 309 c 2
 241.200195312 309 l 1
 252.094515622 3.4921875 l 1
 252.676935866 -13.6787109375 l 1
 234.455078125 -12.9873046875 l 1
 110.455078125 -7.9873046875 l 1
 95.1982421875 -7.3720703125 l 1
 95.099609375 7.896484375 l 1
 89.2021484375 891.245117188 l 1
 87.099609375 891.245117188 l 1
EndSplineSet
EndChar

StartChar: Q
Encoding: 81 81 50
Width: 981
Flags: HW
LayerCount: 2
Fore
SplineSet
492.733078547 119 m 0
 510.999749328 119 528.858969618 119.348632812 544.813982507 119.958984375 c 1
 482.541619174 185.528320312 l 1
 463.486032771 205.59375 l 1
 492.34745576 210.474609375 l 1
 627.947395264 233.41015625 l 1
 637.596280257 235.041992188 l 1
 644.003231361 228.362304688 l 1
 706.354590197 163.362304688 l 1
 743.599930707 193.4140625 776.299804688 237.26953125 776.299804688 320.634765625 c 0
 776.299804688 357.026367188 768.5859375 409.71484375 764.639648438 462.890625 c 0
 741.582427123 756.963867188 676.359165967 808 492.733078547 808 c 0
 281.230933103 808 214.700195312 764.954101562 214.700195312 472.578125 c 0
 214.700195312 164.86328125 270.903310428 119 492.733078547 119 c 0
492.733078547 -15 m 0
 127.203125 -15 76.7001953125 60.798828125 76.7001953125 463 c 0
 76.7001953125 846.178710938 141.584960938 941 492.733078547 941 c 0
 823.772460938 941 887.151367188 846.2734375 909.27734375 463.83203125 c 0
 912.288085938 405.564453125 914.299804688 355.116210938 914.299804688 309.166015625 c 0
 914.299804688 160.852539062 893.303710938 74.3798828125 821.829101562 28.3818359375 c 1
 850.68359375 -14.2314453125 l 1
 860.171875 -28.7138671875 l 1
 844.986328125 -37.0322265625 l 1
 751.358120688 -88.0322265625 l 1
 739.117975295 -94.3330078125 l 1
 730.138473254 -84.29296875 l 1
 662.585884157 -8.7578125 l 1
 611.823997223 -13.2861328125 557.105059211 -15 492.733078547 -15 c 0
EndSplineSet
EndChar

StartChar: R
Encoding: 82 82 51
Width: 816
Flags: HW
LayerCount: 2
Fore
SplineSet
244.849609375 802.330078125 m 1
 243.653320312 460 l 1
 424.555438604 460 l 2
 595.729399246 460 593.118865926 456.65625 593.118865926 640.8046875 c 0
 593.118865926 819.548828125 594.678571571 813 491.303799135 813 c 0
 380.632975463 813 322.262431917 806.325195312 244.849609375 802.330078125 c 1
769.435546875 26.845703125 m 1
 769.755859375 26.0712890625 l 1
 771.755859375 21.23828125 l 1
 780.192382812 0.8515625 l 1
 757.4921875 0.0107421875 l 1
 622.168650273 -4.9892578125 l 1
 611.113089671 -5.3642578125 l 1
 606.011508006 3.623046875 l 1
 411.099510218 347 l 1
 243.599609375 347 l 1
 243.599609375 8 l 1
 243.599609375 -9.560546875 l 1
 226.114257812 -7.9306640625 l 1
 108.114257812 3.0693359375 l 1
 93.599609375 4.421875 l 1
 93.599609375 18.51171875 l 1
 93.599609375 911.536132812 l 1
 93.599609375 927 l 1
 109.599609375 927 l 1
 418.87563501 927 l 2
 721.594726562 927 745.900390625 903.327148438 745.900390625 642.819335938 c 0
 745.900390625 427.497070312 736.392578125 355.469726562 594.395861587 340.430664062 c 1
 769.030273438 27.5830078125 l 1
 769.435546875 26.845703125 l 1
EndSplineSet
EndChar

StartChar: S
Encoding: 83 83 52
Width: 843
Flags: HW
LayerCount: 2
Fore
SplineSet
285.433218286 -2 m 0
 148.866210938 -2 110.580078125 29.76953125 82.005859375 193.051757812 c 0
 79.890625 203.624023438 78.8154296875 214.000976562 77.04296875 222.862304688 c 2
 74.099609375 237.581054688 l 1
 88.6005859375 241.45703125 l 1
 189.600585938 268.45703125 l 1
 205.9296875 272.822265625 l 1
 209.393554688 256.278320312 l 2
 233.615519628 142.607421875 249.277976373 134 366.021534071 134 c 0
 405.298221727 134 453.318993359 134.958984375 514.170723147 135.920898438 c 0
 629.579101562 137.7109375 615.84446334 142.48828125 628.401367188 263.349609375 c 0
 629.70703125 276.869140625 630.932617188 289.083984375 630.932617188 298.477539062 c 0
 630.932617188 358.0703125 606.855039465 366.30078125 399.900743923 395.837890625 c 0
 102.78515625 443.354492188 85.86328125 468.724609375 79.732421875 683.97265625 c 0
 79.732421875 696.193359375 78.732421875 708.213867188 78.732421875 720.734375 c 0
 78.732421875 905.170898438 139.606445312 941 397.12659752 941 c 0
 452.041314139 941 497.182793695 942 535.682040629 942 c 0
 675.438476562 942 712.223632812 917.302734375 764.884765625 762.728515625 c 0
 768.137695312 754.056640625 768.290039062 751.6875 769.788085938 747.942382812 c 2
 776.090820312 732.1875 l 1
 759.9921875 726.821289062 l 1
 651.9921875 690.821289062 l 1
 638.03125 686.166992188 l 1
 632.228515625 699.692382812 l 2
 587.453007878 796.879882812 575.581105695 799 484.784101077 799 c 2
 397.12659752 799 l 2
 254.900614604 799 226.6328125 786.0234375 226.6328125 674.973632812 c 0
 226.6328125 662.35546875 226.625976562 647.803710938 227.8984375 632.743164062 c 0
 232.945348732 548.928710938 225.56640625 547.400390625 527.273573141 504.583007812 c 0
 737.59765625 469.971679688 779.932617188 450.430664062 779.932617188 310.5859375 c 0
 779.932617188 296.23828125 778.932617188 282.397460938 778.932617188 266.133789062 c 0
 772.814453125 65.1611328125 755.825195312 5.908203125 463.86754699 1.001953125 c 0
 391.899052114 0.00390625 334.04131877 -2 285.433218286 -2 c 0
EndSplineSet
EndChar

StartChar: T
Encoding: 84 84 53
Width: 807
Flags: HW
LayerCount: 2
Fore
SplineSet
477.032898785 4.037109375 m 1
 429.004841289 1.0478515625 l 1
 429.004841289 -4 l 1
 411.572592861 -4 l 1
 347.291176785 -4 l 1
 329.858928358 -4 l 1
 329.858928358 12 l 1
 329.858928358 807.541992188 l 1
 75.431640625 812.991210938 l 1
 59.7998046875 813.338867188 l 1
 59.7998046875 828.446289062 l 1
 59.7998046875 869.994140625 l 1
 59.7998046875 885.453125 l 1
 62.5263671875 885.453125 l 1
 63.8173828125 912.258789062 l 1
 64.5263671875 927 l 1
 79.7998046875 927 l 1
 741.6796875 927 l 1
 757.6796875 927 l 1
 757.6796875 911 l 1
 757.6796875 810 l 1
 757.6796875 794 l 1
 741.6796875 794 l 1
 736.51953125 794 l 1
 493.286257365 798.676757812 l 1
 493.286257365 19.4169921875 l 1
 493.286257365 5.0478515625 l 1
 477.032898785 4.037109375 l 1
EndSplineSet
EndChar

StartChar: U
Encoding: 85 85 54
Width: 888
Flags: HW
LayerCount: 2
Fore
SplineSet
222.685546875 913.635742188 m 2
 222.524414062 912.686523438 236.107421875 889.826171875 236.107421875 889.826171875 c 1
 237.099609375 385.907226562 l 2
 237.099609375 132.91796875 237.958007812 133 452.943121539 133 c 0
 640.705953069 133 642.477968424 133.244140625 659.27354628 386.98828125 c 1
 647.713708486 920.072265625 l 1
 817.659179688 929.969726562 l 1
 815.598632812 361.850585938 l 1
 799.461914062 14.5859375 775.087890625 -15 452.943121539 -15 c 0
 111.91796875 -15 87.099609375 14.9072265625 87.099609375 362.31640625 c 2
 88.1328125 934.828125 l 1
 222.685546875 913.635742188 l 2
EndSplineSet
EndChar

StartChar: V
Encoding: 86 86 55
Width: 831
Flags: HW
LayerCount: 2
Fore
SplineSet
54.599609375 905.829101562 m 1
 71.1435546875 909.490234375 l 1
 189.143554688 935.596679688 l 1
 203.71875 938.931640625 l 1
 208.032226562 924.616210938 l 1
 425.865168913 255.0859375 l 1
 655.4453125 926.849609375 l 1
 660.124023438 941.557617188 l 1
 674.990234375 937.412109375 l 1
 778.990234375 909.380859375 l 1
 794.47265625 905.208007812 l 1
 790.084960938 890.26171875 l 1
 523.482870527 11.6318359375 l 1
 520.6824016 2.4951171875 l 1
 523.09048844 -7.787109375 l 1
 499.770124031 -5.94140625 l 1
 424.681693909 0 l 1
 345.381485096 0 l 1
 320.525345637 0 l 1
 329.182011733 20.8583984375 l 1
 329.998419623 22.8251953125 l 1
 59.3525390625 890.076171875 l 1
 54.599609375 905.829101562 l 1
EndSplineSet
EndChar

StartChar: W
Encoding: 87 87 56
Width: 1109
Flags: HW
LayerCount: 2
Fore
SplineSet
55.900390625 907.728515625 m 1
 70.9775390625 911.407226562 l 1
 177.977539062 937.513671875 l 1
 193.668945312 941.473632812 l 1
 197.44921875 925.737304688 l 1
 356.354807397 292.114257812 l 1
 488.451227039 916.16796875 l 1
 491.061557236 928.5 l 1
 504.233952623 928.98828125 l 1
 639.087028303 933.98828125 l 1
 652.238958537 934.475585938 l 1
 655.857197493 922.3984375 l 1
 849.130097411 277.211914062 l 1
 925.971679688 935.787109375 l 1
 928.25 956.060546875 l 1
 947.396484375 949.015625 l 1
 1053.39648438 911.28515625 l 1
 1065.53515625 906.963867188 l 1
 1063.71191406 894.576171875 l 1
 931.711914062 -2.255859375 l 1
 929.51171875 -17.7099609375 l 1
 914.006835938 -15.890625 l 1
 771.275541131 0.109375 l 1
 759.970590907 1.375 l 1
 757.03281827 11.8701171875 l 1
 591.530106995 603.047851562 l 1
 446.258222193 28.2294921875 l 1
 442.167238215 12.2109375 l 1
 439.276535428 0.8935546875 l 1
 427.10386274 0.04296875 l 1
 284.077005164 -9.95703125 l 1
 269.628607521 -10.9677734375 l 1
 266.486183359 2.529296875 l 1
 59.2734375 893.051757812 l 1
 55.900390625 907.728515625 l 1
EndSplineSet
EndChar

StartChar: X
Encoding: 88 88 57
Width: 827
Flags: HW
LayerCount: 2
Fore
SplineSet
616.953255209 944.134765625 m 1
 628.151689453 942.885742188 l 1
 762.907226562 926.885742188 l 1
 785.555664062 924.161132812 l 1
 775.28125 904.477539062 l 1
 540.243717391 469.79296875 l 1
 792.27734375 3.21484375 l 1
 806.541992188 -25.0224609375 l 1
 775.344726562 -19.7783203125 l 1
 656.344726562 0.2216796875 l 1
 648.553162277 1.484375 l 1
 644.50445709 8.1162109375 l 1
 445.093354098 334.743164062 l 1
 233.373976741 -5.9892578125 l 1
 228.395490883 -14 l 1
 218.425883414 -14 l 1
 149.916015625 -14 l 1
 126.283203125 -14 l 1
 129.865234375 -5.0458984375 l 1
 80.26953125 0.0849609375 l 1
 57.2001953125 2.4716796875 l 1
 67.623046875 22.49609375 l 1
 326.356255773 503.557617188 l 1
 105.673828125 904.42578125 l 1
 94.71875 925.109375 l 1
 118.689453125 926.953125 l 1
 223.572845952 934.953125 l 1
 234.30691635 935.71875 l 1
 239.765560744 927.112304688 l 1
 422.809154389 638.537109375 l 1
 611.227154088 935.122070312 l 1
 616.953255209 944.134765625 l 1
EndSplineSet
EndChar

StartChar: Y
Encoding: 89 89 58
Width: 817
Flags: HW
LayerCount: 2
Fore
SplineSet
636.889686197 953.6796875 m 1
 649.106445312 950.4765625 l 1
 771.106445312 918.4765625 l 1
 791.141601562 913.400390625 l 1
 780.997070312 895.958007812 l 1
 501.342042273 432.462890625 l 1
 503.459809336 11.072265625 l 1
 503.544224565 -6.1171875 l 1
 485.012971373 -4.9638671875 l 1
 356.43169424 3.0361328125 l 1
 340.229246184 4.0439453125 l 1
 340.303109509 18.5634765625 l 1
 342.420876572 435.203125 l 1
 64.1083984375 897.833984375 l 1
 53.2998046875 916.473632812 l 1
 75.005859375 920.704101562 l 1
 193.005859375 943.704101562 l 1
 204.568359375 945.958007812 l 1
 210.368023138 935.586914062 l 1
 419.126884974 576.8359375 l 1
 630.45513535 942.545898438 l 1
 636.889686197 953.6796875 l 1
EndSplineSet
EndChar

StartChar: Z
Encoding: 90 90 59
Width: 869
Flags: HW
LayerCount: 2
Fore
SplineSet
784.293945312 794 m 1
 238.172600637 132.555664062 l 1
 808.532226562 124.383789062 l 1
 829.456054688 124.06640625 l 1
 823.65234375 104.750976562 l 1
 795.65234375 11.5625 l 1
 792.272460938 -0.146484375 l 1
 780.0859375 0.0009765625 l 1
 88.60546875 8.0009765625 l 1
 72.7998046875 8.193359375 l 1
 72.7998046875 24 l 1
 72.7998046875 125 l 1
 72.7998046875 141 l 1
 82.3291015625 141 l 1
 572.58983614 794 l 1
 114.799804688 794 l 1
 100.448242188 794 l 1
 98.8935546875 808.267578125 l 1
 87.8935546875 909.267578125 l 1
 85.962890625 927 l 1
 103.799804688 927 l 1
 780.280273438 927 l 1
 796.280273438 927 l 1
 796.280273438 911 l 1
 796.280273438 810 l 1
 796.280273438 794 l 1
 784.293945312 794 l 1
EndSplineSet
EndChar

StartChar: bracketleft
Encoding: 91 91 60
Width: 378
Flags: W
LayerCount: 2
Fore
SplineSet
199.823556426 903.761449209 m 1
 212.39219 -13.7488017252 l 1
 341.376469818 -20.0188708831 l 1
 358.860843297 -20.8688057049 l 1
 356.446725543 -38.2065604791 l 1
 345.446725543 -117.206560479 l 1
 343.52612004 -131 l 1
 329.599609375 -131 l 1
 97.599609375 -131 l 1
 81.6562965307 -131 l 1
 81.5997101512 -115.056787575 l 1
 77.5997101512 1011.94321243 l 1
 77.5427206656 1028 l 1
 93.599609375 1028 l 1
 332.599609375 1028 l 1
 350.772011405 1028 l 1
 348.470805849 1009.97388981 l 1
 336.470805849 915.973889812 l 1
 334.660482927 901.793026925 l 1
 320.366057618 902.001704667 l 1
 199.823556426 903.761449209 l 1
EndSplineSet
EndChar

StartChar: backslash
Encoding: 92 92 61
Width: 450
Flags: W
LayerCount: 2
Fore
SplineSet
328.08841698 -4.64149362904 m 1
 47.0884169804 922.358506371 l 1
 41.6349946887 940.348977775 l 1
 60.2657984307 942.856970586 l 1
 164.265798431 956.856970586 l 1
 177.698388467 958.66520386 l 1
 181.690588618 945.712732258 l 1
 451.690588618 69.7127322581 l 1
 455.125890307 58.5670867772 l 1
 445.566321695 51.8856678543 l 1
 352.566321695 -13.1143321457 l 1
 334.487107766 -25.7503418804 l 1
 328.08841698 -4.64149362904 l 1
EndSplineSet
EndChar

StartChar: bracketright
Encoding: 93 93 62
Width: 378
Flags: W
LayerCount: 2
Fore
SplineSet
156.150888777 0.844310820896 m 1
 176.45156466 906.641134717 l 1
 67.1603160739 911.01278466 l 1
 53.18114751 911.571951403 l 1
 51.8702023891 925.500743313 l 1
 43.8702023891 1010.50074331 l 1
 42.2232135244 1028 l 1
 59.7998046875 1028 l 1
 298.799804688 1028 l 1
 314.856693397 1028 l 1
 314.799703912 1011.94321243 l 1
 310.799703912 -115.056787575 l 1
 310.743117532 -131 l 1
 294.799804688 -131 l 1
 62.7998046875 -131 l 1
 45.2792795716 -131 l 1
 46.865513384 -113.551428063 l 1
 55.865513384 -14.5514280633 l 1
 57.1751480638 -0.145446586236 l 1
 71.6398126869 -0.00079994000499 l 1
 156.150888777 0.844310820896 l 1
EndSplineSet
EndChar

StartChar: asciicircum
Encoding: 94 94 63
Width: 820
Flags: W
LayerCount: 2
Fore
SplineSet
668.122697336 329.613505282 m 1
 421.697635338 669.785578032 l 1
 171.427931796 326.572986715 l 1
 164.835288109 317.532026937 l 1
 154.081121998 320.622304555 l 1
 67.0811219985 345.622304555 l 1
 46.6713480582 351.487182124 l 1
 57.9371706725 369.488207151 l 1
 347.07681911 831.488207151 l 1
 351.725496311 838.91606728 l 1
 360.487709598 838.999278565 l 1
 465.788490848 839.999278565 l 1
 474.488760046 840.081901591 l 1
 479.287198826 832.82404406 l 1
 781.426847263 375.82404406 l 1
 793.058410575 358.230773992 l 1
 772.981891509 351.769365557 l 1
 685.981891509 323.769365557 l 1
 674.932396009 320.213206085 l 1
 668.122697336 329.613505282 l 1
EndSplineSet
EndChar

StartChar: underscore
Encoding: 95 95 64
Width: 876
Flags: W
LayerCount: 2
Fore
SplineSet
104.236433281 -136.107561789 m 1
 87.2364332812 -72.1075617894 l 1
 81.8953621809 -52 l 1
 102.700195312 -52 l 1
 778.6796875 -52 l 1
 790.800457639 -52 l 1
 794.082102542 -63.6680707693 l 1
 812.082102542 -127.668070769 l 1
 817.800457639 -148 l 1
 796.6796875 -148 l 1
 119.700195312 -148 l 1
 107.395362181 -148 l 1
 104.236433281 -136.107561789 l 1
EndSplineSet
EndChar

StartChar: grave
Encoding: 96 96 65
Width: 340
Flags: W
LayerCount: 2
Fore
SplineSet
66.1436943356 968.050424277 m 1
 152.143694336 1029.05042428 l 1
 165.438118363 1038.48019016 l 1
 174.62002811 1025.01338919 l 1
 234.62002811 937.013389194 l 1
 234.822346827 936.716655075 l 1
 235.011147219 936.411141715 l 1
 290.011147219 847.411141715 l 1
 297.526018066 835.250714344 l 1
 286.285535456 826.418906579 l 1
 216.285535456 771.418906579 l 1
 203.265615579 761.188969532 l 1
 193.487905414 774.55184009 l 1
 133.684826803 856.282714193 l 1
 62.8927907135 945.022027037 l 1
 52.3352829988 958.256086003 l 1
 66.1436943356 968.050424277 l 1
EndSplineSet
EndChar

StartChar: a
Encoding: 97 97 66
Width: 774
Flags: HW
LayerCount: 2
Fore
SplineSet
571.581054688 175.291015625 m 1
 570.430664062 293.625976562 l 1
 521.624863495 297.63671875 369.957611434 309 305.518731648 309 c 0
 226.700195312 309 218.022460938 298.321289062 207.599609375 171.991210938 c 0
 207.432617188 162.780273438 206.299804688 157.90625 206.299804688 153.053710938 c 0
 206.299804688 109.696289062 220.513671875 102 275.130929954 102 c 0
 305.68287252 102 339.980705431 104.715820312 384.765074667 108.422851562 c 0
 493.910057843 117.7578125 560.5 139.21875 571.581054688 175.291015625 c 1
86.033203125 540.754882812 m 1
 88.5498046875 554.818359375 l 2
 106.369140625 654.39453125 138.606445312 714 319.989216934 714 c 0
 342.363465629 714 365.559505705 712.987304688 390.348038341 711.979492188 c 0
 640.013671875 699.451171875 674.111328125 690.780273438 691.548828125 478.721679688 c 0
 700.608398438 371.772460938 702.599609375 247.043945312 702.599609375 152.078125 c 0
 702.599609375 61.8935546875 700.595703125 -2.3720703125 700.592773438 -2.4755859375 c 2
 700.071289062 -20.0244140625 l 1
 682.645507812 -17.8798828125 l 2
 618.245117188 -9.9541015625 611.616210938 -12.072265625 597.1015625 -5.62109375 c 2
 596.76953125 -5.4736328125 l 1
 596.444335938 -5.310546875 l 2
 581.008789062 2.4072265625 582.103515625 19.771484375 581.672851562 26.7919921875 c 1
 530.936325105 -4.3095703125 445.380885286 -2.3974609375 299.918375564 -13.9326171875 c 0
 276.436447745 -15.9609375 254.029588281 -17 233.200195312 -17 c 0
 129.868164062 -17 79.2998046875 27.005859375 79.2998046875 169.154296875 c 0
 79.2998046875 400.249023438 120.703125 426.388671875 293.49840215 430.333984375 c 2
 293.945169687 430.34375 l 1
 294.391937224 430.333984375 l 2
 451.214951882 426.948242188 535.049630117 424.022460938 567.374023438 422.654296875 c 1
 554.989257812 559.655273438 577.799804688 583.41015625 389.257751627 585.151367188 c 2
 388.730544192 585.15625 l 1
 388.204423784 585.1875 l 2
 356.549150197 587.076171875 333.794442529 588 314.200805414 588 c 0
 243.390868367 588 232.919921875 577.484375 213.268554688 518.911132812 c 2
 208.34765625 504.243164062 l 1
 193.5234375 508.668945312 l 1
 99.7236328125 536.668945312 l 1
 86.033203125 540.754882812 l 1
EndSplineSet
EndChar

StartChar: b
Encoding: 98 98 67
Width: 784
Flags: HW
LayerCount: 2
Fore
SplineSet
390.233452409 585 m 0
 264.081349619 585 239.654296875 570.040039062 233.299804688 420.790039062 c 1
 233.299804688 286.3828125 l 2
 237.1171875 127.779296875 261.652635814 112 390.233452409 112 c 0
 547.168065414 112 598.360351562 123.321289062 598.599609375 334.375976562 c 1
 581.654296875 550.193359375 524.047013711 585 390.233452409 585 c 0
721.599609375 348.4140625 m 1
 721.599609375 348 l 2
 721.599609375 46.1044921875 685.696289062 -15 446.548372429 -15 c 0
 350.397773181 -15 281.511899927 -9.076171875 232.299804688 16.1533203125 c 1
 232.299804688 0 l 1
 216.299804688 0 l 1
 210.481445312 0 l 1
 110.650390625 -14.826171875 l 1
 92.2998046875 -17.5517578125 l 1
 92.2998046875 1 l 1
 92.2998046875 11.025390625 l 1
 95.2998046875 926.05078125 l 1
 95.3662109375 946.880859375 l 1
 115.474609375 941.446289062 l 1
 222.774414062 912.446289062 l 1
 234.599609375 909.25 l 1
 234.599609375 897 l 1
 234.599609375 886.956054688 l 1
 233.46484375 680.999023438 l 1
 283.716074314 705.540039062 351.601825135 711 446.548372429 711 c 0
 669.055664062 711 704.551757812 650.004882812 721.576171875 348.828125 c 2
 721.599609375 348.4140625 l 1
EndSplineSet
EndChar

StartChar: c
Encoding: 99 99 68
Width: 744
Flags: HW
LayerCount: 2
Fore
SplineSet
562.6484375 189.771484375 m 1
 578.938476562 186.727539062 l 1
 669.938476562 169.727539062 l 1
 685.708984375 166.78125 l 1
 682.719726562 151.018554688 l 2
 659.750976562 29.9130859375 642.494140625 -10 391.865516978 -10 c 0
 120.926757812 -10 90.77734375 5.7060546875 78.7080078125 354.264648438 c 0
 77.7060546875 386.8671875 76.7001953125 417.548828125 76.7001953125 444.733398438 c 0
 76.7001953125 673.365234375 131.8125 708 322.161751794 708 c 0
 344.708734838 708 367.400802248 707 392.107687873 707 c 0
 670.466796875 699.857421875 661.40625 618.510742188 683.939453125 559.7265625 c 2
 690.509765625 542.588867188 l 1
 672.635742188 538.418945312 l 1
 582.635742188 517.418945312 l 1
 570.42578125 514.569335938 l 1
 564.740234375 525.744140625 l 2
 546.678710938 561.241210938 576.2578125 584.015625 391.813155703 585 c 0
 366.708106219 585 344.701098819 586 325.066711678 586 c 0
 236.683061756 586 207.700195312 580.716796875 207.700195312 375.342773438 c 0
 207.700195312 125.045898438 251.656204591 116 391.865516978 116 c 0
 534.741981793 116 551.669921875 116.934570312 560.178710938 173.384765625 c 2
 562.6484375 189.771484375 l 1
EndSplineSet
EndChar

StartChar: d
Encoding: 100 100 69
Width: 775
Flags: HW
LayerCount: 2
Fore
SplineSet
75.400390625 348.4140625 m 1
 75.423828125 348.828125 l 2
 92.43359375 649.744140625 127.6015625 711 341.453811805 711 c 0
 436.956988219 711 506.203074151 704.86328125 555.134765625 680.999023438 c 1
 554 886.956054688 l 1
 554 897 l 1
 554 909.25 l 1
 565.825195312 912.446289062 l 1
 673.125 941.446289062 l 1
 693.233398438 946.880859375 l 1
 693.299804688 926.05078125 l 1
 696.299804688 11.025390625 l 1
 696.299804688 1 l 1
 696.299804688 -17.5517578125 l 1
 677.94921875 -14.826171875 l 1
 578.118164062 -0 l 1
 572.299804688 0 l 1
 556.299804688 0 l 1
 556.299804688 16 l 1
 556.299804688 16 399.59497843 -15 341.453811805 -15 c 0
 110.973632812 -15 75.400390625 46.36328125 75.400390625 348 c 2
 75.400390625 348.4140625 l 1
555.299804688 286.3828125 m 2
 555.299804688 420.790039062 l 1
 548.96875 569.4921875 524.459226396 585 397.9379987 585 c 0
 264.480956311 585 244.898567499 564.9375 226.400390625 347.489257812 c 1
 226.5 130.737304688 245.397946157 112 397.9379987 112 c 0
 526.904985052 112 551.483398438 127.778320312 555.299804688 286.3828125 c 2
EndSplineSet
EndChar

StartChar: e
Encoding: 101 101 70
Width: 749
Flags: HW
LayerCount: 2
Fore
SplineSet
539.830032299 427 m 0
 539.830032299 571.9296875 518.954278328 592 365.096872008 592 c 2
 353.514335942 592 l 2
 228.74609375 592 212.831054688 601.388671875 212.700195312 402.66015625 c 1
 538.735944855 396.33984375 l 1
 539.186195552 407.994140625 539.830032299 418.034179688 539.830032299 427 c 0
646.088867188 312.153320312 m 2
 527.417686372 306.665039062 368.271465696 301.08203125 213.1796875 295.649414062 c 1
 220.352539062 94.1552734375 237.042963407 104 388.260856579 104 c 2
 396.947214847 104 l 2
 508.972633631 104 524.060382256 113.75390625 562.341796875 200.181640625 c 2
 567.688476562 212.944335938 l 1
 581.087890625 209.495117188 l 1
 682.087890625 183.495117188 l 1
 698.6328125 179.235351562 l 1
 693.299804688 163.005859375 l 2
 645.754882812 18.3017578125 602.80859375 -12 399.842305083 -12 c 0
 126.41015625 -12 83.7509765625 0.1630859375 77.7001953125 360.498046875 c 0
 77.7001953125 383.337890625 76.7001953125 403.15625 76.7001953125 424.799804688 c 0
 76.7001953125 698.534179688 131.1875 711.142578125 385.17544298 716 c 0
 411.169264062 716 433.848195949 717 456.305265173 717 c 0
 629.821289062 717 666.299804688 681.8125 666.299804688 520.26953125 c 0
 666.299804688 470.467773438 664.291992188 406.68359375 661.290039062 326.798828125 c 2
 660.765625 312.841796875 l 1
 646.088867188 312.153320312 l 2
EndSplineSet
EndChar

StartChar: f
Encoding: 102 102 71
Width: 480
Flags: HW
LayerCount: 2
Fore
SplineSet
290.841796875 709.7578125 m 2
 290.841796875 695.008789062 l 1
 400.86328125 687.967773438 l 1
 414.411132812 687.100585938 l 1
 415.762695312 674.190429688 l 1
 424.762695312 588.178710938 l 1
 426.630859375 570.32421875 l 1
 407.887695312 571.393554688 l 1
 290.787109375 578.07421875 l 1
 288.841796875 -3.05078125 l 1
 288.78515625 -20.8310546875 l 1
 271.109375 -18.90625 l 1
 170.109375 -7.90625 l 1
 155.865234375 -6.3544921875 l 1
 155.841796875 7.974609375 l 1
 154.866210938 586.836914062 l 1
 73.017578125 590.868164062 l 1
 55.900390625 591.7109375 l 1
 57.95703125 607.970703125 l 1
 68.95703125 694.919921875 l 1
 70.7822265625 710.01953125 l 1
 85.955078125 708.9609375 l 1
 154.841796875 704.155273438 l 1
 154.841796875 746.299804688 l 1
 160.801757812 905.24609375 164.215820312 927 270.841796875 927 c 2
 292.841796875 927 l 1
 399.841796875 927 l 1
 413.634765625 927 l 1
 415.666992188 913.357421875 l 1
 429.666992188 819.357421875 l 1
 432.54296875 800.044921875 l 1
 413.04296875 801.01953125 l 1
 333.491210938 804.997070312 l 2
 321.782226562 805.102539062 315.709960938 806 309.841796875 806 c 0
 293.005859375 806 294.041015625 815.33203125 290.841796875 709.7578125 c 2
EndSplineSet
EndChar

StartChar: g
Encoding: 103 103 72
Width: 734
Flags: HW
LayerCount: 2
Fore
SplineSet
527.109375 307.291992188 m 0
 527.109375 528.366210938 518.272460938 581 386.683986569 581 c 2
 356.014091995 581 l 2
 235.129396459 581 218.309570312 587.61328125 218.309570312 344.658203125 c 0
 218.309570312 120.5390625 222.149414062 127 329.724984008 127 c 2
 372.079170379 127 l 1
 407.130948657 127 l 2
 515.9453125 127 527.109375 120.5078125 527.109375 307.291992188 c 0
130.596679688 -94.287109375 m 1
 130.596679688 -94.287109375 217.993164062 -132 345.791159509 -132 c 0
 520.7890625 -132 525.109375 -87.5185546875 525.109375 -20 c 2
 525.109375 -0.8671875 l 1
 487.585800339 -2.5927734375 400.818139736 -6 315.120167819 -6 c 2
 300.51535163 -6 l 2
 95.580078125 -6 88.3095703125 13.4189453125 88.3095703125 340.325195312 c 2
 88.3095703125 351.8046875 l 2
 88.3095703125 664.747070312 120.599609375 701 278.608127346 701 c 2
 369.158645988 701 l 1
 386.683986569 701 l 2
 460.04488231 701 493.011041929 700.75390625 525.109375 683.047851562 c 1
 525.109375 693.834960938 l 1
 537.638671875 696.619140625 l 1
 645.638671875 720.619140625 l 1
 647.353515625 721 l 1
 649.109375 721 l 2
 677.697265625 721 666.260742188 693.408203125 666.260742188 693.408203125 c 2
 666.591796875 685.813476562 666.791992188 680.412109375 666.075195312 674.350585938 c 2
 656.103515625 8.4306640625 l 1
 644.067382812 -203.19140625 636.267578125 -228.62890625 478.547753782 -255.811523438 c 0
 452.158808184 -259 424.431380334 -261 395.446656859 -261 c 0
 256.776604108 -261 128.35546875 -228.515625 86.95703125 -219.64453125 c 2
 68.900390625 -215.775390625 l 1
 75.3017578125 -198.453125 l 2
 92.75390625 -151.229492188 87.0966796875 -173.04296875 109.06640625 -104.139648438 c 2
 114.412109375 -87.37109375 l 1
 130.596679688 -94.287109375 l 1
EndSplineSet
EndChar

StartChar: h
Encoding: 104 104 73
Width: 692
Flags: HW
LayerCount: 2
Fore
SplineSet
492.239257812 2.2099609375 m 1
 491.858398438 15.8076171875 l 1
 478.853515625 480.724609375 l 1
 478.853515625 497.9609375 l 2
 478.853515625 571.400390625 475.389648438 568 365.067163591 568 c 0
 229.6328125 568 224.053710938 561.849609375 224.053710938 487.594726562 c 2
 224.053710938 22.1875 l 1
 224.053710938 7.9609375 l 1
 209.04296875 7.0302734375 l 1
 96.04296875 0.0302734375 l 1
 79 -1.025390625 l 1
 79.0537109375 15.4892578125 l 1
 82.0537109375 941.049804688 l 1
 82.119140625 961.9296875 l 1
 102.263671875 956.436523438 l 1
 212.263671875 926.436523438 l 1
 224.053710938 923.220703125 l 1
 224.053710938 911 l 1
 224.053710938 683.637695312 l 1
 271.998180397 701.120117188 335.892982352 705 431.259421017 705 c 0
 588.90625 705 619.853515625 682.190429688 619.853515625 486.11328125 c 2
 622.852539062 9.095703125 l 1
 622.958007812 -8.353515625 l 1
 605.564453125 -6.9482421875 l 1
 506.564453125 1.0517578125 l 1
 492.239257812 2.2099609375 l 1
EndSplineSet
EndChar

StartChar: i
Encoding: 105 105 74
Width: 313
Flags: HW
LayerCount: 2
Fore
SplineSet
91.4140625 4.9658203125 m 1
 91.5 19.4150390625 l 1
 95.5 689.090820312 l 1
 95.58984375 704.853515625 l 1
 111.3515625 704.999023438 l 1
 219.3515625 705.999023438 l 1
 235.477539062 706.1484375 l 1
 235.5 690.022460938 l 1
 236.5 13.0224609375 l 1
 236.524414062 -4.0234375 l 1
 219.510742188 -2.9697265625 l 1
 106.510742188 4.0302734375 l 1
 91.4140625 4.9658203125 l 1
84.5 758.96875 m 1
 84.5 774 l 1
 84.5 893 l 1
 84.5 909 l 1
 100.5 909 l 1
 220.5 909 l 1
 235.5234375 909 l 1
 236.46875 894.005859375 l 1
 244.46875 767.005859375 l 1
 245.609375 748.899414062 l 1
 227.501953125 750.03125 l 1
 99.501953125 758.03125 l 1
 84.5 758.96875 l 1
EndSplineSet
EndChar

StartChar: j
Encoding: 106 106 75
Width: 361
Flags: HW
LayerCount: 2
Fore
SplineSet
46.7998046875 -37.6669921875 m 1
 67.2802734375 -43.6396484375 l 1
 110.23828125 -56.169921875 l 1
 152.645507812 -40.8486328125 144.799804688 -53.4169921875 144.799804688 -18 c 2
 144.799804688 15.81640625 l 1
 128.803710938 681.3671875 l 1
 128.428710938 697 l 1
 144.799804688 697 l 1
 267.799804688 697 l 1
 284.170898438 697 l 1
 283.795898438 681.3671875 l 1
 267.799804688 15.81640625 l 1
 267.799804688 -56 l 2
 267.799804688 -145.4765625 245.890625 -145.932617188 147.43359375 -182.975585938 c 2
 143.328125 -184.520507812 l 1
 139.0078125 -183.754882812 l 1
 60.0078125 -169.754882812 l 1
 46.7998046875 -167.4140625 l 1
 46.7998046875 -154 l 1
 46.7998046875 -59 l 1
 46.7998046875 -37.6669921875 l 1
123.799804688 758 m 1
 123.799804688 774 l 1
 123.799804688 893 l 1
 123.799804688 909 l 1
 139.799804688 909 l 1
 258.799804688 909 l 1
 274.799804688 909 l 1
 274.799804688 893 l 1
 274.799804688 774 l 1
 274.799804688 758 l 1
 258.799804688 758 l 1
 139.799804688 758 l 1
 123.799804688 758 l 1
EndSplineSet
EndChar

StartChar: k
Encoding: 107 107 76
Width: 667
Flags: HW
LayerCount: 2
Fore
SplineSet
81.900390625 -0.6142578125 m 1
 82.318359375 13.474609375 l 1
 109.318359375 891.474609375 l 1
 109.73046875 905.3671875 l 1
 123.544921875 906.90234375 l 1
 231.544921875 918.90234375 l 1
 251.873589383 920.932617188 l 1
 251.287325321 902.555664062 l 1
 236.607138413 443.043945312 l 1
 494.341796875 701.526367188 l 1
 502.517578125 710.884765625 l 1
 513.608398438 705.280273438 l 1
 606.608398438 660.356445312 l 1
 625.091796875 651.427734375 l 1
 611.38671875 636.587890625 l 1
 412.659316407 431.1015625 l 1
 626.764648438 30.2373046875 l 1
 635.540039062 13.087890625 l 1
 616.115234375 8.439453125 l 1
 499.115234375 -19.560546875 l 1
 486.028320312 -22.6923828125 l 1
 480.603053472 -10.3369140625 l 1
 307.23398821 339.189453125 l 1
 230.129882812 266.500976562 l 1
 222.3046875 -4.4619140625 l 1
 221.780273438 -22.6318359375 l 1
 203.823242188 -19.8056640625 l 1
 95.8232421875 -2.8056640625 l 1
 81.900390625 -0.6142578125 l 1
EndSplineSet
EndChar

StartChar: l
Encoding: 108 108 77
Width: 311
Flags: HW
LayerCount: 2
Fore
SplineSet
243.099609375 915 m 1
 243.099609375 899 l 1
 243.099609375 885.877929688 l 1
 229.09765625 3.7548828125 l 1
 228.856445312 -12 l 1
 213.099609375 -12 l 1
 103.099609375 -12 l 1
 87.099609375 -12 l 1
 87.099609375 4 l 1
 87.099609375 9.12109375 l 1
 101.1015625 902.2421875 l 1
 101.353515625 918.8828125 l 1
 117.970703125 917.9765625 l 1
 172.536132812 915 l 1
 227.099609375 915 l 1
 243.099609375 915 l 1
EndSplineSet
EndChar

StartChar: m
Encoding: 109 109 78
Width: 1043
Flags: HW
LayerCount: 2
Fore
SplineSet
828.521484375 8.1044921875 m 1
 828.637695312 21.373046875 l 1
 832.63671875 481.036132812 l 2
 832.63671875 572.82421875 830.831054688 568 731.84688832 568 c 0
 610.569604992 568 605.712768124 562.223632812 605.712768124 487.592773438 c 2
 605.712768124 480.880859375 l 1
 599.362712261 7.8076171875 l 1
 599.145704657 -9.2744140625 l 1
 581.121673029 -7.9521484375 l 1
 472.130120237 0.0478515625 l 1
 456.510739544 1.1943359375 l 1
 456.510739544 16 l 1
 456.510739544 481.041015625 l 2
 456.510739544 572.6328125 453.481933404 568 353.761772181 568 c 0
 235.600585938 568 230.836914062 562.36328125 230.836914062 487.596679688 c 2
 230.836914062 21.259765625 l 1
 230.836914062 8.314453125 l 1
 217.31640625 6.193359375 l 1
 115.31640625 -9.806640625 l 1
 97.142578125 -12.6572265625 l 1
 96.8388671875 5.736328125 l 1
 84.8388671875 700.736328125 l 1
 84.5 721.28125 l 1
 104.501953125 716.57421875 l 1
 138.05078125 708.680664062 l 1
 217.594726562 694.760742188 l 1
 230.836914062 692.443359375 l 1
 230.836914062 686.250976562 l 1
 264.929192499 704.262695312 306.801326517 714 388.152310684 714 c 0
 477.051026017 714 540.849195069 704.963867188 574.967957381 665.828125 c 1
 611.423168237 698.206054688 664.846307044 698 770.363671421 698 c 0
 926.208007812 698 964.63671875 683.083007812 964.63671875 485.96875 c 1
 974.633789062 6.318359375 l 1
 975.0078125 -12.4541015625 l 1
 956.413085938 -9.8447265625 l 1
 842.413085938 6.1552734375 l 1
 828.521484375 8.1044921875 l 1
EndSplineSet
EndChar

StartChar: n
Encoding: 110 110 79
Width: 722
Flags: HW
LayerCount: 2
Fore
SplineSet
507.36328125 3.7939453125 m 1
 507.626953125 17.5341796875 l 1
 516.724609375 491.3046875 l 1
 516.724609375 505.383789062 l 2
 516.724609375 585.23828125 507.545898438 585 350.301246856 585 c 0
 282.967931675 585 246.234158439 580.694335938 231.986328125 572.1171875 c 1
 229.024414062 21.1787109375 l 1
 228.953125 7.833984375 l 1
 214.97265625 6.119140625 l 1
 108.97265625 -6.880859375 l 1
 91 -9.0849609375 l 1
 91.0244140625 9.021484375 l 1
 92.0244140625 712.021484375 l 1
 92.05078125 731.405273438 l 1
 111.078125 727.706054688 l 1
 219.078125 706.706054688 l 1
 232.024414062 704.188476562 l 1
 232.024414062 697.881835938 l 1
 280.217486488 710.87109375 344.554181566 714 436.696333301 714 c 0
 613.676757812 714 646.704101562 693.1171875 647.724609375 495.936523438 c 2
 650.724609375 5.09375 l 1
 650.830078125 -12.994140625 l 1
 632.865234375 -10.8916015625 l 1
 521.764648438 2.1083984375 l 1
 507.36328125 3.7939453125 l 1
EndSplineSet
EndChar

StartChar: o
Encoding: 111 111 80
Width: 755
Flags: HW
LayerCount: 2
Fore
SplineSet
383.778115567 -15 m 0
 87.828125 -15 79.2998046875 46.8056640625 79.2998046875 348 c 0
 79.2998046875 696.551757812 121.736328125 711 383.778115567 711 c 0
 678.31640625 711 686.799804688 649.155273438 686.799804688 348 c 0
 686.799804688 -0.4697265625 645.416992188 -15 383.778115567 -15 c 0
217.299804688 348.030273438 m 0
 217.299804688 121.475585938 213.092773438 103 383.778115567 103 c 0
 535.220703125 103 548.799804688 89.955078125 548.799804688 348.030273438 c 0
 548.799804688 575.608398438 552.911132812 594 383.778115567 594 c 0
 230.759765625 594 217.299804688 607.936523438 217.299804688 348.030273438 c 0
EndSplineSet
EndChar

StartChar: p
Encoding: 112 112 81
Width: 785
Flags: HW
LayerCount: 2
Fore
SplineSet
89.7001953125 -200.29296875 m 1
 89.7490234375 -184.948242188 l 1
 92.7490234375 717.051757812 l 1
 92.81640625 737.875 l 1
 112.919921875 732.447265625 l 1
 212.919921875 705.447265625 l 1
 224.749023438 702.252929688 l 1
 224.749023438 690 l 1
 224.749023438 676.224609375 l 1
 273.632269938 703.868164062 344.59995078 706.14453125 448.056494754 710.977539062 c 0
 468.209845999 711.974609375 488.691696111 713 506.732029895 713 c 0
 672.491210938 713 699.645507812 634.186523438 715.522460938 361.377929688 c 0
 718.529296875 311.448242188 720.548828125 268.100585938 720.548828125 230.220703125 c 0
 720.548828125 28.826171875 662.586914062 -15 449.002961785 -15 c 0
 350.227797695 -15 280.562186618 -15.876953125 231.029296875 8.7841796875 c 1
 232.749023438 -189.861328125 l 1
 232.89453125 -206.743164062 l 1
 216.029296875 -205.983398438 l 1
 105.029296875 -200.983398438 l 1
 89.7001953125 -200.29296875 l 1
232.749023438 348.03125 m 0
 232.749023438 97.9541015625 246.686689657 111 389.830883802 111 c 0
 549.755624 111 578.548828125 124.78125 578.548828125 238.416015625 c 0
 578.548828125 259.431640625 577.284179688 284.231445312 574.698242188 312.18359375 c 0
 555.189407229 552.801757812 533.723144673 586 421.582521756 586 c 0
 414.793545184 586 404.97760876 585.138671875 394.630436546 585.061523438 c 0
 246.286636582 577.923828125 232.749023438 588.811523438 232.749023438 348.03125 c 0
EndSplineSet
EndChar

StartChar: q
Encoding: 113 113 82
Width: 791
Flags: HW
LayerCount: 2
Fore
SplineSet
349.003515633 120 m 0
 552.303336103 120 573.099609375 139.822265625 573.099609375 333.349609375 c 0
 573.099609375 555.629882812 555.14706088 586 432.518595994 586 c 0
 424.082609104 586 412.895921528 585.12890625 401.313340734 585.063476562 c 0
 267.023332746 578.581054688 223.400390625 561.321289062 223.400390625 435.345703125 c 0
 223.400390625 410.500976562 224.659179688 382.251953125 228.512695312 349.881835938 c 0
 253.185458625 136.668945312 276.02719925 120 349.003515633 120 c 0
346.123013891 -15 m 0
 142.206054688 -15 92.4638671875 57.076171875 78.421875 347.208007812 c 0
 76.4189453125 380.778320312 75.400390625 411.874023438 75.400390625 439.946289062 c 0
 75.400390625 653.27734375 136.24609375 700.151367188 345.216569858 710.979492188 c 0
 369.917710595 711.98828125 392.930355942 713 413.80020221 713 c 0
 482.285402095 713 534.852665955 705.587890625 573.099609375 683.157226562 c 1
 573.099609375 694.8046875 l 1
 586.754882812 696.827148438 l 1
 694.754882812 712.827148438 l 1
 713.099609375 715.544921875 l 1
 713.099609375 697 l 1
 713.099609375 -161 l 1
 713.099609375 -173.161132812 l 1
 701.381835938 -176.416015625 l 1
 593.381835938 -206.416015625 l 1
 573.099609375 -212.049804688 l 1
 573.099609375 -191 l 1
 573.099609375 24.8779296875 l 1
 522.327945838 -7.8994140625 449.913019018 -15 346.123013891 -15 c 0
EndSplineSet
EndChar

StartChar: r
Encoding: 114 114 83
Width: 498
Flags: HW
LayerCount: 2
Fore
SplineSet
446.752929688 704.125 m 1
 446.752929688 690 l 1
 446.752929688 592 l 1
 446.752929688 574.479492188 l 1
 429.3046875 576.065429688 l 2
 418.484375 577.048828125 405.99609375 578 392.752929688 578 c 0
 318.731445312 578 234.9140625 554.198242188 228.759765625 511.86328125 c 1
 232.751953125 14.12109375 l 1
 232.8671875 -0.998046875 l 1
 217.778320312 -1.966796875 l 1
 108.778320312 -8.966796875 l 1
 91.798828125 -10.0576171875 l 1
 91.7529296875 6.9560546875 l 1
 89.7529296875 708.956054688 l 1
 89.7001953125 728.27734375 l 1
 108.692382812 724.727539062 l 1
 215.692382812 704.727539062 l 1
 228.752929688 702.286132812 l 1
 228.752929688 689 l 1
 228.752929688 684.828125 l 1
 273.755859375 700.220703125 348.325195312 708 398.752929688 708 c 0
 412.5703125 708 424.244140625 706.938476562 432.737304688 705.875976562 c 2
 446.752929688 704.125 l 1
EndSplineSet
EndChar

StartChar: s
Encoding: 115 115 84
Width: 715
Flags: HW
LayerCount: 2
Fore
SplineSet
74.4130859375 145.921875 m 1
 74.4130859375 146.79296875 l 2
 72.2294921875 161.815429688 71.43359375 174.881835938 69.5224609375 191.130859375 c 2
 67.599609375 207.473632812 l 1
 83.990234375 208.936523438 l 1
 195.990234375 218.936523438 l 1
 212.020507812 220.368164062 l 1
 213.357421875 204.329101562 l 2
 222.111846389 99.7158203125 208.958007812 105 345.198730923 105 c 0
 480.333626943 105 506.61328125 122.192382812 506.61328125 191.399414062 c 2
 506.61328125 212.287109375 l 2
 506.61328125 264.430664062 513.326171875 269.485351562 365.785130197 290.348632812 c 0
 136.8828125 323.879882812 104.413085938 356.061523438 104.413085938 501.869140625 c 0
 104.413085938 669.415039062 143.575195312 706 373.182779641 706 c 2
 410.005061047 706 l 2
 560.688476562 706 617.297851562 699.25390625 631.505859375 576.844726562 c 2
 631.61328125 575.92578125 l 1
 631.61328125 575 l 2
 631.61328125 543.055664062 635.609375 528.3125 635.615234375 526.096679688 c 2
 635.653320312 513.719726562 l 1
 622.55078125 511.272460938 l 1
 531.55078125 494.272460938 l 1
 512.61328125 490.734375 l 1
 512.61328125 510 l 1
 512.61328125 519 l 2
 512.61328125 585.147460938 499.190429688 583 392.330808547 583 c 2
 370.237439704 583 l 2
 245.464342523 583 229.292633838 580.666992188 229.292633838 506.166992188 c 0
 229.292633838 438.723632812 267.286633874 427.616210938 423.331009282 406.357421875 c 0
 628.038085938 373.814453125 648.61328125 342.6328125 648.61328125 233.932617188 c 2
 648.61328125 195.041992188 l 2
 648.61328125 26.9560546875 606.640625 -7 368.764769735 -7 c 2
 314.267129391 -7 l 2
 142.018554688 -7 93.677734375 3.576171875 74.5576171875 144.854492188 c 2
 74.4130859375 145.921875 l 1
EndSplineSet
EndChar

StartChar: t
Encoding: 116 116 85
Width: 469
Flags: HW
LayerCount: 2
Fore
SplineSet
403.799804688 697 m 1
 403.799804688 681 l 1
 403.799804688 595.080078125 l 1
 403.799804688 579.283203125 l 1
 387.262695312 579.814453125 l 1
 284.799804688 583.102539062 l 1
 284.799804688 158.798828125 l 2
 284.599609375 158.798828125 286.196289062 119.216796875 286.682617188 111.720703125 c 1
 290.497070312 112.024414062 291.1640625 111.997070312 292.083007812 112.024414062 c 2
 385.274414062 120.54296875 l 1
 402.629882812 122.12890625 l 1
 402.798828125 105.485351562 l 1
 403.798828125 7.1552734375 l 1
 403.956054688 -9 l 1
 387.799804688 -9 l 1
 242.799804688 -9 l 1
 208.799804688 -9 l 2
 190.006835938 -9 173.63671875 -9.9765625 161.150390625 2.2431640625 c 0
 139.069335938 22.8798828125 151.854492188 56.814453125 146.833984375 129.93359375 c 2
 146.799804688 130.432617188 l 1
 146.799804688 130.932617188 l 1
 146.799804688 586.974609375 l 1
 75.248046875 589.331054688 l 1
 59.7998046875 589.83984375 l 1
 59.7998046875 604.6015625 l 1
 59.7998046875 681 l 1
 59.7998046875 697 l 1
 75.7998046875 697 l 1
 146.799804688 697 l 1
 146.799804688 862 l 1
 146.799804688 876.69921875 l 1
 161.446289062 877.942382812 l 1
 267.446289062 886.942382812 l 1
 284.799804688 888.416015625 l 1
 284.799804688 871 l 1
 284.799804688 697 l 1
 387.799804688 697 l 1
 403.799804688 697 l 1
EndSplineSet
EndChar

StartChar: u
Encoding: 117 117 86
Width: 704
Flags: HW
LayerCount: 2
Fore
SplineSet
348.641720138 122 m 0
 483.16015625 122 489.099609375 128.264648438 489.099609375 220.4609375 c 2
 489.099609375 677.735351562 l 1
 489.099609375 690.8046875 l 1
 502.754882812 692.827148438 l 1
 610.754882812 708.827148438 l 1
 629.073242188 711.541015625 l 1
 629.099609375 693.022460938 l 1
 630.099609375 11 l 1
 630.099609375 1 l 1
 630.099609375 -11.8212890625 l 1
 617.586914062 -14.615234375 l 1
 514.586914062 -37.615234375 l 1
 497.651367188 -41.3974609375 l 1
 495.252929688 -24.2109375 l 1
 490.875976562 7.162109375 l 1
 461.399040983 -11.5166015625 425.219991671 -15 342.620171173 -15 c 0
 110.474609375 -15 87.099609375 5.3740234375 87.099609375 204.004882812 c 2
 88.099609375 685.032226562 l 1
 88.13671875 703.5390625 l 1
 106.444335938 700.827148438 l 1
 214.444335938 684.827148438 l 1
 228.071289062 682.80859375 l 1
 228.099609375 669.776367188 l 1
 229.099609375 209.049804688 l 1
 229.099609375 163.625 l 2
 229.099609375 120.266601562 221.432617188 122 348.641720138 122 c 0
EndSplineSet
EndChar

StartChar: v
Encoding: 118 118 87
Width: 694
Flags: HW
LayerCount: 2
Fore
SplineSet
55.900390625 700.436523438 m 1
 80.87890625 696.8359375 l 1
 191.87890625 680.8359375 l 1
 201.685546875 679.422851562 l 1
 204.790039062 670.013671875 l 1
 381.085900995 193.120117188 l 1
 522.510742188 677.1015625 l 1
 525.400390625 687.998046875 l 1
 536.633789062 688.943359375 l 1
 631.633789062 696.943359375 l 1
 653.48046875 698.783203125 l 1
 648.569335938 678.344726562 l 1
 482.356752847 -5.583984375 l 1
 478.717739954 -19.6650390625 l 1
 462.596934801 -17.876953125 l 1
 300.341321926 0.123046875 l 1
 288.781910725 1.4052734375 l 1
 285.366904661 11.3095703125 l 1
 63.298828125 677.379882812 l 1
 55.900390625 700.436523438 l 1
EndSplineSet
EndChar

StartChar: w
Encoding: 119 119 88
Width: 1005
Flags: HW
LayerCount: 2
Fore
SplineSet
629.219512505 0 m 1
 625.961617399 12.0283203125 l 1
 505.826219224 455.596679688 l 1
 397.583789843 0.48828125 l 1
 394.349637318 -13.109375 l 1
 379.669495905 -11.9443359375 l 1
 228.467445887 0.0556640625 l 1
 216.001558276 1.044921875 l 1
 213.38671875 12.6103515625 l 1
 63.38671875 673.357421875 l 1
 59.80078125 689.154296875 l 1
 76.5205078125 691.802734375 l 1
 177.520507812 707.802734375 l 1
 192.57421875 710.1875 l 1
 195.686523438 695.267578125 l 1
 307.40327132 183.95703125 l 1
 425.037440142 684.47265625 l 1
 427.89996965 696.651367188 l 1
 441.082263853 696.994140625 l 1
 556.513534019 699.994140625 l 1
 569.976610056 700.34375 l 1
 573.351153497 688.009765625 l 1
 713.015341158 177.6484375 l 1
 838.904296875 707.556640625 l 1
 842.5859375 723.700195312 l 1
 858.59375 719.46875 l 1
 945.59375 696.46875 l 1
 961.00390625 692.39453125 l 1
 956.98828125 677.662109375 l 1
 773.764349108 11.9697265625 l 1
 740.483443463 -108.975585938 l 1
 740.483443463 0.1142578125 l 1
 734.85645163 0.1201171875 732.56890551 0.12109375 727.802840332 0.12109375 c 0
 693.97585531 0.12109375 643.115116441 0 642.345030969 0 c 2
 629.219512505 0 l 1
EndSplineSet
EndChar

StartChar: x
Encoding: 120 120 89
Width: 756
Flags: HW
LayerCount: 2
Fore
SplineSet
597.522460938 726.587890625 m 1
 609.388671875 721.866210938 l 1
 707.388671875 682.866210938 l 1
 725.577148438 675.956054688 l 1
 714.86328125 660.317382812 l 1
 517.056973017 378.625 l 1
 713.6171875 32.447265625 l 1
 722.466796875 16.4697265625 l 1
 704.486328125 10.8056640625 l 1
 604.486328125 -22.1943359375 l 1
 591.987304688 -26.318359375 l 1
 585.530273438 -14.849609375 l 1
 411.16097049 269.567382812 l 1
 362.296693287 203.560546875 224.191791026 16.935546875 214.940709043 4.091796875 c 2
 209.780273438 -5.6015625 l 1
 198.23828125 -3.810546875 l 1
 82.23828125 14.189453125 l 1
 57.2001953125 17.9013671875 l 1
 71.4716796875 37.9033203125 l 1
 310.316566781 360.344726562 l 1
 101.998046875 675.80859375 l 1
 87.330078125 699 l 1
 115.692382812 699 l 1
 245.569711332 699 l 1
 255.254889968 699 l 1
 260.422247892 691.536132812 l 1
 410.286346125 475.078125 l 1
 590.288085938 716.064453125 l 1
 597.522460938 726.587890625 l 1
EndSplineSet
EndChar

StartChar: y
Encoding: 121 121 90
Width: 696
Flags: HW
LayerCount: 2
Fore
SplineSet
57.2001953125 685.774414062 m 1
 73.5166015625 689.581054688 l 1
 193.516601562 717.581054688 l 1
 209.2265625 721.247070312 l 1
 212.931571606 705.5078125 l 1
 337.601758653 211.887695312 l 1
 491.947849411 709.2578125 l 1
 496.626932798 724.336914062 l 1
 512.341796875 720.514648438 l 1
 639.341796875 688.514648438 l 1
 655.77734375 684.374023438 l 1
 650.697265625 668.745117188 l 1
 336.895999653 -240.795898438 l 1
 332.340945453 -253.696289062 l 1
 317.285119318 -251.850585938 l 1
 174.96875 -233.850585938 l 1
 154.955078125 -231.092773438 l 1
 162.223632812 -212.243164062 l 1
 258.431623848 15.6611328125 l 1
 61.7548828125 670.205078125 l 1
 57.2001953125 685.774414062 l 1
EndSplineSet
EndChar

StartChar: z
Encoding: 122 122 91
Width: 594
Flags: HW
LayerCount: 2
Fore
SplineSet
99.2001953125 697.129882812 m 1
 115.330078125 696.999023438 l 1
 517.129882812 693.999023438 l 1
 533.834960938 693.864257812 l 1
 532.978515625 677.932617188 l 1
 528.978515625 603.44921875 l 1
 528.797851562 600.07421875 l 1
 527.143554688 597.086914062 l 1
 249.870443483 125.04296875 l 1
 519.0859375 126.770507812 l 1
 535.200195312 126.879882812 l 1
 535.200195312 111.4921875 l 1
 535.200195312 16 l 1
 535.200195312 0 l 1
 519.200195312 0 l 1
 86.2001953125 0 l 1
 70.2001953125 0 l 1
 70.2001953125 16 l 1
 70.2001953125 82.7861328125 l 1
 70.2001953125 86.1591796875 l 1
 71.689453125 89.2177734375 l 1
 336.241638544 577.901367188 l 1
 115.926308174 570.338867188 l 1
 99.2001953125 569.688476562 l 1
 99.2001953125 585.590820312 l 1
 99.2001953125 681 l 1
 99.2001953125 697.129882812 l 1
EndSplineSet
EndChar

StartChar: braceleft
Encoding: 123 123 92
Width: 383
Flags: W
LayerCount: 2
Fore
SplineSet
337.757657759 1033.83942887 m 1
 329.757657759 923.839428868 l 1
 328.751875279 910.009919758 l 1
 314.919857192 909.039251822 l 1
 260.411589562 905.214110234 l 2
 250.956573101 900.758097471 245.799804688 890.653414627 245.799804688 850 c 0
 245.799804688 818.962152227 248.799804688 776.519934434 248.799804688 718 c 0
 248.799804688 581.908299082 251.04120742 572.670043364 252.418797651 566.470887325 c 2
 253.190105945 563 l 1
 252.418797651 559.529112675 l 2
 249.219353966 545.131616092 258.834122338 487.683191499 226.353073447 453.539567072 c 1
 255.925175683 435.255084143 256.799804688 408.654502673 256.799804688 372 c 2
 256.799804688 339.941177266 l 1
 254.805299569 68.6884810505 l 1
 259.484288876 16.8496923205 253.446038004 0.977253155451 275.528756967 -1.00955517697 c 2
 338.053740954 -2.00201524026 l 1
 356.965459647 -2.30220125126 l 1
 353.534338991 -20.9024869103 l 1
 334.534338991 -123.90248691 l 1
 331.903503475 -138.164384711 l 1
 317.452494322 -136.94317267 l 1
 246.56929736 -130.953043349 l 2
 197.3054783 -127.516032717 123.799804688 -94.1001184024 123.799804688 31.8865305298 c 2
 119.799804688 313.88653053 l 2
 119.799804688 377.717443053 107.658406977 419 69.7998046875 419 c 2
 59.7998046875 419 l 1
 43.7998046875 419 l 1
 43.7998046875 435 l 1
 43.7998046875 487 l 1
 43.7998046875 503 l 1
 59.7998046875 503 l 1
 69.7998046875 503 l 2
 106.15784414 503 117.799804688 540.488849248 117.799804688 554 c 2
 117.799804688 578 l 2
 117.799804688 622.764744959 116.793911378 715.609297986 111.829466202 797.026198873 c 2
 111.799804688 797.512647699 l 1
 111.799804688 798 l 2
 111.799804688 852.628650124 109.799804688 894.373320539 109.799804688 928 c 0
 109.799804688 1024.06552636 135.422285109 1051 247.799804688 1051 c 2
 321.799804688 1051 l 1
 339.005699296 1051 l 1
 337.757657759 1033.83942887 l 1
EndSplineSet
EndChar

StartChar: bar
Encoding: 124 124 93
Width: 247
Flags: W
LayerCount: 2
Fore
SplineSet
79.5795409002 992.871966588 m 1
 189.5795409 1006.87196659 l 1
 207.67392587 1009.17488831 l 1
 207.599476099 990.934694422 l 1
 202.599476099 -234.065305578 l 1
 202.551979678 -245.701928728 l 1
 191.466725327 -249.241757849 l 1
 72.4667253266 -287.241757849 l 1
 51.3521839185 -293.984216449 l 1
 51.6006144079 -271.820667791 l 1
 65.6006144079 977.179332209 l 1
 65.7567931573 991.112707784 l 1
 79.5795409002 992.871966588 l 1
EndSplineSet
EndChar

StartChar: braceright
Encoding: 125 125 94
Width: 434
Flags: W
LayerCount: 2
Fore
SplineSet
62.400390625 1025 m 1
 151.400390625 1025 l 2
 291.855330852 1025 287.528575806 900.071934612 289.387249116 799.848853941 c 1
 310.339490105 560.394671204 l 1
 310.400390625 559.698665261 l 1
 310.400390625 559 l 2
 310.400390625 501.569025597 305.545426968 510 374.400390625 510 c 2
 386.400390625 510 l 1
 402.400390625 510 l 1
 402.400390625 494 l 1
 402.400390625 428 l 1
 402.400390625 412 l 1
 386.400390625 412 l 1
 374.400390625 412 l 2
 319.028627522 412 308.7369501 393.765046256 301.387042923 351.581048277 c 1
 298.400390625 51.9202677608 l 2
 298.400390625 -84.7500546387 220.027002781 -102.630301438 153.833305573 -112.813947162 c 2
 152.623962129 -113 l 1
 151.400390625 -113 l 1
 62.400390625 -113 l 1
 46.0448784723 -113 l 1
 46.4042534932 -96.6484365466 l 1
 48.4042534932 -5.64843654655 l 1
 48.7436779361 9.79537560412 l 1
 64.1898825311 9.99861513827 l 1
 140.189882531 10.9986151383 l 1
 142.629611907 11.0307168406 l 1
 144.968016011 10.3341709374 l 2
 144.995677685 10.3259312896 146.241299641 10 148.400390625 10 c 0
 159.555587739 10 179.898147758 11.513012218 180.400384535 52.3275782369 c 2
 156.467332414 336.532572171 l 2
 155.39318551 347.274041213 155.400390625 358.058182397 155.400390625 366 c 0
 155.400390625 411.73423077 169.194433253 437.986709854 203.242704338 453.638877503 c 1
 164.124426887 478.404404292 163.400390625 519.047654539 163.400390625 579.805853832 c 2
 158.400390625 785.805853832 l 2
 158.400390625 861.750944363 151.165884888 901.39443174 125.172229373 902.960321323 c 1
 74.2119350698 890.460626494 l 1
 55.9078568872 885.97094694 l 1
 54.4484342729 904.761013099 l 1
 46.4484342729 1007.7610131 l 1
 45.109483834 1025 l 1
 62.400390625 1025 l 1
EndSplineSet
EndChar

StartChar: asciitilde
Encoding: 126 126 95
Width: 676
Flags: W
LayerCount: 2
Fore
SplineSet
175.341814885 349.203222349 m 1
 88.3418148842 335.203222349 l 1
 69.7998046875 332.219450593 l 1
 69.7998046875 351 l 2
 69.7998046875 492.380884887 94.0390225708 527 224.799804688 527 c 0
 432.769660974 527 362.84828192 428 477 428 c 0
 498.273192306 428 505.200195312 429.06692146 505.200195312 492 c 2
 505.200195312 507.312152908 l 1
 520.497577057 507.984565292 l 1
 611.497577057 511.984565292 l 1
 628.200195312 512.718746315 l 1
 628.200195312 496 l 2
 628.200195312 354.13346466 600.696528163 320 470.5 320 c 0
 262.468165427 320 340.938616226 415 228.700195312 415 c 0
 199.039371115 415 188.799804688 420.380479398 188.799804688 365 c 2
 188.799804688 351.36887588 l 1
 175.341814885 349.203222349 l 1
EndSplineSet
EndChar

StartChar: exclamdown
Encoding: 161 161 97
Width: 285
Flags: W
LayerCount: 2
Fore
SplineSet
209.407940496 -195.920595043 m 1
 89.4079404957 -183.920595043 l 1
 75 -182.479800994 l 1
 75 -168 l 1
 75 210 l 1
 75 210.466076481 l 1
 75.0271303894 210.93136266 l 1
 95.0271303894 553.93136266 l 1
 95.8643185222 568.289139137 l 1
 110.229809544 568.981451957 l 1
 193.229809544 572.981451957 l 1
 208.788924016 573.731288799 l 1
 209.955099579 558.197830299 l 1
 234.955099579 225.197830299 l 1
 235.011879615 224.441520224 l 1
 234.996863975 223.683230416 l 1
 226.996863975 -180.316769584 l 1
 226.653727259 -197.64517372 l 1
 209.407940496 -195.920595043 l 1
76.0084538676 646.520050281 m 1
 80.0084538676 769.520050281 l 1
 80.5118668666 785 l 1
 96 785 l 1
 215 785 l 1
 231 785 l 1
 231 769 l 1
 231 650 l 1
 231 634.511866867 l 1
 215.520050281 634.008453868 l 1
 92.5200502807 630.008453868 l 1
 75.4534422234 629.453442223 l 1
 76.0084538676 646.520050281 l 1
EndSplineSet
EndChar

StartChar: cent
Encoding: 162 162 98
Width: 679
Flags: W
LayerCount: 2
Fore
SplineSet
306.369333165 98.8829850811 m 1
 287.707966327 607.137371462 l 1
 217.515919493 601.190160225 196.900390625 574.057417442 196.900390625 348 c 0
 196.900390625 129.743224204 232.540680619 104.758982854 306.369333165 98.8829850811 c 1
480.121884084 498.865445444 m 2
 471.895073822 568.298421925 475.72520824 603.305563014 405.2269674 604.957307453 c 1
 409.460505098 98.8143560231 l 1
 487.86620728 103.337439038 512.869242353 111.084702751 518.05624443 173.328727678 c 2
 519.860056417 194.974471522 l 1
 539.99760337 186.833761051 l 1
 633.99760337 148.833761051 l 1
 647.338546029 143.440614019 l 1
 643.385359724 129.604461954 l 2
 611.300252109 17.3065853007 585.781279716 -13.0709408975 413.619430447 -29.2777847686 c 1
 424.732079966 -74.1541068833 l 1
 429.825786272 -94.7240712794 l 1
 408.647235385 -93.9904081988 l 1
 322.046649448 -90.9904081988 l 1
 306.600585938 -90.4553287877 l 1
 306.600585938 -75 l 1
 306.600585938 -30.8015963918 l 1
 100.623040132 -27.4302727321 65.9013671875 17.2316121305 65.9013671875 348 c 0
 65.9013671875 678.10813755 86.4001672277 728.223600305 287.618186809 731.79461877 c 1
 289.109467426 776.533037284 l 1
 289.650161677 792.753864806 l 1
 305.861628329 791.981890204 l 1
 389.861628329 787.981890204 l 1
 405.100585938 787.256225556 l 1
 405.100585938 772 l 1
 405.100585938 726.690972144 l 1
 591.49455881 718.783677753 604.15625 583.288797024 604.15625 552.448242188 c 0
 604.15625 548.516858525 603.967460294 545.964916805 603.967460294 545.964916805 c 1
 603.382288552 536.938458683 l 1
 595.346452968 532.785782597 l 2
 595.004643343 532.609145751 518.275807886 492.843163985 502.282637997 486.028559012 c 2
 482.634812806 477.656724773 l 1
 480.121884084 498.865445444 l 2
EndSplineSet
EndChar

StartChar: sterling
Encoding: 163 163 99
Width: 665
Flags: W
LayerCount: 2
Fore
SplineSet
133.228148921 536.53288815 m 1
 100.597800874 599.982290896 72.5226655722 650.025897275 71.598342077 749.852834764 c 2
 71.5895110038 750.806590668 l 1
 71.6940509815 751.754641144 l 2
 94.9137237013 962.328837173 171.415343812 984.038085938 264.046875 984.038085938 c 0
 276.633833144 984.038085938 289.384119803 983.778320312 302.262695312 983.778320312 c 0
 314.813117544 983.778320312 327.482318332 984.023992984 340.228952862 984.958178876 c 2
 340.812912083 985.000976562 l 1
 341.3984375 985.000976562 l 2
 345.826864093 985.000976562 353.791364427 986.555234494 363.245194657 985.966774526 c 0
 520.313528449 975.143951445 634.837890625 907.22454359 634.837890625 881.000976562 c 2
 634.837890625 875.260730224 l 1
 631.187558799 870.828170705 l 2
 628.505584305 867.571487391 624.808546325 863.484681264 551.015053486 802.65491014 c 2
 541.847784399 795.098107244 l 1
 531.962687485 801.688171853 l 2
 504.129865413 820.243386568 476.162811426 852.000976562 346.59765625 852.000976562 c 2
 329.881913645 852.000976562 l 2
 243.98445676 850.028602761 214.59765625 853.007455748 214.59765625 751.000976562 c 2
 214.59765625 740.000976562 l 2
 214.59765625 643.97687239 248.599590097 625.613723123 291.243334513 539.789362138 c 1
 317.457366786 541.181538459 368.782479486 541.500976562 418.09375 541.500976562 c 0
 476.117898743 541.500976562 529.960599303 541.000543966 529.987783134 541.000292608 c 2
 542.546900468 540.884163389 l 1
 545.416600468 528.656745996 l 1
 568.416600468 430.656745996 l 1
 573.029689213 411.000976562 l 1
 552.83984375 411.000976562 l 1
 334.071937355 411.000976562 l 1
 335.702168711 397.942876451 336.659179688 386.384315612 336.659179688 372.477539062 c 0
 336.659179688 370.576374514 336.637451822 368.571896506 336.596701611 366.693411151 c 0
 333.910993633 206.44616848 313.277148848 157.588157331 288.680192551 99.3049121377 c 1
 582.638753698 102.99971285 l 1
 595.609900804 103.162748767 l 1
 598.451303783 90.5055900394 l 1
 620.451303783 -7.49440996059 l 1
 624.829890482 -26.9990234375 l 1
 604.83984375 -26.9990234375 l 1
 100.599609375 -26.9990234375 l 1
 76.8601007993 -26.9990234375 l 1
 85.7690111242 -4.99457879015 l 1
 85.7690111242 -4.99457879015 95.7415636427 19.6109434296 105.484946598 43.0009765625 c 1
 104.484946598 43.0009765625 105.123484853 43.0009765625 104.123484853 43.0009765625 c 2
 112.70758548 64.8514145213 l 2
 157.572247924 179.052373469 157.585126681 134.773678298 184.700733392 374.797011773 c 0
 185.138083986 378.668529883 185.334960938 382.478337289 185.334960938 386.23828125 c 0
 185.334960938 394.526228686 184.035028449 404.469122924 182.78551453 411 c 1
 67.599609375 411 l 1
 49.9764749209 411 l 1
 51.6740091581 428.541187118 l 1
 60.6740091581 521.541187118 l 1
 62.0729990349 535.997415844 l 1
 76.5967628372 535.999999747 l 1
 76.5967628372 535.999999747 99.8613777287 536.017005361 133.228148921 536.53288815 c 1
EndSplineSet
EndChar

StartChar: currency
Encoding: 164 164 100
Width: 911
Flags: W
LayerCount: 2
Fore
SplineSet
50.3632014025 373.422911008 m 1
 55.3632014025 429.422911008 l 1
 56.5488892791 442.702615226 l 1
 69.8246333185 443.931850785 l 1
 109.299804688 447.586959245 l 1
 109.299804688 463 l 1
 109.299804688 477 l 1
 75.2998046875 477 l 1
 56.8095284473 477 l 1
 59.4657608997 495.298490227 l 1
 68.4657608997 557.298490227 l 1
 70.3631043853 570.369078684 l 1
 83.5564222979 570.982721377 l 1
 111.847049927 572.298564523 l 1
 124.462750699 866.114180431 249.00724044 946.997454716 529.685728491 951 c 1
 557.682617188 951 l 2
 807.41855373 951 855.134075004 885.023844333 870.869680256 858.348778615 c 1
 922.931366676 853.615898032 l 1
 869.812569637 828.532021652 l 2
 839.891932911 814.402832087 799.987847587 760.682913771 799.987847587 760.682913771 c 1
 786.711838793 742.148570353 l 1
 773.795797963 760.935538834 l 2
 753.864710988 789.926210797 733.096614376 832 557.682617188 832 c 0
 541.651782499 832 525.011396931 832.003477513 507.991368833 831.017423268 c 0
 357.567787993 825.352821232 262.347091404 769.360687009 251.02202219 571.954021174 c 1
 597.558699334 570.99993936 l 1
 619.222915201 570.940293626 l 1
 612.793900955 550.251901167 l 1
 598.188432205 503.251901167 l 1
 594.85516521 492.525538909 l 1
 583.634365899 492.016442669 l 1
 265.858568971 477.598711914 l 1
 263.249673696 468.540047763 262.299804688 465.819327385 262.299804688 463 c 0
 262.299804688 460.925202434 263.9216555 455.126682081 265.766587457 448.720668342 c 1
 585.900448264 441.996471713 l 1
 596.161602192 441.78094307 l 1
 600.244161672 432.364444749 l 1
 621.488302297 383.364444749 l 1
 630.748540189 362.005536205 l 1
 607.489717435 361.01450437 l 1
 248.357850943 345.712306309 l 1
 260.379643633 219.233727155 346.993237139 110 538.740234375 110 c 0
 738.820673165 110 721.769182727 139.220492382 731.021919651 149.629821421 c 2
 738.473515606 158.01286687 l 1
 748.895147932 153.866626052 l 1
 841.895147932 116.866626052 l 1
 880.951491016 101.328080954 l 1
 845.880837459 88.5751160242 l 1
 831.806746567 60.1299613246 788.700388038 -31 533.540039062 -31 c 0
 191.609146418 -31 147.820924262 109.879913849 109.08008265 340.033038401 c 1
 61.0024012791 356.902400286 l 1
 49.2561462481 361.023893279 l 1
 50.3632014025 373.422911008 l 1
EndSplineSet
EndChar

StartChar: yen
Encoding: 165 165 101
Width: 766
Flags: HW
LayerCount: 2
Fore
SplineSet
602.039871764 966.47647399 m 1
 724.039871764 934.47647399 l 1
 744.074145795 929.221582441 l 1
 733.930137843 911.163755223 l 1
 464.289512843 431.163755223 l 2
 458.816402267 421.42081283 464.678190462 391.605752194 464.825569901 380.404914851 c 1
 606.575382573 383.994871215 l 1
 622.98046875 384.410346498 l 1
 622.98046875 368 l 1
 622.98046875 282 l 1
 622.98046875 266 l 1
 606.98046875 266 l 1
 469 284 l 1
 469 242 l 1
 601.666681425 257.996922751 l 1
 616.20791515 258.282156036 l 1
 617.875011724 243.833985728 l 1
 626.875011724 165.833985728 l 1
 628.964411951 147.72585043 l 1
 610.738222267 148.00183396 l 1
 610.738222267 148.00183396 552.0830896 148.880972463 465.162912301 148.990712997 c 1
 466.339376091 -4.87766901681 l 1
 466.471169459 -22.1147760346 l 1
 449.271992393 -20.9643256506 l 1
 329.672383018 -12.9643256506 l 1
 314.739441648 -11.9654634337 l 1
 314.740234397 3.00084750295 l 1
 314.740234397 3.00084750295 314.75261101 69.3307779994 315.816575119 151.009917596 c 1
 228.713913076 151.124877724 174.031804308 151.98846238 173.155539309 152.001873615 c 2
 157.400390625 152.243006157 l 1
 157.400390625 168 l 1
 157.400390625 234 l 1
 157.400390625 249.700288155 l 1
 173.097872182 249.997139825 l 1
 316.040039062 252.700195312 l 1
 316 287 l 1
 173.400390625 266 l 1
 156.512168083 266 l 1
 157.423714253 282.863604128 l 1
 161.423714253 356.863604128 l 1
 162.221096159 371.615169389 l 1
 176.989320086 371.994718535 l 1
 317.040039062 375.594076934 l 1
 317.040039062 433.718409545 l 1
 48.4415349407 913.180131204 l 1
 37.6331741265 932.473594141 l 1
 59.339351946 936.70445931 l 1
 177.339351946 959.70445931 l 1
 188.894528762 961.956739536 l 1
 194.482856531 951.595008493 l 1
 387.990720292 592.797793661 l 1
 583.875897129 958.553877109 l 1
 589.83361925 969.678113994 l 1
 602.039871764 966.47647399 l 1
EndSplineSet
EndChar

StartChar: brokenbar
Encoding: 166 166 102
Width: 247
Flags: W
LayerCount: 2
Fore
SplineSet
101.493212941 473.928891762 m 1
 175.493212941 480.928891762 l 1
 193.131277592 482.597357337 l 1
 192.999557791 464.88104418 l 1
 188.999557791 -73.11895582 l 1
 188.891366841 -87.6706386117 l 1
 174.394671204 -88.9390994799 l 1
 94.3946712045 -95.9390994799 l 1
 76.6721467209 -97.4898203723 l 1
 77.0027632038 -79.7026535911 l 1
 87.0027632038 458.297346409 l 1
 87.268301226 472.583292005 l 1
 101.493212941 473.928891762 l 1
92.632461848 1057.91650302 m 1
 170.632461848 1049.91650302 l 1
 184.888431491 1048.45435229 l 1
 184.999519281 1034.12402728 l 1
 188.999519281 518.124027281 l 1
 189.111732039 503.648581569 l 1
 174.719709488 502.092687239 l 1
 100.719709488 494.092687239 l 1
 83.2657733958 492.205775229 l 1
 83.0018087271 509.759425695 l 1
 75.0018087271 1041.7594257 l 1
 74.7312357871 1059.7525262 l 1
 92.632461848 1057.91650302 l 1
EndSplineSet
EndChar

StartChar: section
Encoding: 167 167 103
Width: 755
Flags: HW
LayerCount: 2
Fore
SplineSet
386.242149591 388.016790772 m 1
 439.686581028 400.981973694 457.870117105 434.913252436 457.870117188 454.099609443 c 0
 457.870117298 479.927191683 428.402877577 511.900390625 390.799804688 511.900390625 c 2
 386.120117188 511.900390625 l 2
 318.582039017 511.900390625 305.009765625 481.101300207 305.009765625 459.5 c 0
 305.009765625 442.278857654 307.096263912 424.493364365 308.482270049 422.006570563 c 0
 322.966018966 404.611266256 356.870841784 388.568560596 386.242149591 388.016790772 c 1
115.082808822 178.171191597 m 2
 264.912730339 127.973628539 304.002651494 110.967129628 462.010233014 108.002623802 c 0
 569.557429448 109.882813124 578.421999677 125.087986243 603.333141694 245.24800721 c 0
 607.206308918 263.930343229 607.349174669 280.149474111 605.047482383 293.627448919 c 0
 598.375287963 332.697688172 573.069695322 347.175899309 552.434774448 343.571365684 c 1
 511.806162212 300.461877405 451.145719719 274 381.440429688 274 c 0
 274.786774527 274 192.593087131 339.202802116 180.207345861 425.042787697 c 1
 69.9132798373 463.179670383 62 525.477906788 62 690 c 0
 62 912.742407364 106.478283303 957 348.940429688 957 c 2
 390.540039062 957 l 2
 450.365910346 957 522.243177364 943.485258884 662.401356521 903.382719551 c 2
 679.414450752 898.514874629 l 1
 672.863102037 882.076470829 l 1
 634.603336412 786.076470829 l 1
 628.212569561 770.040993151 l 1
 612.707465182 777.628494947 l 2
 531.986179409 817.129867259 506.517002562 826 348 826 c 0
 211.749911553 826 196 822.683272217 196 664 c 0
 196 608.998899637 185.092596101 576.59834476 218.97874061 563.274828336 c 1
 258.324921855 603.582375357 316.773748921 626 381.440429688 626 c 0
 482.345974077 626 569.771113433 568.237308283 591.279337258 485.922616205 c 1
 702.046948456 454.993589884 725.510886572 404.958175974 715.704763806 257.935199523 c 0
 700.746005482 33.6588749103 687.846726851 -9.90906087239 410.092978686 -15.0017185408 c 1
 151.198390896 -11.968272029 80.7152305543 41.7857188953 75.362311476 46.0131613116 c 2
 68.1495174511 51.7094311328 l 1
 70.4022638949 61.565196824 l 1
 94.4022638949 166.565196824 l 1
 98.337398641 183.781411338 l 1
 115.082808822 178.171191597 l 2
EndSplineSet
EndChar

StartChar: dieresis
Encoding: 168 168 104
Width: 443
Flags: HWO
LayerCount: 2
Fore
SplineSet
69.8388671875 1044.05175781 m 5
 109.567382812 1041.69238281 148.020507812 1039.33203125 187.749023438 1036.97167969 c 5
 201.721679688 1036.97167969 l 5
 204.803710938 995.372070312 207.875976562 952.940429688 210.966796875 911.342773438 c 5
 159 911.342773438 l 5
 137.786132812 908.940429688 127.55078125 887.264648438 126 899 c 5
 102 899 l 5
 94.3408203125 938.828125 83.2255956766 870.788087228 77.90625 910.921875 c 4
 72.8681640625 948.93359375 72.5283203125 987.560546875 69.8388671875 1025.87988281 c 5
 69.8388671875 1044.05175781 l 5
247.799804688 1033.87890625 m 5
 389.799804688 1033.87890625 l 5
 389.799804688 910.810546875 l 5
 379.9375 875.44140625 373.826938294 899 345 899 c 6
 315 899 l 5
 285 914 l 5
 247.799804688 914 l 5
 247.799804688 1033.87890625 l 5
EndSplineSet
EndChar

StartChar: copyright
Encoding: 169 169 105
Width: 1021
Flags: W
LayerCount: 2
Fore
SplineSet
632.997590729 272.492555256 m 1
 694.997590729 256.494508381 l 1
 712.802187401 251.900334637 l 1
 705.791384652 234.901548214 l 2
 664.87465921 135.692555777 667.022180322 132.721347468 524.081368287 123.038537368 c 0
 513.096278757 122.294402928 502.672748415 121.825724202 492.766194168 121.657812796 c 0
 344.078863856 119.137632913 317.684453027 192.272669091 314.801963022 367.738179996 c 0
 311.277507474 582.290762487 347.088478982 618.696197172 461.220747798 624.975844339 c 0
 487.649126487 626.429719707 510.007088609 626.195511034 528.172869206 625.999066105 c 0
 639.868069282 624.792204381 684.029578056 606.482173787 709.915813208 539.789517799 c 0
 714.03792955 529.169511174 727.303572091 491.925851377 721.906311409 442.271053108 c 2
 720.461500192 428.978789907 l 1
 707.123976922 428.039527705 l 1
 636.123976922 423.039527705 l 1
 620.567219616 421.943981416 l 1
 619.073554497 437.467572627 l 1
 613.973934837 490.467679532 l 2
 611.838508465 512.662627913 539.87024182 507 514.19921875 507 c 2
 496 507 l 2
 489.920475656 507 484.314517944 506.927909151 479.221898561 506.689451545 c 0
 439.175738759 504.814323896 422.439871772 502.002984917 428.781714855 368.760623046 c 0
 430.368587216 335.417889532 432.076348298 308.343785403 434.550226651 286.807529835 c 0
 443.447456856 209.35302475 453.214326822 207.190991288 519.143749657 214.891958176 c 0
 602.192779324 224.592448709 598.571112045 220.078452247 613.960783001 262.460947909 c 2
 618.922197545 276.124471384 l 1
 632.997590729 272.492555256 l 1
190 369.001953125 m 0
 190 199.278829317 331.29697837 58.001953125 516.799804688 58.001953125 c 0
 701.508050263 58.001953125 822 197.831040858 822 369.001953125 c 0
 822 539.166253336 688.361682167 680.001953125 499.900390625 680.001953125 c 0
 315.127067889 680.001953125 190 540.830312787 190 369.001953125 c 0
520.700195312 778.001953125 m 0
 776.938592752 778.001953125 932 594.849110102 932 369.001953125 c 0
 932 143.231103731 777.044698239 -41.998046875 520.700195312 -41.998046875 c 0
 266.664462898 -41.998046875 94 138.160780179 94 365.001953125 c 0
 94 591.615349617 266.343210838 778.001953125 520.700195312 778.001953125 c 0
EndSplineSet
EndChar

StartChar: ordfeminine
Encoding: 170 170 106
Width: 705
Flags: W
LayerCount: 2
Fore
SplineSet
435.088629944 771.074139713 m 1
 416.069052551 772.758526841 384.428353051 775.432072933 358.849309632 776.922717309 c 0
 349.575893483 777.367763885 341.985589483 777.799804688 335.712890625 777.799804688 c 0
 309.254690403 777.799804688 308.433145665 780.426332771 303.755619163 720.019859538 c 0
 303.503910187 713.157480752 303.157226562 712.764583032 303.157226562 711 c 0
 303.157226562 695.088676799 303.157226562 695.049804688 323.426757812 695.049804688 c 0
 335.142878251 695.049804688 348.800769247 696.326442543 366.866333788 698.119379292 c 0
 410.403479805 702.584727602 432.011750788 713.571158251 435.522470065 723.095037626 c 2
 435.088629944 771.074139713 l 1
232.707240686 902.818527487 m 2
 241.177378647 950.14923458 260.712513594 981.700195312 341.5625 981.700195312 c 0
 350.940429723 981.700195312 360.33607752 981.237511918 370.451945397 980.779551092 c 0
 476.464291583 974.839622989 498.996772692 965.873257175 507.091770341 863.024214423 c 0
 511.201564467 812.334110778 512.092773438 753.520082928 512.092773438 708.75 c 0
 512.092773438 666.226550661 511.188468551 635.930919605 511.185391772 635.826872983 c 2
 510.666340204 618.274240538 l 1
 493.237586226 620.419667084 l 2
 464.597587467 623.945163726 461.803260804 622.381722636 452.245607393 626.62828851 c 2
 451.912649121 626.77622537 l 1
 451.58676997 626.939164945 l 2
 447.331064588 629.067017637 442.911337554 635.519179908 442.603116087 636.148411316 c 0
 417.318682844 626.080585757 385.611403673 626.199294654 334.8425001 621.71788751 c 0
 324.627445765 620.735281344 314.623664772 620.75 306.462890625 620.75 c 0
 255.310452618 620.75 228.407226562 647.824467995 228.407226562 717.75 c 0
 228.407226562 829.068074935 252.210696102 848.340574802 330.633637518 850.294839129 c 2
 331.03529853 850.30484834 l 1
 331.436955669 850.294684942 l 2
 383.498009526 848.977349426 416.702972882 847.763125614 432.870245835 847.088174318 c 1
 428.701782346 902.052145056 439.660708867 905.304508272 369.472485001 906.050708828 c 2
 368.998653616 906.055746329 l 1
 368.525950833 906.088816514 l 2
 355.81619099 906.977988573 346.814266821 907.400390623 339.22265625 907.400390625 c 0
 313.300826946 907.400390625 313.845531528 906.633869544 305.837210545 882.760984476 c 2
 300.964715912 868.236029169 l 1
 286.242088879 872.473927687 l 1
 244.031151379 884.624318312 l 1
 230.165521994 888.61553062 l 1
 232.707240686 902.818527487 l 2
EndSplineSet
EndChar

StartChar: guillemotleft
Encoding: 171 171 107
Width: 591
Flags: W
LayerCount: 2
Fore
SplineSet
233.272394784 663.781908841 m 1
 341.172785408 645.781908841 l 1
 364.448601904 641.899024873 l 1
 352.226835673 621.713167159 l 1
 186.902982173 348.659034032 l 1
 364.623205935 96.2103607188 l 1
 378.012507692 77.191076399 l 1
 355.462884837 71.4883501513 l 1
 260.562494213 47.4883501513 l 1
 249.422764605 44.6711487803 l 1
 243.194233211 54.3270068965 l 1
 59.3543894605 339.327006897 l 1
 54.2888948782 347.179852757 l 1
 58.6400454377 355.449913958 l 1
 216.479889188 655.449913958 l 1
 221.86486147 665.684919558 l 1
 233.272394784 663.781908841 l 1
456.61070077 671.315382837 m 1
 542.61070077 645.315382837 l 1
 562.007128807 639.451346454 l 1
 551.804326111 621.943886317 l 1
 392.10443093 347.907463987 l 1
 533.884375942 98.917156358 l 1
 543.758706752 81.5761095283 l 1
 524.685842331 75.7075358604 l 1
 446.685842331 51.7075358604 l 1
 434.78643798 48.0461806755 l 1
 428.313217567 58.6809709034 l 1
 257.273178505 339.680970903 l 1
 252.296820096 347.85658125 l 1
 257.146812807 356.10778227 l 1
 438.186851869 664.10778227 l 1
 444.564152066 674.957362678 l 1
 456.61070077 671.315382837 l 1
EndSplineSet
EndChar

StartChar: logicalnot
Encoding: 172 172 108
Width: 645
Flags: W
LayerCount: 2
Fore
SplineSet
565.993262021 111.084931299 m 1
 449.993262021 123.084931299 l 1
 435.639648438 124.569787876 l 1
 435.639648438 139 l 1
 435.639648438 260.789005235 l 1
 83.0656787098 235.042490681 l 1
 63.9438467559 233.646129727 l 1
 65.9919422221 252.709172142 l 1
 78.9919422221 373.709172142 l 1
 80.5105603884 387.844002767 l 1
 94.7258900985 387.999048396 l 1
 461.276649586 391.996992457 l 1
 577.088252025 395.99049599 l 1
 594.302302905 396.584083951 l 1
 593.62735965 379.373030933 l 1
 589.627032351 277.364739712 l 1
 583.627032351 126.364739712 l 1
 582.950185744 109.330766776 l 1
 565.993262021 111.084931299 l 1
EndSplineSet
EndChar

StartChar: registered
Encoding: 174 174 110
Width: 1069
Flags: W
LayerCount: 2
Fore
SplineSet
213 363 m 0
 213 192.178127089 333.824073308 56 523.599609375 56 c 0
 628.388738517 56 707.331335832 92.4502802965 762.35090764 150.807938282 c 1
 735.985607107 150.007370894 l 1
 637.185802419 147.007370894 l 1
 628.13028188 146.732405151 l 1
 623.235941504 154.356281506 l 1
 523.958492595 309 l 1
 447.299804688 309 l 1
 447.299804688 162 l 1
 447.299804688 145.000945207 l 1
 430.331883722 146.029304054 l 1
 397.091284017 148.043885854 l 1
 363.851232751 151.065708697 l 1
 349.299804688 152.388565793 l 1
 349.299804688 167 l 1
 349.299804688 169 l 1
 349.299804688 589 l 1
 349.299804688 591 l 1
 349.299804688 607 l 1
 365.299804688 607 l 1
 382.299804688 607 l 1
 398.299804688 607 l 1
 431.299804688 607 l 1
 531.400390625 607 l 2
 691.177273364 607 712.200195312 591.277302274 712.200195312 463 c 0
 712.200195312 369.517157604 706.48042956 324.445746292 637.748400161 313.108081974 c 1
 746.65553443 178.043133348 l 1
 747.586553145 176.888498293 l 1
 770.212967879 159.480948573 l 1
 819.304533425 215.801102729 847.715020488 290.520064148 856.999617364 371.879643278 c 1
 855.981510245 540.823666107 697.850244469 678 506.700195312 678 c 0
 318.186037558 678 213 536.38517317 213 363 c 0
447.299804688 385 m 1
 534 385 l 2
 620.991384688 385 614.200195312 378.441792893 614.200195312 463 c 0
 614.200195312 547.782526039 619.036075135 537 567.799804688 537 c 0
 514.364832108 537 484.323464451 534.710276145 447.299804688 532.764377889 c 1
 447.299804688 385 l 1
524.900390625 776 m 0
 799.281266399 776 963 589.496388644 963 363 c 2
 963 362.274893967 l 1
 962.934412361 361.552760309 l 2
 942.57410165 137.381471512 804.165823614 -44 524.900390625 -44 c 0
 265.480601259 -44 107 140.977328694 107 367 c 0
 107 593.098696666 265.58681014 776 524.900390625 776 c 0
EndSplineSet
EndChar

StartChar: macron
Encoding: 175 175 111
Width: 651
Flags: W
LayerCount: 2
Fore
SplineSet
104 1142 m 1
 570.48046875 1142 l 1
 586.48046875 1142 l 1
 586.48046875 1126 l 1
 586.48046875 998 l 1
 586.48046875 981.058508317 l 1
 569.566632056 982.026118114 l 1
 115.086163306 1008.02611811 l 1
 101.678696823 1008.79313486 l 1
 100.109590331 1022.13054004 l 1
 88.1095903308 1124.13054004 l 1
 86.0073009236 1142 l 1
 104 1142 l 1
EndSplineSet
EndChar

StartChar: degree
Encoding: 176 176 112
Width: 397
Flags: W
LayerCount: 2
Fore
SplineSet
65.900390625 808 m 1
 65.900390625 822 l 2
 65.900390625 884.922042407 94.9981985181 981 206.900390625 981 c 0
 343.119366735 981 340.288400614 875.108504732 345.799914429 809.858548533 c 0
 347.077718259 799.997097472 346.900390625 794.173709773 346.900390625 787 c 0
 346.900390625 718.16644009 315.548490713 635 206.900390625 635 c 0
 69.1358723437 635 69.7127033149 750.282567598 65.9358280993 806.935695832 c 2
 65.900390625 807.467257946 l 1
 65.900390625 808 l 1
202.900390625 724 m 0
 251.529012064 724 253.95312211 728.167241677 255.900390625 800.216176746 c 2
 255.900390625 806 l 2
 255.900390625 867.165017016 230.999237094 889 215.900390625 889 c 0
 212.752053253 889 211.960034881 888.821067231 211.960034881 888.821067231 c 1
 211.151807353 888.551658055 l 1
 210.319540686 888.369599722 l 2
 181.312830859 882.024381947 151.900390625 869.351347046 151.900390625 818 c 0
 151.900390625 811.985316771 151.967786899 806.919822839 152.682693406 802.630383797 c 2
 152.761986314 802.154626351 l 1
 152.812477872 801.674956552 l 2
 160.992888894 723.961051843 155.043004556 724 202.900390625 724 c 0
EndSplineSet
EndChar

StartChar: plusminus
Encoding: 177 177 113
Width: 794
Flags: W
LayerCount: 2
Fore
SplineSet
201.900390625 25 m 1
 201.900390625 76 l 1
 201.900390625 90.9409538271 l 1
 216.806377143 91.9625541346 l 1
 566.986064643 115.962554135 l 1
 584.080078125 117.134113589 l 1
 584.080078125 100 l 1
 584.080078125 19 l 1
 584.080078125 2.72350659386 l 1
 567.805973387 3.00234809128 l 1
 217.626285887 9.00234809128 l 1
 201.900390625 9.27179653429 l 1
 201.900390625 25 l 1
330.753844654 366.497185817 m 1
 68.3816313391 375.008411936 l 1
 52.900390625 375.510615804 l 1
 52.900390625 391 l 1
 52.900390625 449 l 1
 52.900390625 464.541050928 l 1
 68.4348620191 464.993226164 l 1
 327.222822267 472.525990168 l 1
 319.949014956 694.475924741 l 1
 319.407483193 711 l 1
 335.940429688 711 l 1
 429.5859375 711 l 1
 446.189945281 711 l 1
 445.574958974 694.40738519 l 1
 437.450702648 475.211194422 l 1
 737.177713464 478.998722685 l 1
 753.379882812 479.203462906 l 1
 753.379882812 463 l 1
 753.379882812 371 l 1
 753.379882812 354.595052074 l 1
 736.980057749 355.004996408 l 1
 434.397090664 362.568624208 l 1
 448.108542926 142.997200504 l 1
 449.169957473 126 l 1
 432.139648438 126 l 1
 352.83984375 126 l 1
 337.267310103 126 l 1
 336.845708579 141.566825506 l 1
 330.753844654 366.497185817 l 1
EndSplineSet
EndChar

StartChar: Superscripttwo
Encoding: 178 178 114
Width: 352
Flags: W
LayerCount: 2
Fore
SplineSet
64.599609375 608 m 1
 64.599609375 634 l 2
 64.599609375 729.048173346 77.6281122127 726.581942028 138.703408173 767.298806001 c 0
 212.174191048 816.614810945 215.599609375 823.816741855 215.599609375 858 c 0
 215.599609375 918.914835064 216.245568463 914 183.599609375 914 c 0
 145.896676811 914 150.599609375 917.798541602 150.599609375 885 c 0
 150.599609375 875.310289164 159.528051568 840 131.599609375 840 c 2
 124.972192377 840 l 1
 120.420644395 844.551547982 l 1
 75.1865080307 864.341482642 l 1
 65.599609375 868.535750803 l 1
 65.599609375 879 l 1
 65.599609375 885 l 2
 65.599609375 963.3580891 92.4185949775 983 182.599609375 983 c 0
 275.943077864 983 299.599609375 956.229790711 299.599609375 852.846168067 c 0
 298.514661573 796.428882363 283.516108637 773.386945589 221.572360385 731.752622994 c 0
 161.345901193 690.645674656 157.77140979 698.238604807 155.271295728 666.752950895 c 1
 272.838388751 664.998218164 l 1
 283.352118317 664.841296827 l 1
 287.379483192 655.128240363 l 1
 304.379483192 614.128240363 l 1
 313.554607245 592 l 1
 289.599609375 592 l 1
 138.599609375 592 l 1
 80.599609375 592 l 1
 64.599609375 592 l 1
 64.599609375 608 l 1
EndSplineSet
EndChar

StartChar: Superscriptthree
Encoding: 179 179 115
Width: 371
Flags: W
LayerCount: 2
Fore
SplineSet
78.887520314 731.975365651 m 1
 132.887520314 728.975365651 l 1
 146.711318677 728.207376853 l 1
 147.937162251 714.416636645 l 2
 151.462380223 674.757934466 148.543889142 677 192 677 c 0
 234.557254126 677 233 674.113350217 233 725 c 0
 233 768.070621702 230.070434277 769.927133474 213.230031012 773.040328174 c 0
 205.892669852 774.396746635 195.147782058 775 181 775 c 2
 154 775 l 1
 138 775 l 1
 138 791 l 1
 138 811.529818145 l 1
 137.027610029 828.060447649 l 1
 136.031165773 845 l 1
 153 845 l 1
 172 845 l 1
 184 845 l 2
 223.088177818 845 221.575638808 842.83087202 227.093288141 889.730891345 c 0
 228.098368121 899.781691145 229 906.686578232 229 912 c 0
 229 928.065948422 232.109481753 930 183 930 c 0
 141.663462036 930 148.867785445 931.267449021 146.894542974 914.166014272 c 2
 145.196873752 899.452881013 l 1
 130.396655842 900.011379802 l 1
 77.3966558416 902.011379802 l 1
 59.7351177368 902.677852938 l 1
 62.1500619321 920.186198354 l 2
 71.2114401028 985.881190092 98.439686628 1001 185 1001 c 0
 268.606809825 1001 312 989.401036104 312 926 c 0
 312 914.047642683 309.760193464 901.217686015 307.842825463 888.754794008 c 0
 303.522857535 855.429327132 298.554241015 832.594687735 279.531221189 816.764498352 c 1
 315.032410438 800.161083866 321 769.862498981 321 724 c 0
 321 627.090872688 294.524138126 603 192 603 c 0
 95.895035737 603 69.5199946161 625.094551346 62.0552678681 714.671272322 c 2
 60.5282635315 732.995324361 l 1
 78.887520314 731.975365651 l 1
EndSplineSet
EndChar

StartChar: acute
Encoding: 180 180 116
Width: 294
Flags: W
LayerCount: 2
Fore
SplineSet
134.483785878 937.44327227 m 1
 241.483785878 886.44327227 l 1
 255.836341999 879.602334306 l 1
 249.085969286 865.206961172 l 1
 166.085969286 688.206961172 l 1
 159.472653111 674.103865232 l 1
 145.197343865 680.336746734 l 1
 74.1973438646 711.336746734 l 1
 61.9300721657 716.692879448 l 1
 65.0364068697 729.713048313 l 1
 112.03640687 926.713048313 l 1
 116.626995716 945.954452628 l 1
 134.483785878 937.44327227 l 1
EndSplineSet
EndChar

StartChar: mu
Encoding: 181 181 117
Width: 638
Flags: W
LayerCount: 2
Fore
SplineSet
444 210 m 2
 444 693 l 1
 444 706.804259631 l 1
 457.655221423 708.827255398 l 1
 565.655221423 724.827255398 l 1
 584 727.545000372 l 1
 584 709 l 1
 584 -15 l 1
 584 -27.7938803119 l 1
 571.519477107 -30.6081158662 l 1
 469.519477107 -53.6081158662 l 1
 450 -58.0095665864 l 1
 450 -38 l 1
 450 -8.17691517638 l 1
 421.94082098 -26.258009236 386.474242369 -31 315.700195312 -31 c 0
 262.515142798 -31 230.867070969 -24.0655013435 209.608765105 -14.8833869419 c 1
 214.992224564 -187.501248063 l 1
 215.345695174 -198.835101526 l 1
 204.769100367 -202.923722088 l 1
 106.469295679 -240.923722088 l 1
 84.97475618 -249.232919686 l 1
 84.7013216533 -226.189846397 l 1
 73.7013216538 700.810153603 l 1
 73.4789198277 719.552562045 l 1
 92.0239179525 716.830360485 l 1
 201.023917952 700.830360485 l 1
 214.700195312 698.822833533 l 1
 214.700195312 685 l 1
 214.700195312 198 l 2
 214.700195312 103.190742988 231.223595771 104 318.299804688 104 c 0
 410.296860297 104 444 115.867390105 444 210 c 2
EndSplineSet
EndChar

StartChar: paragraph
Encoding: 182 182 118
Width: 689
Flags: W
LayerCount: 2
Fore
SplineSet
78.4620437816 481.771563674 m 0
 62.5128924964 520.049526759 54.2001953125 562.979524883 54.2001953125 608 c 0
 54.2001953125 760.44961386 141.834861236 942 281.141372578 942 c 2
 417.141372578 943 l 1
 433.113429692 943 l 1
 617.426083238 944.999058994 l 1
 629.38889434 945.128807899 l 1
 632.896476706 933.691039315 l 1
 655.896476706 858.691039315 l 1
 662.812695022 836.138153503 l 1
 639.300976522 838.05278856 l 1
 639.300976522 838.05278856 628.024317998 839 614.599609375 839 c 0
 612.238775051 839 608.628094249 838.983420389 606.749443525 838.957328018 c 0
 608.803053568 624.77364864 612.597702774 -21.6284457668 612.599333311 -21.9060107077 c 2
 612.698187835 -38.7339392454 l 1
 595.886682683 -37.9841088438 l 1
 506.205042058 -33.9841088438 l 1
 490.87148152 -33.3001980487 l 1
 490.918042368 -17.9514637414 l 1
 493.545845061 848.300919012 l 1
 477.692659155 846.702671534 461.102600156 845.073381882 450.319458014 844.156161276 c 1
 457.199683337 -15.8720040958 l 1
 457.332718087 -32.5013478588 l 1
 440.710628729 -31.9925083886 l 1
 342.710628729 -28.9925083886 l 1
 326.781672219 -28.504887271 l 1
 327.205864368 -12.5741154482 l 1
 335.794182572 309.96494598 l 1
 318.232274346 311.029304054 l 1
 316.769050583 311.117984282 l 1
 315.346301584 311.471075274 l 2
 175.232555477 346.243829783 110.619782393 406.736840247 78.4620437816 481.771563674 c 0
EndSplineSet
EndChar

StartChar: periodcentered
Encoding: 183 183 119
Width: 276
Flags: W
LayerCount: 2
Fore
SplineSet
73.7507030478 290.270313543 m 1
 82.7507030478 403.270313543 l 1
 83.8612931533 417.214389312 l 1
 97.8287634219 417.976251327 l 1
 207.828763421 423.976251327 l 1
 225.236936782 424.925788056 l 1
 224.692388529 407.500243962 l 1
 220.692388529 279.500243962 l 1
 220.168646601 262.740502238 l 1
 203.451838508 264.048774176 l 1
 88.4518385089 273.048774176 l 1
 72.4786396283 274.29885061 l 1
 73.7507030478 290.270313543 l 1
EndSplineSet
EndChar

StartChar: cedilla
Encoding: 184 184 120
Width: 671
Flags: W
LayerCount: 2
Fore
SplineSet
360.299804688 16 m 1
 380.299804688 16 l 1
 401.683376591 16 l 1
 395.649652713 -4.51466118386 l 1
 387.271611885 -33 l 1
 468.659025547 -33 488.299804688 -44.116178185 488.299804688 -136 c 0
 488.299804688 -223.380164144 472.088119698 -264 377.299804688 -264 c 0
 313.370512844 -264 290.682612548 -249.653890136 272.151440771 -195.150443732 c 2
 266.643066782 -178.949343765 l 1
 283.177202279 -174.540240966 l 1
 328.177202279 -162.540240966 l 1
 342.465900601 -158.729921414 l 1
 347.387650025 -172.674878116 l 2
 349.057950366 -177.407395748 351.125249442 -182.163505326 351.555406204 -183.046303925 c 0
 356.250099654 -181.627967536 364.150438481 -179 374.299804688 -179 c 0
 403.236575476 -179 399.299804688 -184.526592967 399.299804688 -150 c 0
 399.299804688 -113.292249526 403.251902263 -120 377.299804688 -120 c 0
 368.549599028 -120 363.14509788 -120.547675217 361.269166138 -120.954914707 c 0
 360.904975512 -121.812935459 360.778781129 -122.159513238 360.478737457 -123.059644256 c 2
 360.119159611 -124.138377795 l 1
 359.610639744 -125.155417528 l 1
 358.610639744 -127.155417528 l 1
 351.046665216 -142.283366584 l 1
 336.361581674 -133.891890274 l 1
 301.361581674 -113.891890274 l 1
 290.319998708 -107.582414293 l 1
 293.974788892 -95.4017513283 l 1
 293.974788892 -95.4017513283 311.75470846 16 340.299804688 16 c 2
 360.299804688 16 l 1
EndSplineSet
EndChar

StartChar: Superscriptone
Encoding: 185 185 121
Width: 270
Flags: W
LayerCount: 2
Fore
SplineSet
193.968601494 505.073455534 m 1
 141.968601494 510.073455534 l 1
 127.5 511.464667216 l 1
 127.5 526 l 1
 127.5 528 l 1
 127.5 769.123759754 l 1
 73.2669044172 763.097860245 l 1
 54.3434840822 760.995257986 l 1
 55.5311587443 779.998052578 l 1
 57.5311587443 811.998052578 l 1
 58.1805472025 822.388267911 l 1
 67.9429703068 826.003980172 l 1
 148.942970307 856.003980172 l 1
 151.821462895 857.070088538 l 1
 154.890127879 856.99524305 l 1
 195.890127879 855.99524305 l 1
 211.5 855.614514462 l 1
 211.5 840 l 1
 211.5 523 l 1
 211.5 522 l 1
 211.5 521 l 1
 211.5 503.38774414 l 1
 193.968601494 505.073455534 l 1
EndSplineSet
EndChar

StartChar: ordmasculine
Encoding: 186 186 122
Width: 407
Flags: W
LayerCount: 2
Fore
SplineSet
74.2998046875 748 m 1
 74.2998046875 762 l 2
 74.2998046875 824.718467785 102.288991835 921 214.299804688 921 c 0
 350.515502494 921 347.698104971 814.986679536 353.185865844 750.017930737 c 0
 354.582694558 738.040124506 353.299804688 732.930575887 353.299804688 727 c 0
 353.299804688 676.099916993 336.66663058 617.09102097 283.701450363 590 c 1
 340.299804688 590 l 1
 356.299804688 590 l 1
 356.299804688 574 l 1
 356.299804688 539 l 1
 356.299804688 523.777100123 l 1
 341.09575284 523.019810184 l 1
 80.0957528392 510.019810184 l 1
 63.2998046875 509.183230391 l 1
 63.2998046875 526 l 1
 63.2998046875 574 l 1
 63.2998046875 590 l 1
 79.2998046875 590 l 1
 141.858030001 590 l 1
 76.9154762888 623.102730899 77.2674545652 702.95250978 74.3352421618 746.935695832 c 2
 74.2998046875 747.467257946 l 1
 74.2998046875 748 l 1
211.299804688 664 m 0
 259.746733284 664 261.343715879 667.840890808 263.299804688 740.216176746 c 2
 263.299804688 746 l 2
 263.299804688 807.165017016 238.398651157 829 223.299804688 829 c 0
 220.151467316 829 219.359448944 828.821067231 219.359448944 828.821067231 c 1
 218.551221416 828.551658055 l 1
 217.718954749 828.369599722 l 2
 188.712244922 822.024381947 159.299804688 809.351347046 159.299804688 758 c 0
 159.299804688 751.985316771 159.367200962 746.919822839 160.082107469 742.630383797 c 2
 160.161400377 742.154626351 l 1
 160.211891935 741.674956552 l 2
 168.353103308 664.333448504 163.271606474 664 211.299804688 664 c 0
EndSplineSet
EndChar

StartChar: guillemotright
Encoding: 187 187 123
Width: 601
Flags: W
LayerCount: 2
Fore
SplineSet
274.197092394 645.879883712 m 1
 404.036936144 629.879883712 l 1
 412.438410681 628.844580613 l 1
 416.30926926 621.316428066 l 1
 561.30926926 339.316428066 l 1
 565.272387588 331.608846214 l 1
 560.98164275 324.0787311 l 1
 409.98164275 59.0787311005 l 1
 406.077506462 52.227101191 l 1
 398.265536218 51.1499598447 l 1
 282.225497155 35.1499598447 l 1
 250.394667591 30.7610155016 l 1
 266.074334261 58.8076302044 l 1
 427.528204539 347.604234584 l 1
 258.620202565 621.60388581 l 1
 241.14433758 649.952932952 l 1
 274.197092394 645.879883712 l 1
74.6416709057 645.990815154 m 1
 192.641670906 641.990815154 l 1
 201.848327777 641.678725091 l 1
 206.200934669 633.559935513 l 1
 355.240973732 355.559935513 l 1
 359.24406127 348.093094101 l 1
 355.317973381 340.585480339 l 1
 206.277934318 55.585480339 l 1
 201.614698531 46.6682644835 l 1
 191.557547844 47.0091848458 l 1
 73.5575478443 51.0091848458 l 1
 45.9067782728 51.9464990685 l 1
 60.5099760178 75.4452273633 l 1
 227.485282564 344.133457776 l 1
 60.3911680126 621.749022154 l 1
 45.1995588123 646.988852852 l 1
 74.6416709057 645.990815154 l 1
EndSplineSet
EndChar

StartChar: onequarter
Encoding: 188 188 124
Width: 857
Flags: W
LayerCount: 2
Fore
SplineSet
206.223526155 9.35778177957 m 1
 539.923721467 948.35778178 l 1
 545.04625065 962.772082312 l 1
 559.675888603 958.301505343 l 1
 654.576279228 929.301505343 l 1
 671.039510354 924.27061243 l 1
 664.819453019 908.218860209 l 1
 302.119257706 -27.7811397908 l 1
 296.302735073 -42.7915126967 l 1
 281.32813205 -36.8835101051 l 1
 215.427741426 -10.8835101051 l 1
 201.046580604 -5.20964113663 l 1
 206.223526155 9.35778177957 l 1
199.299804688 458.480167562 m 1
 183.66734284 460.083496982 l 1
 169.299804688 461.557090639 l 1
 169.299804688 476 l 1
 169.299804688 478 l 1
 169.299804688 782.09906835 l 1
 107.088521057 775.100298941 l 1
 88.3553343496 772.992815437 l 1
 89.3208020724 791.819436032 l 1
 91.3208020724 830.819436032 l 1
 91.8368261758 840.881906048 l 1
 101.134439949 844.764426086 l 1
 192.134439949 882.764426086 l 1
 195.260587211 884.069850217 l 1
 198.647548615 883.996220621 l 1
 244.647548615 882.996220621 l 1
 260.299804688 882.655954185 l 1
 260.299804688 867 l 1
 260.299804688 472 l 1
 260.299804688 470 l 1
 260.299804688 454 l 1
 244.299804688 454 l 1
 215.299804688 454 l 1
 199.299804688 454 l 1
 199.299804688 458.480167562 l 1
717.616831957 452.937162251 m 1
 762.616831957 448.937162251 l 1
 777.200195312 447.640863286 l 1
 777.200195312 433 l 1
 777.200195312 431.88854382 l 1
 790.210835857 425.383223547 l 1
 777.200195312 412.372583002 l 1
 777.200195312 208.438772258 l 1
 817.7712598 206.98980567 l 1
 833.200195312 206.438772258 l 1
 833.200195312 191 l 1
 833.200195312 144 l 1
 833.200195312 127.711734897 l 1
 816.914526569 128.00255041 l 1
 777.200195312 128.711734897 l 1
 777.200195312 43 l 1
 777.200195312 29.5626539832 l 1
 763.96498696 27.2406876057 l 1
 706.96498696 17.2406876057 l 1
 688.366441286 13.9777848558 l 1
 688.200810851 32.8596545223 l 1
 687.337190174 131.312411601 l 1
 552.241254969 134 l 1
 493.900390625 134 l 1
 477.900390625 134 l 1
 477.900390625 150 l 1
 477.900390625 191 l 1
 477.900390625 197.23169085 l 1
 482.115261332 201.821770999 l 1
 700.388485484 439.525763079 l 1
 703.324845085 454.207561084 l 1
 717.616831957 452.937162251 l 1
608.081802481 212.177485876 m 1
 687.200195312 210.36975144 l 1
 687.200195312 296.498799998 l 1
 608.081802481 212.177485876 l 1
EndSplineSet
EndChar

StartChar: onehalf
Encoding: 189 189 125
Width: 821
Flags: W
LayerCount: 2
Fore
SplineSet
156.89972698 440 m 2
 153 440 l 1
 137.013938328 440 l 1
 137.000006076 455.986055601 l 1
 136.715786646 782.103318445 l 1
 65.4867064354 774.100051006 l 1
 46.33656841 771.948350104 l 1
 47.742855735 791.167610213 l 1
 50.742855735 832.167610213 l 1
 51.4685106669 842.084894282 l 1
 60.6820999488 845.825064189 l 1
 161.682099948 886.825064189 l 1
 164.730641029 888.062590766 l 1
 168.020131331 887.99680096 l 1
 218.020131331 886.99680096 l 1
 233.688950709 886.683424572 l 1
 233.700191197 871.011475775 l 1
 233.999995885 453.011475775 l 1
 234.011238608 437.33640997 l 1
 218.339702107 437.003606579 l 2
 218.307130212 437.002914877 213.262798913 436.888671875 206.037109375 436.888671875 c 0
 192.306578314 436.888671875 170.484221785 436.893921955 156.89972698 440 c 2
521.106435121 277.263822501 m 1
 521.106435121 277.263822501 448 276.365760652 448 308 c 0
 448 321.233086273 447.696140623 333.315742957 447.693334112 344.500721868 c 0
 447.677020274 409.517361815 468.249757984 441 579.700195312 441 c 0
 714.976559475 441 743.599609375 412.892826163 743.599609375 289.870976133 c 0
 742.523704897 223.164898474 723.741904599 197.968867367 651.451208581 149.104326106 c 1
 589.734175196 99.832282591 587.252653602 110.235080358 584.700095445 66.618049572 c 1
 740.372207882 62.9956700795 l 1
 751.102875294 62.7459750702 l 1
 754.941708027 52.7223562657 l 1
 772.941708027 5.72235626571 l 1
 781.260908299 -16 l 1
 758 -16 l 1
 568.099609375 -16 l 1
 494.099609375 -16 l 1
 478.163232374 -16 l 1
 478.099736375 -0.0637494939826 l 1
 478 24.9681251265 l 2
 478 143.595444531 490.916548015 136.259562113 568.191492838 186.016508623 c 1
 641.651350609 244.415116349 645.599609375 252.582446111 645.599609375 295 c 0
 645.599609375 365.787382159 644.999739551 366 582.299804688 366 c 0
 567.78440999 366 557.771147933 364.539587999 551.413269171 362.731121567 c 0
 535.948298756 358.332189012 541.531636047 356.708854313 541.531636047 356.708854313 c 1
 543.197727371 353.336058603 l 1
 542.977885269 349.15905867 l 1
 539.977885269 292.15905867 l 1
 539.020554713 273.969778106 l 1
 521.106435121 277.263822501 l 1
197.453360509 -0.65412247498 m 1
 398.254141759 938.345877525 l 1
 402.181835593 956.712860399 l 1
 419.690910401 949.915424256 l 1
 494.390129151 920.915424256 l 1
 507.351448732 915.883534041 l 1
 504.177008034 902.346966874 l 1
 284.677008034 -33.6530331257 l 1
 280.189405634 -52.7892328808 l 1
 262.361828472 -44.512143484 l 1
 206.361828472 -18.512143484 l 1
 194.784013132 -13.1367292193 l 1
 197.453360509 -0.65412247498 l 1
EndSplineSet
EndChar

StartChar: threequarters
Encoding: 190 190 126
Width: 850
Flags: W
LayerCount: 2
Fore
SplineSet
68.1917959432 633.98903734 m 1
 122.191795943 631.98903734 l 1
 136.582935962 631.456032154 l 1
 137.562548458 617.08838221 l 2
 140.174579476 578.778593947 136.991334236 581 180.599609375 581 c 0
 226.521351772 581 225.040039062 578.084519863 225.040039062 628 c 0
 225.040039062 670.422548959 222.057352209 671.832617243 199.335199825 674.681853489 c 0
 191.810564509 675.625402468 181.894384459 676 169.599609375 676 c 2
 142.599609375 676 l 1
 126.599609375 676 l 1
 126.599609375 692 l 1
 126.599609375 712.529818145 l 1
 125.627219404 729.060447649 l 1
 124.630775148 746 l 1
 141.599609375 746 l 1
 158.599609375 746 l 1
 172.599609375 746 l 2
 212.092339163 746 210.287978618 744.590296804 218.74483258 789.572544248 c 0
 220.340249905 800.4311021 221.139648438 804.664741216 221.139648438 810 c 0
 221.139648438 826.046563345 221.139648438 829 171.599609375 829 c 0
 130.263071411 829 137.46739482 830.267449021 135.494152349 813.166014272 c 2
 133.795248847 798.44218392 l 1
 118.984679421 799.011821206 l 1
 66.9846794214 801.011821206 l 1
 49.5980708043 801.680536922 l 1
 51.7189140906 818.950260824 l 2
 59.7011175734 883.948203471 87.1624697722 899 173.599609375 899 c 0
 265.076288585 899 316.83984375 890.503323344 316.83984375 826 c 0
 316.83984375 814.766528597 315.345385654 801.442507904 312.672664222 788.076892695 c 0
 307.218718246 756.314197556 299.849057047 732.815536927 278.763232231 718.106413462 c 1
 320.593423425 702.980767459 331.139648438 672.707668561 331.139648438 626 c 0
 331.139648438 528.763288919 296.812515148 507 180.599609375 507 c 0
 84.523150213 507 59.128084908 529.12759945 51.6575912985 616.639096018 c 2
 50.1193591542 634.658386851 l 1
 68.1917959432 633.98903734 l 1
184.524548167 33.3612059822 m 1
 518.464977854 972.361205982 l 1
 523.589615595 986.771065977 l 1
 538.215927665 982.301505343 l 1
 633.116318291 953.301505343 l 1
 649.579549417 948.27061243 l 1
 643.359492082 932.218860209 l 1
 280.659296769 -3.78113979084 l 1
 274.849985807 -18.7729019437 l 1
 259.886640259 -12.89078359 l 1
 193.746015259 13.10921641 l 1
 179.336680817 18.7735519904 l 1
 184.524548167 33.3612059822 l 1
691.791098987 452.951014045 m 1
 742.791098987 448.951014045 l 1
 757.540039062 447.794234431 l 1
 757.540039062 433 l 1
 757.540039062 431.88854382 l 1
 766.906516074 427.205305314 l 1
 757.540039062 413.155589796 l 1
 757.540039062 202.739854733 l 1
 802.802298906 201.997850474 l 1
 818.540039062 201.739854733 l 1
 818.540039062 186 l 1
 818.540039062 138 l 1
 818.540039062 121.735555103 l 1
 802.277779218 122.002149526 l 1
 757.540039062 122.735555103 l 1
 757.540039062 35 l 1
 757.540039062 21.3058652593 l 1
 744.010069146 19.19180746 l 1
 680.010069146 9.19180745998 l 1
 661.540039062 6.3058652593 l 1
 661.540039062 25 l 1
 661.540039062 125.377749867 l 1
 510.074093615 128.996999377 l 1
 446.691579216 128.001971249 l 1
 430.440429688 127.746848033 l 1
 430.440429688 144 l 1
 430.440429688 186 l 1
 430.440429688 192.591103544 l 1
 435.082936988 197.269754193 l 1
 674.540039062 438.591103544 l 1
 674.540039062 454.304038353 l 1
 691.791098987 452.951014045 l 1
570.243500827 207.95269301 m 1
 660.540039062 205.44966708 l 1
 660.540039062 296.820018025 l 1
 570.243500827 207.95269301 l 1
EndSplineSet
EndChar

StartChar: questiondown
Encoding: 191 191 127
Width: 696
Flags: W
LayerCount: 2
Fore
SplineSet
424.711074152 693.973095806 m 1
 403.711074152 584.973095806 l 1
 401.428575317 573.125839948 l 1
 389.410417157 572.062286129 l 1
 276.410417157 562.062286129 l 1
 260.421619258 560.647348262 l 1
 259.057854269 576.640592225 l 1
 248.057854269 705.640592225 l 1
 246.471271366 724.246882641 l 1
 265.100833466 722.962085255 l 1
 410.100833466 712.962085255 l 1
 428.1299516 711.718697797 l 1
 424.711074152 693.973095806 l 1
664.782481935 3.64637977676 m 2
 646.359549351 -213.334826205 600.604844387 -261.000976562 364.900390625 -261.000976562 c 2
 354.456989558 -261.000976562 l 2
 165.734080584 -259.986337266 55.5 -221.000871598 55.5 0.9990234375 c 2
 55.5 9.9990234375 l 1
 55.5 48.9990234375 l 2
 55.5 144.792247655 73.780844515 155.126227758 188.024047905 235.106209206 c 2
 188.734911952 235.603874639 l 1
 189.495429529 236.021740159 l 2
 251.380833601 270.024605171 268.081028602 290.662466145 269.240234375 344.172310401 c 2
 269.240234375 364.999023438 l 2
 269.240234375 395.567132961 267.940429688 435.750046333 267.940429688 488.999023438 c 2
 267.940429688 504.999023438 l 1
 283.940429688 504.999023438 l 1
 389.240234375 504.999023438 l 1
 405.240234375 504.999023438 l 1
 405.240234375 488.999023438 l 1
 405.240234375 466.999023438 l 2
 405.240234375 403.148035964 422.965865443 353.434114934 423.968821294 313.797141907 c 1
 429.946213673 296.233834113 431.861328125 281.500035962 431.861328125 269.203125 c 0
 431.861328125 251.849136798 428.663085938 239.694193402 428.663085938 233.516601562 c 0
 428.663085938 184.245503004 380.047094173 177.506784838 304.889263537 136.914533538 c 0
 195.39010717 78.0546117815 201.5 88.5898705398 201.5 25 c 2
 201.5 10 l 2
 201.5 -124.683164236 274.60702193 -132.125963385 356.652244064 -143.145415632 c 0
 378.26029261 -146.078686738 399.911931217 -148 415.599609375 -148 c 0
 500.552460968 -148 515.840302772 -109.279886964 527.903617254 25.4271247608 c 2
 529.464862261 42.8610273357 l 1
 546.688814523 39.7443121646 l 1
 651.688814523 20.7443121646 l 1
 666.01410117 18.1521174379 l 1
 664.782481935 3.64637977676 l 2
EndSplineSet
EndChar

StartChar: Agrave
Encoding: 192 192 128
Width: 979
Flags: HW
LayerCount: 2
Fore
SplineSet
423.527140833 975 m 1
 418.460404415 980.521484375 l 1
 280.810618312 1130.52148438 l 1
 250.499126201 1163.55273438 l 1
 296.227973411 1156.80859375 l 1
 479.302602539 1129.80859375 l 1
 486.376386995 1128.76464844 l 1
 490.514566412 1123.24609375 l 1
 582.73950949 1000.24609375 l 1
 601.668423135 975 l 1
 568.913523237 975 l 1
 431.263737134 975 l 1
 423.527140833 975 l 1
59.7998046875 10.8759765625 m 1
 65.548828125 26.7294921875 l 1
 398.757003918 917.2890625 l 1
 402.753521521 928.06640625 l 1
 414.845443085 928 l 1
 595.166456075 927 l 1
 607.172553329 926.93359375 l 1
 611.084280649 916.212890625 l 1
 938.756835938 25.693359375 l 1
 944.005859375 10.9814453125 l 1
 928.73828125 5.837890625 l 1
 836.73828125 -25.162109375 l 1
 821.647460938 -30.2470703125 l 1
 816.491210938 -15.1806640625 l 1
 742.710854582 192.780273438 l 1
 267.614355014 184.22265625 l 1
 203.92578125 -10.7568359375 l 1
 199.392578125 -25.314453125 l 1
 184.633789062 -21.48828125 l 1
 76.6337890625 6.51171875 l 1
 59.7998046875 10.8759765625 l 1
506.631958359 735.984375 m 1
 331.834722092 295.057617188 l 1
 705.706100261 295.939453125 l 1
 506.631958359 735.984375 l 1
EndSplineSet
EndChar

StartChar: Aacute
Encoding: 193 193 129
Width: 979
Flags: HW
LayerCount: 2
Fore
SplineSet
379.877723609 955.28515625 m 1
 400.77646029 984.051757812 l 1
 505.390090923 1128.05175781 l 1
 509.697850905 1133.98144531 l 1
 517.252458307 1134.87597656 l 1
 703.079669546 1156.87597656 l 1
 746.615343707 1162.03027344 l 1
 718.044120451 1130.58105469 l 1
 581.770625404 980.581054688 l 1
 577.414266112 975.786132812 l 1
 570.763399043 975.095703125 l 1
 416.596052219 959.095703125 l 1
 379.877723609 955.28515625 l 1
59.7998046875 10.8759765625 m 1
 65.548828125 26.7294921875 l 1
 398.757003918 917.2890625 l 1
 402.753521521 928.06640625 l 1
 414.845443085 928 l 1
 595.166456075 927 l 1
 607.172553329 926.93359375 l 1
 611.084280649 916.212890625 l 1
 938.756835938 25.693359375 l 1
 944.005859375 10.9814453125 l 1
 928.73828125 5.837890625 l 1
 836.73828125 -25.162109375 l 1
 821.647460938 -30.2470703125 l 1
 816.491210938 -15.1806640625 l 1
 742.710854582 192.780273438 l 1
 267.614355014 184.22265625 l 1
 203.92578125 -10.7568359375 l 1
 199.392578125 -25.314453125 l 1
 184.633789062 -21.48828125 l 1
 76.6337890625 6.51171875 l 1
 59.7998046875 10.8759765625 l 1
506.631958359 735.984375 m 1
 331.834722092 295.057617188 l 1
 705.706100261 295.939453125 l 1
 506.631958359 735.984375 l 1
EndSplineSet
EndChar

StartChar: Acircumflex
Encoding: 194 194 130
Width: 979
Flags: HW
LayerCount: 2
Fore
SplineSet
589.634407129 977.791992188 m 1
 501.609685139 1034.63476562 l 1
 416.540214715 961.190429688 l 1
 410.707263668 956.155273438 l 1
 402.87346875 957.139648438 l 1
 259.718518425 975.139648438 l 1
 219.11948333 980.245117188 l 1
 251.673781827 1003.71777344 l 1
 434.747376928 1135.71777344 l 1
 438.239288945 1138.234375 l 1
 442.585307957 1138.83300781 l 1
 573.352604756 1156.83300781 l 1
 581.69100526 1157.98046875 l 1
 587.691468817 1152.39257812 l 1
 748.742338975 1002.39257812 l 1
 778.152158809 975 l 1
 736.8468827 975 l 1
 599.197096596 975 l 1
 593.958711557 975 l 1
 589.634407129 977.791992188 l 1
59.7998046875 10.8759765625 m 1
 65.548828125 26.7294921875 l 1
 398.757003918 917.2890625 l 1
 402.753521521 928.06640625 l 1
 414.845443085 928 l 1
 595.166456075 927 l 1
 607.172553329 926.93359375 l 1
 611.084280649 916.212890625 l 1
 938.756835938 25.693359375 l 1
 944.005859375 10.9814453125 l 1
 928.73828125 5.837890625 l 1
 836.73828125 -25.162109375 l 1
 821.647460938 -30.2470703125 l 1
 816.491210938 -15.1806640625 l 1
 742.710854582 192.780273438 l 1
 267.614355014 184.22265625 l 1
 203.92578125 -10.7568359375 l 1
 199.392578125 -25.314453125 l 1
 184.633789062 -21.48828125 l 1
 76.6337890625 6.51171875 l 1
 59.7998046875 10.8759765625 l 1
506.631958359 735.984375 m 1
 331.834722092 295.057617188 l 1
 705.706100261 295.939453125 l 1
 506.631958359 735.984375 l 1
EndSplineSet
EndChar

StartChar: Atilde
Encoding: 195 195 131
Width: 979
Flags: HW
LayerCount: 2
Fore
SplineSet
402.781440272 975 m 1
 385.839928136 975 l 1
 274.342774171 975 l 1
 257.401262035 975 l 1
 257.401262035 991 l 2
 257.401262035 1132.6171875 285.749135277 1157 405.110070969 1157 c 0
 569.34781493 1157 502.955989387 1078 584.054792903 1078 c 0
 605.539823369 1078 622.173195208 1073.70898438 622.173195208 1128 c 2
 622.173195208 1144.92578125 l 1
 640.066012957 1143.97460938 l 1
 752.939457979 1137.97460938 l 1
 768.929664501 1137.125 l 1
 768.929664501 1122 l 2
 768.929664501 980.341796875 741.616853127 958 621.220855567 958 c 0
 457.722441512 958 497.302959184 1049 414.746176413 1049 c 0
 410.398089344 1049 408.283502411 1048.41503906 408.041539896 1048.32226562 c 0
 406.607343281 1046.52636719 402.781440272 1030.6171875 402.781440272 991 c 2
 402.781440272 975 l 1
59.7998046875 10.8759765625 m 1
 65.548828125 26.7294921875 l 1
 398.757003918 917.2890625 l 1
 402.753521521 928.06640625 l 1
 414.845443085 928 l 1
 595.166456075 927 l 1
 607.172553329 926.93359375 l 1
 611.084280649 916.212890625 l 1
 938.756835938 25.693359375 l 1
 944.005859375 10.9814453125 l 1
 928.73828125 5.837890625 l 1
 836.73828125 -25.162109375 l 1
 821.647460938 -30.2470703125 l 1
 816.491210938 -15.1806640625 l 1
 742.710854582 192.780273438 l 1
 267.614355014 184.22265625 l 1
 203.92578125 -10.7568359375 l 1
 199.392578125 -25.314453125 l 1
 184.633789062 -21.48828125 l 1
 76.6337890625 6.51171875 l 1
 59.7998046875 10.8759765625 l 1
506.631958359 735.984375 m 1
 331.834722092 295.057617188 l 1
 705.706100261 295.939453125 l 1
 506.631958359 735.984375 l 1
EndSplineSet
EndChar

StartChar: Adieresis
Encoding: 196 196 132
Width: 979
Flags: HW
LayerCount: 2
Fore
SplineSet
527.195670019 983.893554688 m 1
 527.195670019 999 l 1
 527.195670019 1118 l 1
 527.195670019 1134.94628906 l 1
 545.109168325 1133.97363281 l 1
 692.394025844 1125.97363281 l 1
 708.36355181 1125.10644531 l 1
 708.36355181 1110 l 1
 708.36355181 991 l 1
 708.36355181 974.053710938 l 1
 690.449019477 975.026367188 l 1
 543.164161957 983.026367188 l 1
 527.195670019 983.893554688 l 1
285.796700558 975 m 1
 290.921342534 994.799804688 l 1
 321.204915894 1111.79980469 l 1
 324.312169554 1123.80175781 l 1
 337.393655762 1123.99804688 l 1
 470.913534671 1125.99804688 l 1
 488.123894045 1126.25585938 l 1
 488.123894045 1110 l 1
 488.123894045 991 l 1
 488.123894045 975 l 1
 471.182381909 975 l 1
 307.378929641 975 l 1
 285.796700558 975 l 1
59.7998046875 10.8759765625 m 1
 65.548828125 26.7294921875 l 1
 398.757003918 917.2890625 l 1
 402.753521521 928.06640625 l 1
 414.845443085 928 l 1
 595.166456075 927 l 1
 607.172553329 926.93359375 l 1
 611.084280649 916.212890625 l 1
 938.756835938 25.693359375 l 1
 944.005859375 10.9814453125 l 1
 928.73828125 5.837890625 l 1
 836.73828125 -25.162109375 l 1
 821.647460938 -30.2470703125 l 1
 816.491210938 -15.1806640625 l 1
 742.710854582 192.780273438 l 1
 267.614355014 184.22265625 l 1
 203.92578125 -10.7568359375 l 1
 199.392578125 -25.314453125 l 1
 184.633789062 -21.48828125 l 1
 76.6337890625 6.51171875 l 1
 59.7998046875 10.8759765625 l 1
506.631958359 735.984375 m 1
 331.834722092 295.057617188 l 1
 705.706100261 295.939453125 l 1
 506.631958359 735.984375 l 1
EndSplineSet
EndChar

StartChar: Aring
Encoding: 197 197 133
Width: 979
Flags: HW
LayerCount: 2
Fore
SplineSet
506.631958359 735.984375 m 1
 331.834722092 295.057617188 l 1
 705.706100261 295.939453125 l 1
 506.631958359 735.984375 l 1
59.7998046875 10.8759765625 m 1
 65.548828125 26.7294921875 l 1
 398.757003918 917.2890625 l 1
 402.753521521 928.06640625 l 1
 414.845443085 928 l 1
 595.166456075 927 l 1
 607.172553329 926.93359375 l 1
 611.084280649 916.212890625 l 1
 938.756835938 25.693359375 l 1
 944.005859375 10.9814453125 l 1
 928.73828125 5.837890625 l 1
 836.73828125 -25.162109375 l 1
 821.647460938 -30.2470703125 l 1
 816.491210938 -15.1806640625 l 1
 742.710854582 192.780273438 l 1
 267.614355014 184.22265625 l 1
 203.92578125 -10.7568359375 l 1
 199.392578125 -25.314453125 l 1
 184.633789062 -21.48828125 l 1
 76.6337890625 6.51171875 l 1
 59.7998046875 10.8759765625 l 1
446.4050068 982 m 2
 381.666591773 982 370.274707056 1005.53125 370.274707056 1070 c 0
 370.274707056 1156.10644531 395.67249887 1174 508.347410546 1174 c 0
 614.540001691 1174 631.279878398 1155.77636719 631.279878398 1081 c 2
 631.279878398 1043 l 2
 631.279878398 1023.83886719 632.72027918 1006.70410156 619.048363075 993.809570312 c 0
 605.920345614 981.427734375 588.296375104 982 567.537232182 982 c 2
 446.4050068 982 l 2
470.983848564 1058.21191406 m 0
 474.831466158 1057.40332031 483.554525019 1057 497.336048074 1057 c 0
 515.234035963 1057 525.113137949 1058.28222656 526.843066526 1058.953125 c 0
 527.459347119 1060.36132812 528.571961075 1066.70898438 528.571961075 1078 c 0
 528.571961075 1086.7890625 529.477769463 1094.80078125 529.730072256 1097.83496094 c 1
 525.165873369 1098.00976562 520.658546013 1098 513.853608796 1098 c 0
 469.71716446 1098 470.229008241 1099.140625 470.229008241 1078 c 0
 470.229008241 1067.86132812 470.561965205 1060.47363281 470.983848564 1058.21191406 c 0
EndSplineSet
EndChar

StartChar: AE
Encoding: 198 198 134
Width: 1410
Flags: HW
LayerCount: 2
Fore
SplineSet
736.137217724 768.5078125 m 1
 423.157567936 309.7421875 l 1
 728.954462009 296.708984375 l 1
 736.137217724 768.5078125 l 1
1332.91992188 118.997070312 m 1
 1343.03027344 119.75 l 2
 1359.09082031 119.75 1359.40527344 103 1359.40527344 103 c 1
 1359.40527344 -26 l 1
 1343.40527344 -26 l 2
 1177.37416369 -26 1105.60311599 -25.0517578125 897.132662774 -25.001953125 c 1
 897.132662774 -26 l 1
 743.168608821 -26 l 1
 743.168608821 192.494140625 l 1
 636.563516828 189.190429688 385.783625335 180.067382812 337.77076822 178.31640625 c 1
 195.456054688 -24.533203125 l 1
 58.5 14.2275390625 l 1
 617.48652936 917.927734375 l 1
 758.603763559 919 l 1
 1344.40527344 919 l 1
 1344.40527344 788.595703125 l 1
 1328.40527344 788.595703125 l 2
 1162.81288735 788.595703125 1081.79749783 794.061523438 899.199294371 795.262695312 c 1
 899.199294371 457.315429688 l 1
 1303.24902344 465 l 1
 1324.40527344 465 l 1
 1324.40527344 334 l 1
 1303.26855469 334 l 1
 899.199294371 340.724609375 l 1
 899.199294371 111.015625 l 1
 1102.3820769 111.421875 1175.77272602 118.825195312 1332.91992188 118.997070312 c 1
EndSplineSet
EndChar

StartChar: Ccedilla
Encoding: 199 199 135
Width: 835
Flags: HW
LayerCount: 2
Fore
SplineSet
749.323242188 168.586914062 m 1
 761.276367188 112.290039062 l 1
 781.276367188 18.09375 l 1
 781.831054688 15.482421875 l 1
 781.438476562 12.7373046875 l 2
 777.454101562 -15.15234375 735.778320312 -10.8564453125 608.441128741 -9.365234375 c 1
 595.616730657 -24.09765625 553.926550751 -15 530.259562189 -15 c 1
 529.382299016 -17.03125 l 2
 533.743125395 -16.986328125 532.01090235 -17 534.000144388 -17 c 0
 624.849985915 -17 646.599609375 -43.0673828125 646.599609375 -134 c 0
 646.599609375 -224.491210938 621.88895719 -248 519.861975669 -248 c 0
 432.233368045 -248 403.269876522 -235.733398438 376.703458828 -180.46875 c 2
 370.484024031 -167.53125 l 1
 383.684392046 -160.26953125 l 1
 447.306151283 -125.26953125 l 1
 462.249362962 -117.048828125 l 1
 416.720891158 -98.6474609375 l 1
 401.209476333 -92.3779296875 l 1
 407.612647849 -77.9541015625 l 1
 436.316996254 -13.28515625 l 1
 398.743368478 -12.1953125 349.310756935 -18.001953125 345.733732277 3.4306640625 c 1
 120.87890625 38.486328125 76.7001953125 154.891601562 76.7001953125 413.020507812 c 2
 76.7001953125 465.364257812 l 1
 82.748046875 824.061523438 138.256835938 941 525.517455569 941 c 2
 545.015850965 941 l 2
 721.126953125 938.267578125 782.599609375 950.956054688 782.599609375 921 c 2
 782.599609375 919.208007812 l 1
 782.203125 917.4609375 l 1
 759.948242188 819.337890625 l 2
 751.439453125 796.158203125 730.37890625 806 710.599609375 806 c 0
 683.294921875 806 635.283203125 807.002929688 544.771576716 808 c 2
 534.000144388 808 l 2
 280.037766046 808 243.136423486 738.454101562 236.120442224 462.759765625 c 1
 236.120442224 413.912109375 l 2
 236.120442224 183.69140625 323.48353436 168.315429688 548.949728439 120.322265625 c 1
 548.898749466 120.134765625 711.643554688 121.009765625 733.31640625 122.428710938 c 1
 749.323242188 168.586914062 l 1
466.204481676 -118.647460938 m 1
 465.235881174 -118.255859375 l 1
 472.13397356 -132.486328125 l 2
 487.968255218 -165.151367188 486.470747864 -163 515.62116229 -163 c 0
 552.260175547 -163 547.050761667 -167.811523438 547.050761667 -134 c 0
 547.050761667 -97.88671875 552.128479865 -104 519.861975669 -104 c 0
 502.656572029 -104 493.356095506 -105.271484375 491.609003593 -105.845703125 c 0
 491.315874494 -106.509765625 491.345612229 -106.447265625 491.169309944 -106.946289062 c 2
 490.45985256 -108.951171875 l 1
 489.210867703 -110.71875 l 1
 487.797263243 -112.71875 l 1
 479.740461267 -124.118164062 l 1
 466.204481676 -118.647460938 l 1
EndSplineSet
EndChar

StartChar: Egrave
Encoding: 200 200 136
Width: 782
Flags: HW
LayerCount: 2
Fore
SplineSet
710.940429688 4 m 1
 226.599609375 4 l 1
 224.599609375 4 l 1
 109.599609375 4 l 1
 93.599609375 4 l 1
 93.599609375 19.466796875 l 1
 93.599609375 933 l 1
 93.599609375 949 l 1
 109.599609375 949 l 1
 695.940429688 949 l 1
 711.940429688 949 l 1
 711.940429688 933 l 1
 711.940429688 833.4296875 l 1
 711.940429688 817.962890625 l 1
 695.940429688 817.962890625 l 2
 527.232245273 817.962890625 440.265458379 823.432617188 244.599609375 824.634765625 c 1
 244.599609375 487.342773438 l 1
 674.979492188 510.5234375 l 1
 691.940429688 511.510742188 l 1
 691.940429688 495.083984375 l 2
 691.940429688 465.168945312 688.940429688 427.469726562 688.940429688 399.380859375 c 2
 688.940429688 384.538085938 l 1
 673.599609375 383.926757812 l 1
 244.599609375 368.104492188 l 1
 244.599609375 136.453125 l 1
 464.978480603 136.845703125 550.25758061 144.171875 710.940429688 144.171875 c 2
 726.940429688 144.171875 l 1
 726.940429688 128.704101562 l 1
 726.940429688 19.466796875 l 1
 726.940429688 4 l 1
 710.940429688 4 l 1
356.741206097 975 m 1
 351.426833912 980.623046875 l 1
 213.420898438 1130.62304688 l 1
 190.947265625 1157 l 1
 225.599609375 1157 l 1
 428.383406097 1157 l 1
 439.49744169 1157 l 1
 444.350353917 1147.98632812 l 1
 525.103679977 997.986328125 l 1
 537.477522918 975 l 1
 509.136732156 975 l 1
 364.935911678 975 l 1
 356.741206097 975 l 1
EndSplineSet
EndChar

StartChar: Eacute
Encoding: 201 201 137
Width: 783
Flags: HW
LayerCount: 2
Fore
SplineSet
358.178664697 974.28125 m 1
 365.233802496 995.578125 l 1
 414.262298106 1143.578125 l 1
 418.004890014 1154.87597656 l 1
 431.081755284 1154.99902344 l 1
 635.772460938 1156.99902344 l 1
 668.77734375 1157.34472656 l 1
 648.604492188 1131.22070312 l 1
 531.836012453 985.220703125 l 1
 526.725289263 979.254882812 l 1
 518.369181021 979.008789062 l 1
 382.820193124 975.008789062 l 1
 358.178664697 974.28125 l 1
700.49609375 136.796875 m 1
 710.565429688 137.516601562 l 2
 726.625976562 137.516601562 726.940429688 121.493164062 726.940429688 121.493164062 c 1
 726.940429688 0 l 1
 93.599609375 0 l 1
 93.599609375 927 l 1
 711.940429688 927 l 1
 711.940429688 798.616210938 l 1
 695.940429688 798.616210938 l 2
 527.232245273 798.616210938 440.265458379 804.078125 244.599609375 805.278320312 c 1
 244.599609375 474.314453125 l 1
 671.78515625 482 l 1
 691.940429688 482 l 1
 691.940429688 353 l 1
 671.8046875 353 l 1
 244.599609375 359.725585938 l 1
 244.599609375 129.162109375 l 1
 457.945007591 129.548828125 542.653240468 136.631835938 700.49609375 136.796875 c 1
EndSplineSet
EndChar

StartChar: Ecircumflex
Encoding: 202 202 138
Width: 783
Flags: HW
LayerCount: 2
Fore
SplineSet
547.36749806 977.822265625 m 1
 454.104924143 1035.71972656 l 1
 345.837318936 971.625976562 l 1
 339.499285578 967.873046875 l 1
 332.109426824 969.409179688 l 1
 211.005859375 995.409179688 l 1
 177.6796875 1003.09082031 l 1
 204.93359375 1023.75097656 l 1
 375.844131797 1143.75097656 l 1
 380.435983344 1146.88867188 l 1
 386.196650136 1146.99609375 l 1
 492.904390698 1148.99609375 l 1
 499.923781599 1149.12792969 l 1
 505.143911962 1144.89453125 l 1
 669.641601562 1002.89453125 l 1
 700.6484375 975 l 1
 658.940429688 975 l 1
 557.432957975 975 l 1
 551.913853556 975 l 1
 547.36749806 977.822265625 l 1
700.455078125 136.796875 m 1
 710.565429688 137.516601562 l 2
 726.625976562 137.516601562 726.940429688 121.493164062 726.940429688 121.493164062 c 1
 726.940429688 0 l 1
 93.599609375 0 l 1
 93.599609375 927 l 1
 711.940429688 927 l 1
 711.940429688 798.616210938 l 1
 695.940429688 798.616210938 l 2
 527.232245273 798.616210938 440.265458379 804.078125 244.599609375 805.278320312 c 1
 244.599609375 474.314453125 l 1
 671.78515625 482 l 1
 691.940429688 482 l 1
 691.940429688 353 l 1
 671.8046875 353 l 1
 244.599609375 359.725585938 l 1
 244.599609375 129.161132812 l 1
 462.361374366 129.549804688 541.144288072 136.631835938 700.455078125 136.796875 c 1
EndSplineSet
EndChar

StartChar: Edieresis
Encoding: 203 203 139
Width: 783
Flags: HW
LayerCount: 2
Fore
SplineSet
479.909851617 990.561523438 m 1
 478.497307523 1003.42285156 l 1
 466.960808589 1108.42285156 l 1
 465.029392852 1126 l 1
 484.621942731 1126 l 1
 626.940429688 1126 l 1
 642.940429688 1126 l 1
 642.940429688 1110 l 1
 642.940429688 991 l 1
 642.940429688 973.079101562 l 1
 625.134765625 975.102539062 l 1
 494.155532132 989.102539062 l 1
 479.909851617 990.561523438 l 1
233.338867188 975 m 1
 236.1875 993.442382812 l 1
 252.222692234 1094.44238281 l 1
 254.261348665 1106.33886719 l 1
 267.506116033 1107.87011719 l 1
 423.243435445 1125.87011719 l 1
 443.247616273 1128.18261719 l 1
 443.247616273 1110 l 1
 443.247616273 991 l 1
 443.247616273 975 l 1
 425.499822983 975 l 1
 252.458838409 975 l 1
 233.338867188 975 l 1
700.455078125 136.796875 m 1
 710.565429688 137.516601562 l 2
 726.625976562 137.516601562 726.940429688 121.493164062 726.940429688 121.493164062 c 1
 726.940429688 0 l 1
 93.599609375 0 l 1
 93.599609375 927 l 1
 711.940429688 927 l 1
 711.940429688 798.616210938 l 1
 695.940429688 798.616210938 l 2
 527.232245273 798.616210938 440.265458379 804.078125 244.599609375 805.278320312 c 1
 244.599609375 474.314453125 l 1
 671.78515625 482 l 1
 691.940429688 482 l 1
 691.940429688 353 l 1
 671.8046875 353 l 1
 244.599609375 359.725585938 l 1
 244.599609375 129.161132812 l 1
 462.361374366 129.549804688 541.144288072 136.631835938 700.455078125 136.796875 c 1
EndSplineSet
EndChar

StartChar: Igrave
Encoding: 204 204 140
Width: 342
Flags: HW
LayerCount: 2
Fore
SplineSet
136.6953125 975 m 1
 132.092773438 983.084960938 l 1
 58.0927734375 1113.08496094 l 1
 46.7998046875 1132.92480469 l 1
 69.302734375 1136.77148438 l 1
 186.302734375 1156.77148438 l 1
 199.278320312 1158.98925781 l 1
 203.955078125 1146.68359375 l 1
 260.955078125 996.68359375 l 1
 269.194335938 975 l 1
 245.998046875 975 l 1
 145.998046875 975 l 1
 136.6953125 975 l 1
179.998046875 1 m 1
 179.998046875 3.2685546875 l 1
 136.727539062 4.001953125 l 1
 121.203125 4.265625 l 1
 121 19.2626953125 l 1
 108.998046875 903.272460938 l 1
 108.998046875 908.204101562 l 1
 108.998046875 914 l 1
 108.998046875 930.833984375 l 1
 125.810546875 929.979492188 l 1
 243.810546875 923.979492188 l 1
 258.80078125 923.216796875 l 1
 258.997070312 908.712890625 l 1
 270.998046875 21.396484375 l 1
 270.998046875 16.4638671875 l 1
 270.998046875 1 l 1
 254.998046875 1 l 1
 195.998046875 1 l 1
 179.998046875 1 l 1
EndSplineSet
EndChar

StartChar: Iacute
Encoding: 205 205 141
Width: 327
Flags: HW
LayerCount: 2
Fore
SplineSet
81.900390625 975 m 1
 89.962890625 996.595703125 l 1
 145.962890625 1146.59570312 l 1
 151.198242188 1160.61914062 l 1
 165.5390625 1156.328125 l 1
 292.5390625 1118.328125 l 1
 314.3828125 1111.79296875 l 1
 300.807617188 1093.47363281 l 1
 217.807617188 981.473632812 l 1
 213.009765625 975 l 1
 204.952148438 975 l 1
 104.952148438 975 l 1
 81.900390625 975 l 1
162.952148438 1 m 1
 162.952148438 3.2685546875 l 1
 119.681640625 4.001953125 l 1
 104.157226562 4.265625 l 1
 103.954101562 19.2626953125 l 1
 91.9521484375 903.272460938 l 1
 91.9521484375 908.204101562 l 1
 91.9521484375 914 l 1
 91.9521484375 930.833984375 l 1
 108.764648438 929.979492188 l 1
 226.764648438 923.979492188 l 1
 241.754882812 923.216796875 l 1
 241.951171875 908.712890625 l 1
 253.952148438 21.396484375 l 1
 253.952148438 16.4638671875 l 1
 253.952148438 1 l 1
 237.952148438 1 l 1
 178.952148438 1 l 1
 162.952148438 1 l 1
EndSplineSet
EndChar

StartChar: Icircumflex
Encoding: 206 206 142
Width: 487
Flags: HW
LayerCount: 2
Fore
SplineSet
340.732421875 981.176757812 m 1
 269.224903383 1033.53808594 l 1
 191.041536651 978.96875 l 1
 186.597362346 975.8671875 l 1
 180.870117188 975.174804688 l 1
 86.8701171875 961.174804688 l 1
 46.7998046875 955.20703125 l 1
 71.978515625 986.944335938 l 1
 193.450688827 1136.94433594 l 1
 198.045741807 1141.55566406 l 1
 205.300184766 1142.69628906 l 1
 307.043931258 1158.69628906 l 1
 318.137807166 1160.44140625 l 1
 325.77006014 1153.79785156 l 1
 467.3203125 1001.79785156 l 1
 492.478515625 974.286132812 l 1
 455.205078125 975.002929688 l 1
 351.205078125 977.002929688 l 1
 345.18359375 977.119140625 l 1
 340.732421875 981.176757812 l 1
249.389877573 1 m 1
 249.389877573 3.2685546875 l 1
 195.036754898 4.001953125 l 1
 176.717773438 4.265625 l 1
 176.513671875 19.2626953125 l 1
 164.512695312 903.272460938 l 1
 164.512695312 908.204101562 l 1
 164.512695312 914 l 1
 164.512695312 930.833984375 l 1
 181.325195312 929.979492188 l 1
 329.544480327 923.979492188 l 1
 346.315429688 923.216796875 l 1
 346.51171875 908.712890625 l 1
 358.512695312 21.396484375 l 1
 358.512695312 16.4638671875 l 1
 358.512695312 1 l 1
 342.512695312 1 l 1
 269.487407744 1 l 1
 249.389877573 1 l 1
EndSplineSet
EndChar

StartChar: Idieresis
Encoding: 207 207 143
Width: 397
Flags: HW
LayerCount: 2
Fore
SplineSet
210.862304688 975 m 1
 210.57421875 990.706054688 l 1
 208.57421875 1099.70605469 l 1
 208.298828125 1114.70996094 l 1
 223.25390625 1115.9453125 l 1
 344.25390625 1125.9453125 l 1
 361.571289062 1127.37695312 l 1
 361.571289062 1110 l 1
 361.571289062 991 l 1
 361.571289062 975 l 1
 345.571289062 975 l 1
 226.571289062 975 l 1
 210.862304688 975 l 1
48.099609375 975 m 1
 50.7353515625 993.282226562 l 1
 66.7353515625 1104.28222656 l 1
 68.5625 1116.95996094 l 1
 81.33203125 1117.95214844 l 1
 184.33203125 1125.95214844 l 1
 201.571289062 1127.29101562 l 1
 201.571289062 1110 l 1
 201.571289062 991 l 1
 201.571289062 975 l 1
 185.571289062 975 l 1
 66.5712890625 975 l 1
 48.099609375 975 l 1
190.571289062 1 m 1
 190.571289062 3.2685546875 l 1
 147.299804688 4.001953125 l 1
 131.776367188 4.265625 l 1
 131.572265625 19.2626953125 l 1
 119.571289062 903.272460938 l 1
 119.571289062 908.204101562 l 1
 119.571289062 914 l 1
 119.571289062 930.833984375 l 1
 136.383789062 929.979492188 l 1
 254.383789062 923.979492188 l 1
 269.374023438 923.216796875 l 1
 269.5703125 908.712890625 l 1
 281.571289062 21.396484375 l 1
 281.571289062 16.4638671875 l 1
 281.571289062 1 l 1
 265.571289062 1 l 1
 206.571289062 1 l 1
 190.571289062 1 l 1
EndSplineSet
EndChar

StartChar: Eth
Encoding: 208 208 144
Width: 1034
Flags: HW
LayerCount: 2
Fore
SplineSet
288.770774958 0 m 1
 229.561604781 0 l 1
 170 0 l 1
 154 0 l 1
 154 16 l 1
 154 20.8232421875 l 1
 155.915039062 368 l 1
 81 368 l 1
 65 368 l 1
 65 383.5546875 l 1
 65 484.661132812 l 1
 65 501.083984375 l 1
 81.8681640625 500.192382812 l 1
 157.076171875 496.21875 l 1
 159 911.515625 l 1
 159.072265625 927 l 1
 175 927 l 1
 224.275071729 927 l 1
 276.083095634 927 l 1
 453.076635209 927 l 2
 896.727539062 927 963.799804688 901.239257812 963.799804688 584.8125 c 0
 963.799804688 547.822265625 962.794921875 508.061523438 961.796875 462.708984375 c 0
 952.737304688 21.9296875 933.266601562 0 494.311593011 0 c 2
 293.633972355 0 l 1
 288.770774958 0 l 1
302.829648792 368 m 1
 304.718138821 277.041992188 306.500278674 193.032226562 307.56378044 128.923828125 c 1
 377.326398727 128.793945312 406.581990032 128 481.940899165 128 c 0
 796.757039961 128 792.220120775 122.918945312 801.783376464 463.435546875 c 0
 803.162831182 502.720703125 804.524732958 536.858398438 804.524732958 567.985351562 c 0
 804.524732958 791.8828125 769.314564288 798 459.949128176 798 c 2
 295.417144734 798 l 1
 296.268978673 754.063476562 298.732585677 625.76953125 301.196192681 487.912109375 c 1
 467.508250924 481.75390625 l 1
 483.738526908 481.153320312 l 1
 483.738526908 466.340820312 l 1
 483.738526908 383.42578125 l 1
 483.738526908 368 l 1
 466.821621143 368 l 1
 302.829648792 368 l 1
EndSplineSet
EndChar

StartChar: Ntilde
Encoding: 209 209 145
Width: 938
Flags: HW
LayerCount: 2
Fore
SplineSet
307.634840176 989.696289062 m 1
 291.21081562 989.015625 l 1
 198.310546875 985.015625 l 1
 181.599609375 984.272460938 l 1
 181.599609375 1001 l 2
 181.599609375 1148.39941406 250.069976898 1167 368.651098497 1167 c 0
 536.253569322 1167 487.672823718 1064 569.747837081 1064 c 0
 579.150528196 1064 598.645140379 1071.82910156 598.645140379 1134 c 2
 598.645140379 1153.82324219 l 1
 619.460514373 1149.63964844 l 1
 699.060804056 1133.63964844 l 1
 712.5 1130.9140625 l 1
 712.5 1118 l 2
 712.5 975.123046875 679.169648613 960 559.972730999 960 c 0
 392.602101604 960 458.182803643 1049 378.427253635 1049 c 2
 368.651098497 1049 l 2
 337.395516763 1049 307.634840176 1047.85742188 307.634840176 1005 c 2
 307.634840176 989.696289062 l 1
718.03125 935.366210938 m 1
 735.495117188 933.947265625 l 1
 846.294921875 924.947265625 l 1
 860.936523438 923.7578125 l 1
 861 909.568359375 l 1
 865 15.0693359375 l 1
 865.071289062 -1.4404296875 l 1
 848.567382812 -0.994140625 l 1
 812.162109375 -0.009765625 l 1
 661.332545296 -6.982421875 l 1
 651.068579005 -7.43359375 l 1
 645.782384591 0.767578125 l 1
 236.354492188 637.310546875 l 1
 254.567281016 21.23046875 l 1
 254.567281016 16 l 1
 254.567281016 0 l 1
 238.099609375 0 l 1
 171.599609375 0 l 1
 109.599609375 0 l 1
 93.599609375 0 l 1
 93.599609375 16 l 1
 93.599609375 20.845703125 l 1
 94.599609375 919.017578125 l 1
 94.6220703125 939.686523438 l 1
 114.625976562 934.485351562 l 1
 163.356445312 921.815429688 l 1
 250.109841036 913.934570312 l 1
 258.891490854 913.190429688 l 1
 263.363617622 906.116210938 l 1
 725.419921875 173.70703125 l 1
 718.201171875 917.844726562 l 1
 718.03125 935.366210938 l 1
EndSplineSet
EndChar

StartChar: Ograve
Encoding: 210 210 146
Width: 980
Flags: HW
LayerCount: 2
Fore
SplineSet
454.701516985 975 m 1
 449.604709126 980.581054688 l 1
 312.606297756 1130.58105469 l 1
 284.323847945 1161.546875 l 1
 327.473633265 1156.89550781 l 1
 577.944888259 1129.89550781 l 1
 590.260181489 1128.56835938 l 1
 592.700994226 1117.15039062 l 1
 618.993786635 994.150390625 l 1
 623.087449566 975 l 1
 602.295841573 975 l 1
 462.53020554 975 l 1
 454.701516985 975 l 1
236.009685418 463.022460938 m 0
 236.009685418 156.803710938 265.876376546 121.751953125 491.705610267 119 c 2
 512.347526167 119 l 2
 708.589701906 119 754.090900519 147.94140625 754.090900519 339.748046875 c 0
 754.090900519 375.3125 751.345505953 415.408203125 748.583478933 462.137695312 c 0
 727.892705197 757.435546875 685.552712518 808 491.590222612 808 c 0
 277.825755771 808 236.009685418 757.627929688 236.009685418 463.022460938 c 0
491.439490991 -15 m 1
 129.04296875 -9.0654296875 76.7001953125 66.4453125 76.7001953125 463 c 0
 76.7001953125 846.194335938 142.563476562 941 491.590222612 941 c 0
 824.779296875 941 890.263671875 846.38671875 909.385742188 463.666015625 c 0
 911.391601562 412.233398438 913.400390625 366.783203125 913.400390625 325.599609375 c 0
 913.400390625 47.6923828125 840.450195312 -15 533.104829722 -15 c 2
 491.439490991 -15 l 1
EndSplineSet
EndChar

StartChar: Oacute
Encoding: 211 211 147
Width: 980
Flags: HW
LayerCount: 2
Fore
SplineSet
353.687421514 975 m 1
 365.561954693 997.986328125 l 1
 443.05568006 1147.98632812 l 1
 448.471623145 1158.46972656 l 1
 460.754690994 1156.84375 l 1
 642.035973665 1132.84375 l 1
 673.681297925 1128.65429688 l 1
 652.334581754 1106.3125 l 1
 531.941597417 980.3125 l 1
 526.865580126 975 l 1
 519.266627352 975 l 1
 380.884603651 975 l 1
 353.687421514 975 l 1
236.009685418 463.022460938 m 0
 236.009685418 156.803710938 265.876376546 121.751953125 491.705610267 119 c 2
 512.347526167 119 l 2
 708.589701906 119 754.090900519 147.94140625 754.090900519 339.748046875 c 0
 754.090900519 375.3125 751.345505953 415.408203125 748.583478933 462.137695312 c 0
 727.892705197 757.435546875 685.552712518 808 491.590222612 808 c 0
 277.825755771 808 236.009685418 757.627929688 236.009685418 463.022460938 c 0
491.439490991 -15 m 1
 129.04296875 -9.0654296875 76.7001953125 66.4453125 76.7001953125 463 c 0
 76.7001953125 846.194335938 142.563476562 941 491.590222612 941 c 0
 824.779296875 941 890.263671875 846.38671875 909.385742188 463.666015625 c 0
 911.391601562 412.233398438 913.400390625 366.783203125 913.400390625 325.599609375 c 0
 913.400390625 47.6923828125 840.450195312 -15 533.104829722 -15 c 2
 491.439490991 -15 l 1
EndSplineSet
EndChar

StartChar: Ocircumflex
Encoding: 212 212 148
Width: 980
Flags: HW
LayerCount: 2
Fore
SplineSet
577.516602548 976.962890625 m 1
 463.535429526 1035.53515625 l 1
 396.395407254 979.078125 l 1
 391.54600716 975 l 1
 385.036480173 975 l 1
 246.654456472 975 l 1
 206.689453125 975 l 1
 234.695721491 1002.39160156 l 1
 396.60227341 1152.39160156 l 1
 401.575377387 1157 l 1
 408.561008391 1157 l 1
 562.164846794 1157 l 1
 569.150477798 1157 l 1
 574.123581775 1152.39257812 l 1
 736.031173222 1002.39257812 l 1
 765.2109375 975 l 1
 724.072438241 975 l 1
 585.69041454 975 l 1
 581.336869504 975 l 1
 577.516602548 976.962890625 l 1
236.009685418 463.022460938 m 0
 236.009685418 156.803710938 265.876376546 121.751953125 491.705610267 119 c 2
 512.347526167 119 l 2
 708.589701906 119 754.090900519 147.94140625 754.090900519 339.748046875 c 0
 754.090900519 375.3125 751.345505953 415.408203125 748.583478933 462.137695312 c 0
 727.892705197 757.435546875 685.552712518 808 491.590222612 808 c 0
 277.825755771 808 236.009685418 757.627929688 236.009685418 463.022460938 c 0
491.439490991 -15 m 1
 129.04296875 -9.0654296875 76.7001953125 66.4453125 76.7001953125 463 c 0
 76.7001953125 846.194335938 142.563476562 941 491.590222612 941 c 0
 824.779296875 941 890.263671875 846.38671875 909.385742188 463.666015625 c 0
 911.391601562 412.233398438 913.400390625 366.783203125 913.400390625 325.599609375 c 0
 913.400390625 47.6923828125 840.450195312 -15 533.104829722 -15 c 2
 491.439490991 -15 l 1
EndSplineSet
EndChar

StartChar: Otilde
Encoding: 213 213 149
Width: 980
Flags: HW
LayerCount: 2
Fore
SplineSet
357.785242558 975 m 1
 340.753608872 975 l 1
 228.799804688 975 l 1
 212.799804688 975 l 1
 212.799804688 991 l 1
 212.799804688 1054 l 2
 212.799804688 1138.78417969 231.839097384 1161 329.683670693 1161 c 0
 493.124566565 1161 457.094511415 1078 540.023930907 1078 c 0
 545.783957901 1078 547.945137492 1078.86425781 547.97944193 1078.88085938 c 0
 548.965954404 1079.87890625 553.436966152 1094.13671875 553.436966152 1136 c 2
 553.436966152 1152 l 1
 570.468599839 1152 l 1
 682.557831131 1152 l 1
 699.589464817 1152 l 1
 699.589464817 1136 l 2
 699.589464817 995.251953125 672.815370748 960 549.711296284 960 c 0
 383.688211809 960 450.338616193 1049 369.814665472 1049 c 0
 365.443448452 1049 363.318652355 1048.41503906 363.074363176 1048.32226562 c 0
 361.632537253 1046.52636719 357.785242558 1030.6171875 357.785242558 991 c 2
 357.785242558 975 l 1
236.009685418 463.022460938 m 0
 236.009685418 156.803710938 265.876376546 121.751953125 491.705610267 119 c 2
 512.347526167 119 l 2
 708.589701906 119 754.090900519 147.94140625 754.090900519 339.748046875 c 0
 754.090900519 375.3125 751.345505953 415.408203125 748.583478933 462.137695312 c 0
 727.892705197 757.435546875 685.552712518 808 491.590222612 808 c 0
 277.825755771 808 236.009685418 757.627929688 236.009685418 463.022460938 c 0
491.439490991 -15 m 1
 129.04296875 -9.0654296875 76.7001953125 66.4453125 76.7001953125 463 c 0
 76.7001953125 846.194335938 142.563476562 941 491.590222612 941 c 0
 824.779296875 941 890.263671875 846.38671875 909.385742188 463.666015625 c 0
 911.391601562 412.233398438 913.400390625 366.783203125 913.400390625 325.599609375 c 0
 913.400390625 47.6923828125 840.450195312 -15 533.104829722 -15 c 2
 491.439490991 -15 l 1
EndSplineSet
EndChar

StartChar: Odieresis
Encoding: 214 214 150
Width: 980
Flags: HW
LayerCount: 2
Fore
SplineSet
523.377962266 979.3984375 m 1
 521.716795846 993.203125 l 1
 507.878593476 1108.203125 l 1
 505.737164924 1126 l 1
 524.802116206 1126 l 1
 689.476932316 1126 l 1
 706.508566002 1126 l 1
 706.508566002 1110 l 1
 706.508566002 991 l 1
 706.508566002 974.541992188 l 1
 688.996670185 975.006835938 l 1
 538.160056445 979.006835938 l 1
 523.377962266 979.3984375 l 1
284.464184282 975 m 1
 286.453841684 992.681640625 l 1
 300.292044054 1115.68164062 l 1
 301.949052361 1130.41113281 l 1
 317.709342786 1129.99316406 l 1
 468.545956526 1125.99316406 l 1
 485.09732808 1125.5546875 l 1
 485.09732808 1110 l 1
 485.09732808 991 l 1
 485.09732808 975 l 1
 468.065694394 975 l 1
 303.390878284 975 l 1
 284.464184282 975 l 1
236.009685418 463.022460938 m 0
 236.009685418 156.803710938 265.876376546 121.751953125 491.705610267 119 c 2
 512.347526167 119 l 2
 708.589701906 119 754.090900519 147.94140625 754.090900519 339.748046875 c 0
 754.090900519 375.3125 751.345505953 415.408203125 748.583478933 462.137695312 c 0
 727.892705197 757.435546875 685.552712518 808 491.590222612 808 c 0
 277.825755771 808 236.009685418 757.627929688 236.009685418 463.022460938 c 0
491.439490991 -15 m 1
 129.04296875 -9.0654296875 76.7001953125 66.4453125 76.7001953125 463 c 0
 76.7001953125 846.194335938 142.563476562 941 491.590222612 941 c 0
 824.779296875 941 890.263671875 846.38671875 909.385742188 463.666015625 c 0
 911.391601562 412.233398438 913.400390625 366.783203125 913.400390625 325.599609375 c 0
 913.400390625 47.6923828125 840.450195312 -15 533.104829722 -15 c 2
 491.439490991 -15 l 1
EndSplineSet
EndChar

StartChar: multiply
Encoding: 215 215 151
Width: 758
Flags: HW
LayerCount: 2
Fore
SplineSet
580.127929688 701 m 1
 669.127929688 667 l 1
 688.21875 659.70703125 l 1
 676.557617188 648.741210938 l 1
 508.963760686 425.25 l 1
 719.322265625 155.919921875 l 1
 731.719726562 144.493164062 l 1
 712.135742188 137 l 1
 597.135742188 93 l 1
 586.0546875 88.7607421875 l 1
 578.779296875 93 l 1
 396.143673412 298.086914062 l 1
 351.733854862 249.946289062 229.384617554 116.725585938 225.054352698 113 c 2
 218.756855365 111.745117188 l 1
 209.96875 113 l 1
 81.96875 133 l 1
 55.900390625 137.073242188 l 1
 71.5625 151.99609375 l 1
 283.508649334 421.162109375 l 1
 101.409179688 658.428710938 l 1
 83.388671875 677 l 1
 146.438476562 677 l 1
 206.438476562 677 l 1
 248.971363975 677 l 1
 254.195922659 677 l 1
 398.899296502 529.548828125 l 1
 560.856336811 701 l 1
 568.892144518 705.005859375 l 1
 580.127929688 701 l 1
EndSplineSet
EndChar

StartChar: Oslash
Encoding: 216 216 152
Width: 1052
Flags: HW
LayerCount: 2
Fore
SplineSet
321.497451831 161.051757812 m 1
 362.565190329 128.861328125 431.336285616 119 546.127329842 119 c 0
 805.182891866 119 838.884062962 156.80078125 838.884062962 479 c 0
 838.884062962 576.639648438 832.539429261 650.513671875 818.44847636 701.866210938 c 1
 321.497451831 161.051757812 l 1
147.85546875 86.5576171875 m 1
 101.665039062 160.709960938 91.990234375 275.9375 91.990234375 463.4140625 c 0
 91.990234375 847.198242188 163.854492188 941 546.127329842 941 c 0
 695.828781921 941 803.698875354 929.063476562 875.083007812 891.518554688 c 1
 903.615234375 933.930664062 l 1
 908.37109375 941 l 1
 916.890625 941 l 1
 982.890625 941 l 1
 1012.78710938 941 l 1
 996.204101562 916.125 l 1
 938.064453125 831.8125 l 1
 986.071289062 756.823242188 998.890625 642.166992188 998.890625 462.586914062 c 0
 998.890625 59.8154296875 941.471679688 -15 546.127329842 -15 c 0
 390.344703305 -15 280.749775146 -6.5849609375 211.077148438 27.7861328125 c 1
 187.303710938 -7.875 l 1
 182.553710938 -15 l 1
 173.990234375 -15 l 1
 107.990234375 -15 l 1
 78 -15 l 1
 94.701171875 9.91015625 l 1
 147.85546875 86.5576171875 l 1
252.001843628 447 m 0
 252.001843628 346.126953125 256.259386146 271.923828125 269.764759716 220.225585938 c 1
 765.44891578 760.124023438 l 1
 723.564041977 794.888671875 656.089660147 808 546.127329842 808 c 0
 298.69073205 808 252.001843628 753.860351562 252.001843628 447 c 0
EndSplineSet
EndChar

StartChar: Ugrave
Encoding: 217 217 153
Width: 888
Flags: HW
LayerCount: 2
Fore
SplineSet
343.647708166 960 m 1
 338.461631027 965.651367188 l 1
 203.896484375 1115.65136719 l 1
 181.552734375 1142 l 1
 216.099609375 1142 l 1
 413.557253718 1142 l 1
 424.398564118 1142 l 1
 429.132391661 1132.98632812 l 1
 507.903070645 982.986328125 l 1
 519.973274222 960 l 1
 492.327932702 960 l 1
 351.665628567 960 l 1
 343.647708166 960 l 1
222.685546875 913.635742188 m 2
 222.524414062 912.686523438 236.107421875 889.826171875 236.107421875 889.826171875 c 1
 237.099609375 385.907226562 l 2
 237.099609375 132.91796875 237.958007812 133 452.943121539 133 c 0
 640.705953069 133 642.477968424 133.244140625 659.27354628 386.98828125 c 1
 647.713708486 920.072265625 l 1
 817.659179688 929.969726562 l 1
 815.598632812 361.850585938 l 1
 799.461914062 14.5859375 775.087890625 -15 452.943121539 -15 c 0
 111.91796875 -15 87.099609375 14.9072265625 87.099609375 362.31640625 c 2
 88.1328125 934.828125 l 1
 222.685546875 913.635742188 l 2
EndSplineSet
EndChar

StartChar: Uacute
Encoding: 218 218 154
Width: 890
Flags: HW
LayerCount: 2
Fore
SplineSet
354.664572742 960 m 1
 366.737267793 982.986328125 l 1
 445.525263127 1132.98632812 l 1
 450.260067805 1142 l 1
 461.103616017 1142 l 1
 662.291596643 1142 l 1
 697.110351562 1142 l 1
 674.442382812 1115.58105469 l 1
 536.148156403 965.581054688 l 1
 530.966293158 960 l 1
 523.006959671 960 l 1
 382.315620683 960 l 1
 354.664572742 960 l 1
87.099609375 362.186523438 m 2
 87.099609375 906.689453125 l 1
 87.099609375 911.525390625 l 1
 87.099609375 927 l 1
 103.099609375 927 l 1
 162.099609375 927 l 1
 222.099609375 927 l 1
 238.099609375 927 l 1
 238.099609375 911.620117188 l 1
 238.099609375 908.736328125 l 1
 238.099609375 906.78515625 l 1
 237.099609375 385.811523438 l 2
 237.099609375 132.887695312 237.67578125 133 452.661290177 133 c 0
 659.146333536 133 660.451575451 132.615234375 660.451575451 386.772460938 c 2
 660.451575451 906.813476562 l 1
 660.451575451 911.620117188 l 1
 660.451575451 927 l 1
 676.599609375 927 l 1
 738.599609375 927 l 1
 800.599609375 927 l 1
 816.599609375 927 l 1
 816.599609375 911.525390625 l 1
 816.599609375 906.689453125 l 1
 816.599609375 362.186523438 l 2
 816.599609375 14.9638671875 791.828125 -15 452.661290177 -15 c 0
 111.91015625 -15 87.099609375 14.9287109375 87.099609375 362.186523438 c 2
EndSplineSet
EndChar

